{"glyphs":{"0":{"ha":1385,"x_min":133,"x_max":1237,"o":"m 927 226 q 815 160 877 185 q 683 135 753 135 q 552 160 613 135 q 442 226 492 185 l 927 226 m 413 254 q 347 365 370 303 q 323 497 323 426 q 344 620 323 563 q 404 726 365 678 l 883 726 l 413 254 m 440 766 q 551 834 490 810 q 683 859 613 859 q 815 834 753 859 q 923 766 876 809 l 440 766 m 1044 497 q 1023 372 1044 430 q 963 265 1001 314 l 482 265 l 952 740 q 1021 623 998 683 q 1044 497 1044 563 m 800 76 q 743 65 772 69 q 683 60 715 60 q 565 76 622 60 q 460 122 508 92 q 372 191 411 151 q 305 280 333 231 q 262 383 277 328 q 247 497 247 438 q 263 615 247 558 q 308 721 278 672 q 377 809 337 769 q 466 876 417 849 q 570 919 515 904 q 683 935 625 935 q 858 899 778 935 q 996 802 938 863 q 1087 662 1054 741 q 1119 497 1119 583 q 1094 350 1119 418 q 1026 228 1069 282 q 925 135 983 174 q 800 76 867 97 m 789 883 q 739 895 765 891 q 683 899 713 899 q 574 884 626 899 q 477 842 522 869 q 397 778 433 815 q 336 696 361 740 q 297 601 310 651 q 283 497 283 550 q 297 392 283 442 q 337 296 311 341 q 399 214 363 251 q 479 150 435 177 q 575 109 524 124 q 683 94 627 94 q 839 125 766 94 q 967 211 913 157 q 1053 339 1022 266 q 1085 497 1085 413 q 1061 634 1085 570 q 997 747 1038 697 q 903 832 957 797 q 789 883 849 867 m 205 221 l 227 183 l 208 172 l 168 238 l 177 243 q 188 246 183 247 l 257 239 l 235 276 l 255 287 l 293 221 l 284 216 q 279 215 280 215 q 274 213 277 213 l 205 221 m 265 100 l 223 151 l 299 215 l 342 163 l 324 149 l 296 181 l 285 172 l 307 147 l 290 131 l 268 157 l 255 147 l 282 115 l 265 100 m 331 140 l 347 157 l 406 106 l 392 90 l 371 108 l 322 49 l 304 64 l 353 122 l 331 140 m 428 94 l 444 83 l 431 -23 l 417 -15 q 414 -12 416 -13 q 412 -9 412 -10 q 410 -5 410 -6 l 410 -1 l 412 11 l 379 31 l 369 24 q 368 23 369 23 q 366 22 367 23 l 362 22 q 359 22 360 22 q 358 22 358 22 q 355 23 356 23 q 353 24 353 23 l 340 31 l 428 94 m 419 60 q 418 59 418 59 q 416 58 415 58 q 415 56 415 56 q 415 56 415 56 l 400 45 l 415 35 l 417 54 q 417 55 417 55 q 418 56 418 56 q 418 58 418 58 q 419 58 419 58 q 419 59 419 59 q 419 60 419 60 m 522 6 l 513 -16 l 480 -3 l 467 -37 l 444 -28 l 481 63 l 542 40 l 535 19 l 494 33 l 489 19 l 522 6 m 529 -9 q 533 4 530 -3 q 541 14 538 8 q 545 19 543 17 q 550 23 548 21 q 556 26 553 25 q 563 28 559 27 q 569 30 565 30 q 576 31 572 31 q 582 31 579 31 q 589 30 585 31 q 595 28 592 28 q 601 26 599 27 q 613 19 608 22 q 617 14 615 16 q 621 9 619 12 q 626 -3 626 3 q 628 -10 628 -7 q 630 -16 629 -12 q 630 -23 630 -19 q 629 -29 630 -26 q 624 -42 628 -36 q 620 -48 622 -45 q 617 -53 619 -50 q 608 -61 614 -58 q 601 -64 604 -62 q 595 -67 599 -65 q 589 -69 592 -68 q 583 -69 586 -69 q 576 -69 579 -69 q 568 -68 573 -69 q 562 -67 565 -67 q 556 -65 560 -66 q 551 -61 553 -63 q 545 -57 548 -60 q 541 -52 542 -55 q 537 -47 539 -49 q 534 -42 535 -44 q 531 -36 532 -39 q 528 -23 529 -28 q 528 -16 528 -19 q 529 -9 528 -12 m 553 -14 q 553 -25 552 -20 q 554 -30 553 -27 q 556 -35 555 -32 q 563 -42 559 -39 q 568 -44 565 -44 q 574 -46 571 -45 q 584 -46 578 -48 q 594 -43 590 -45 q 601 -35 599 -39 q 604 -30 603 -32 q 606 -25 606 -27 q 606 -13 608 -19 q 601 -4 606 -10 q 598 0 600 -1 q 594 4 597 2 q 590 6 592 6 q 584 8 588 7 q 574 8 578 10 q 568 6 571 7 q 563 4 566 6 q 560 1 562 3 q 557 -4 558 -1 q 553 -14 554 -7 m 727 -78 l 706 -79 l 661 -13 l 662 -79 l 638 -80 l 637 19 l 647 19 l 656 19 q 663 19 661 19 q 666 15 665 17 l 701 -34 q 701 -35 701 -35 q 702 -37 701 -36 q 703 -39 702 -38 q 703 -40 703 -39 q 704 -43 703 -42 l 702 20 l 726 20 l 727 -78 m 738 -1 l 734 22 l 812 35 l 816 14 l 789 8 l 803 -66 l 781 -70 l 767 4 l 738 -1 m 856 28 q 851 27 853 28 q 849 26 849 27 q 848 23 848 23 q 849 22 848 22 q 851 19 849 19 q 852 18 851 19 q 853 17 852 17 l 860 17 l 867 17 q 874 17 871 17 q 880 17 876 17 q 884 15 883 15 q 889 13 886 15 q 897 7 894 10 q 902 -3 901 4 q 904 -15 905 -9 q 903 -22 904 -19 q 900 -28 901 -24 q 897 -33 899 -31 q 892 -39 895 -35 q 885 -42 888 -40 q 879 -45 883 -44 q 874 -47 876 -46 q 867 -47 871 -47 q 857 -46 863 -49 q 847 -42 851 -45 q 842 -39 844 -41 q 839 -35 840 -37 l 844 -28 q 847 -26 845 -26 q 849 -24 849 -24 q 856 -23 851 -23 q 859 -23 858 -23 q 861 -24 860 -24 q 864 -24 863 -24 q 866 -25 865 -25 q 871 -24 869 -25 q 874 -23 873 -24 q 876 -22 874 -23 l 879 -19 q 881 -14 881 -17 q 881 -10 881 -14 l 878 -8 q 875 -7 878 -7 q 872 -6 874 -6 q 869 -6 871 -6 l 863 -6 q 858 -6 860 -6 q 852 -5 856 -6 q 842 -3 848 -5 q 837 -1 840 -2 q 833 2 835 1 q 826 13 830 6 q 825 19 825 16 q 825 24 825 22 q 826 30 826 28 q 829 35 827 33 q 832 41 831 39 q 837 44 834 42 q 847 50 842 48 q 851 51 849 51 q 856 52 853 52 q 860 51 858 52 q 865 51 862 51 q 868 50 866 50 q 874 48 870 49 q 877 46 875 47 q 880 44 878 46 l 876 37 q 874 32 875 35 q 870 31 872 31 q 867 31 869 31 q 865 30 867 30 l 861 30 l 858 30 q 856 28 856 30 m 918 -14 q 917 -11 918 -12 q 917 -9 917 -10 q 918 -4 917 -6 q 920 1 918 -3 q 924 4 921 3 q 927 5 926 5 q 930 6 928 5 q 932 5 931 6 q 935 5 933 5 q 939 2 938 3 q 942 -3 941 1 q 945 -8 945 -6 q 944 -12 945 -11 q 942 -15 942 -14 q 941 -17 942 -16 q 939 -19 940 -18 q 937 -21 938 -19 q 932 -22 933 -22 q 927 -22 928 -22 q 921 -19 924 -22 q 918 -14 919 -17 m 954 46 q 962 38 956 42 q 966 35 964 36 q 972 33 969 35 q 982 33 976 32 q 987 35 985 33 q 992 38 989 36 q 995 41 994 39 q 999 44 997 42 l 1003 50 q 1008 58 1004 55 q 1010 59 1009 59 q 1013 60 1012 59 l 1019 60 l 1027 58 q 1026 52 1026 55 q 1024 46 1025 49 q 1019 35 1023 42 q 1013 26 1017 30 q 1005 19 1008 22 q 998 16 1001 17 q 992 13 995 14 q 979 10 986 10 q 973 10 976 10 q 966 11 969 10 q 961 13 964 13 q 954 15 958 13 q 949 18 951 17 q 944 23 946 20 q 939 27 941 25 q 934 32 936 29 q 931 39 933 35 q 928 45 930 42 q 927 51 928 48 q 926 58 927 54 q 926 64 926 61 q 927 70 926 67 q 931 83 928 76 q 934 88 933 85 q 938 94 935 91 q 943 99 940 97 q 949 103 946 101 q 958 108 954 106 q 964 109 961 109 q 969 111 966 110 l 981 111 q 988 110 985 111 q 992 109 990 110 l 992 100 q 990 95 990 97 q 988 93 988 94 q 985 91 987 92 q 976 88 980 88 q 969 87 972 88 q 960 84 965 86 q 953 76 956 81 q 950 67 950 71 q 950 56 949 61 q 954 46 951 49 m 1013 85 q 1009 90 1010 88 q 1005 96 1007 92 q 1002 102 1003 99 q 1001 108 1001 105 q 999 115 999 112 q 999 121 999 117 q 1000 127 999 124 q 1001 134 1000 131 q 1003 140 1001 138 q 1006 147 1004 143 q 1009 151 1008 149 q 1014 156 1011 154 q 1019 161 1017 159 q 1025 165 1022 163 q 1031 168 1028 167 q 1037 169 1033 169 q 1043 171 1040 171 q 1049 171 1046 171 q 1056 171 1053 171 q 1063 169 1059 171 q 1069 168 1066 169 q 1075 165 1072 167 q 1081 161 1078 163 q 1086 156 1083 159 q 1090 151 1088 153 q 1094 145 1092 149 q 1096 140 1095 142 q 1099 133 1097 137 q 1099 127 1099 130 q 1099 120 1099 124 q 1098 108 1099 115 q 1096 102 1097 105 q 1093 96 1094 99 q 1085 85 1090 90 q 1080 80 1082 82 q 1074 77 1077 78 q 1068 74 1071 76 q 1062 72 1065 73 q 1049 70 1056 70 q 1036 72 1042 70 q 1030 74 1033 73 q 1024 77 1027 76 q 1019 81 1022 78 q 1013 85 1016 83 m 1030 101 q 1034 98 1032 99 q 1040 95 1037 97 q 1049 94 1044 94 q 1060 95 1057 94 q 1065 98 1063 96 q 1069 101 1067 99 q 1075 110 1074 106 q 1077 120 1077 115 q 1075 131 1077 125 q 1069 140 1074 135 q 1060 147 1065 144 q 1049 149 1056 149 q 1044 148 1047 149 q 1040 147 1042 148 q 1034 144 1037 146 q 1030 140 1032 143 q 1024 131 1026 138 q 1022 126 1022 129 q 1022 121 1022 124 q 1024 111 1022 114 q 1026 106 1025 108 q 1030 101 1028 103 m 1190 224 l 1178 203 l 1138 229 l 1166 187 l 1156 170 l 1106 179 l 1144 153 l 1131 134 l 1049 188 l 1058 201 q 1064 207 1060 205 q 1068 208 1066 208 q 1072 208 1071 208 l 1131 199 l 1098 247 q 1096 252 1097 250 q 1095 256 1095 253 q 1096 260 1095 258 q 1098 264 1097 262 l 1107 277 l 1190 224 m 231 645 l 226 632 l 133 667 l 146 699 q 151 710 148 706 q 162 717 156 716 q 167 719 165 719 q 173 720 169 720 q 179 720 176 720 q 185 719 182 719 q 195 711 192 716 q 200 707 199 710 q 202 702 201 705 q 204 696 203 699 q 206 691 205 693 q 203 678 206 685 l 197 658 l 231 645 m 191 683 q 191 686 191 685 q 192 690 192 688 q 191 693 192 692 q 190 697 191 694 q 189 699 190 698 q 186 702 188 701 q 181 706 184 704 q 177 706 179 706 q 174 706 175 706 q 170 706 172 706 q 167 705 169 706 q 165 703 166 703 q 162 701 163 703 q 158 695 159 697 l 151 674 l 183 663 l 191 683 m 281 753 l 251 699 l 165 747 l 194 800 l 206 793 l 183 752 l 208 738 l 227 772 l 239 766 l 220 733 l 246 717 l 269 759 l 281 753 m 294 771 l 286 760 l 208 820 l 228 849 q 233 852 231 850 q 238 856 235 854 q 243 858 240 858 q 248 860 245 859 q 253 860 251 860 q 259 859 256 860 q 269 853 265 858 q 273 850 272 852 q 276 847 274 849 q 278 843 277 845 q 280 840 279 841 q 281 834 281 836 q 281 830 281 832 q 279 822 281 826 l 331 820 l 326 813 q 321 808 324 810 q 317 807 319 808 q 315 806 316 806 l 271 808 l 262 796 l 294 771 m 226 823 l 251 804 l 264 822 q 266 824 265 823 q 267 827 266 826 l 267 833 q 267 835 267 834 q 265 839 266 837 q 261 842 263 842 q 256 845 258 845 q 250 846 254 846 q 247 845 249 845 q 244 844 246 845 q 240 840 242 843 l 226 823 m 303 903 q 299 903 300 903 q 296 902 297 903 q 292 899 294 901 q 288 894 290 897 q 286 889 286 892 l 286 884 q 289 880 287 882 q 293 876 291 877 l 297 876 q 303 878 299 876 q 307 880 306 879 q 312 881 309 880 q 314 883 313 882 q 316 883 315 883 q 322 885 317 884 q 326 888 324 885 q 328 888 327 888 q 331 888 329 888 q 353 880 344 890 q 360 869 360 876 q 361 863 361 865 q 362 858 362 861 q 360 851 361 854 q 358 845 360 848 q 355 839 357 842 q 351 835 352 837 q 329 824 342 826 l 325 824 q 321 826 323 826 q 318 826 319 826 q 317 826 317 826 q 316 827 316 826 q 315 827 316 827 l 316 831 q 317 833 317 832 q 318 835 317 834 q 326 839 324 839 l 328 839 q 335 840 331 839 q 342 844 338 841 q 343 847 343 846 q 345 850 344 849 q 347 858 347 853 q 347 864 349 860 q 346 867 347 866 q 344 870 345 869 q 338 874 342 874 q 331 874 334 876 q 325 872 327 874 q 317 868 319 870 q 308 865 315 867 q 302 863 305 863 q 298 863 299 863 q 288 863 291 863 q 283 866 286 865 q 279 870 281 867 q 273 880 274 874 q 272 890 272 886 q 276 900 274 897 q 281 909 277 903 q 289 913 285 913 q 296 916 292 916 q 304 917 303 917 q 311 917 309 917 l 310 913 q 308 906 310 910 q 303 903 306 903 m 344 900 q 341 906 343 903 q 339 913 340 909 q 335 925 335 919 q 335 932 335 928 q 335 938 335 935 q 338 945 337 942 q 340 951 339 948 q 343 956 342 954 q 347 962 345 958 q 358 970 351 966 q 369 976 363 975 q 383 978 376 978 q 396 978 389 981 q 401 977 399 978 q 407 974 403 976 q 413 971 410 973 q 419 967 416 969 q 423 963 422 965 q 428 957 425 960 q 431 951 429 954 q 433 945 433 949 q 436 933 436 939 q 436 919 438 926 q 434 913 435 916 q 432 907 433 910 q 424 896 428 900 q 420 891 422 894 q 415 888 418 889 q 397 880 405 881 q 376 880 386 877 q 367 882 372 881 q 358 886 363 884 q 344 900 350 892 m 356 908 q 366 898 359 901 q 379 893 372 894 q 394 893 386 891 q 406 899 401 894 q 417 909 414 903 q 420 915 419 913 q 422 922 421 918 q 422 937 423 929 q 420 943 421 940 q 416 949 419 946 q 406 960 413 956 q 393 965 399 965 q 379 965 385 967 q 365 959 372 964 q 355 949 359 955 q 352 942 353 945 q 349 935 351 939 q 349 922 348 929 q 352 915 351 918 q 356 908 353 912 m 474 924 l 460 918 l 423 1010 l 433 1014 q 438 1015 435 1015 q 442 1014 442 1015 l 518 965 l 519 965 q 519 963 519 963 q 521 962 521 963 q 522 962 521 962 l 490 1038 l 503 1042 l 540 951 l 531 947 q 525 947 528 947 q 519 947 522 947 l 446 996 q 444 996 444 996 q 443 997 444 997 q 442 999 443 998 q 442 999 442 999 l 442 1001 l 474 924 m 563 1058 l 576 1060 l 638 972 l 630 970 q 627 970 628 969 q 624 970 626 970 q 619 974 621 971 l 610 988 l 560 978 l 557 962 q 553 956 556 958 q 551 954 553 955 q 548 953 549 953 l 540 952 l 563 1058 m 573 1038 l 563 993 l 601 1001 l 576 1038 q 574 1040 574 1039 q 573 1043 574 1042 l 573 1040 l 573 1038 m 638 969 l 635 1069 l 648 1069 l 651 984 l 695 986 l 696 972 l 638 969 m 750 1006 q 750 995 749 1000 q 752 991 751 993 q 754 987 753 988 q 757 983 756 985 q 760 980 759 981 q 766 977 763 978 q 771 975 768 976 q 781 976 778 975 q 786 977 784 976 q 790 980 788 978 q 797 987 794 983 q 800 991 799 989 q 802 997 801 994 l 812 1056 l 826 1054 l 814 994 q 813 989 813 992 q 811 984 813 987 q 809 979 810 981 q 806 975 808 977 q 802 972 804 974 q 798 969 799 970 q 790 965 794 966 q 784 963 787 963 q 779 962 781 963 q 769 963 772 962 q 763 964 765 963 q 758 966 761 965 q 754 968 756 967 q 750 971 752 969 q 742 978 745 974 q 738 988 741 982 q 736 998 736 992 q 737 1008 736 1005 l 747 1067 l 760 1065 l 750 1006 m 878 1018 q 877 1020 878 1019 q 875 1023 876 1022 q 872 1024 874 1024 q 869 1025 871 1024 q 863 1026 867 1026 l 858 1026 q 853 1024 856 1024 q 851 1019 851 1022 q 851 1014 849 1016 q 852 1010 851 1011 q 853 1007 853 1008 q 856 1005 854 1006 q 863 1000 858 1003 q 865 998 864 999 q 867 996 865 997 q 869 994 868 995 q 871 992 869 993 q 873 991 872 992 q 875 989 874 990 q 876 987 876 988 q 878 985 876 986 q 881 962 885 974 q 877 956 879 958 q 874 951 876 953 q 868 947 871 949 q 863 944 866 945 q 851 942 858 942 q 845 942 848 942 q 839 943 842 942 q 820 959 826 949 q 819 961 820 960 q 817 963 818 962 q 817 965 817 964 q 817 967 817 965 q 816 969 816 967 l 816 972 l 820 973 q 825 972 823 973 q 831 967 829 971 l 831 966 q 833 963 833 964 q 835 960 834 962 q 840 958 838 959 q 843 956 841 957 q 846 956 844 956 q 849 956 848 956 q 853 956 851 956 q 857 956 856 956 q 863 960 862 958 q 867 966 867 963 q 867 973 869 970 q 867 976 867 974 q 865 978 866 977 q 863 981 864 980 q 860 984 862 983 q 858 986 859 985 q 853 988 856 987 q 850 992 852 990 q 847 996 848 994 q 843 999 844 997 q 840 1004 842 1001 q 838 1008 839 1006 q 837 1012 837 1010 q 839 1024 835 1017 q 844 1033 840 1029 q 853 1038 849 1038 q 859 1040 856 1040 q 863 1040 861 1040 q 869 1040 866 1040 q 875 1038 872 1039 q 881 1034 878 1038 q 888 1028 885 1031 q 890 1025 889 1026 q 892 1022 892 1024 q 893 1019 893 1020 q 894 1016 894 1017 l 890 1014 q 883 1014 887 1013 q 878 1018 880 1017 m 930 903 l 876 931 l 920 1019 l 974 991 l 969 978 l 927 1001 l 914 975 l 948 958 l 941 945 l 907 963 l 894 938 l 936 915 l 930 903 m 992 922 q 1003 931 997 929 q 1008 935 1005 933 q 1013 938 1010 936 q 1020 939 1017 939 q 1026 940 1023 939 q 1033 940 1030 940 q 1040 939 1036 940 q 1052 935 1046 938 q 1063 927 1057 933 q 1068 923 1065 925 q 1072 917 1071 920 q 1077 906 1076 912 q 1080 893 1080 900 q 1080 886 1080 890 q 1079 880 1080 883 q 1077 873 1078 876 q 1075 867 1076 870 q 1067 857 1072 860 q 1063 851 1065 853 q 1058 847 1060 849 q 1051 844 1054 845 q 1045 842 1049 842 q 1033 840 1039 840 q 1026 840 1029 840 q 1019 840 1023 840 q 1014 842 1017 841 q 1008 844 1011 842 q 1002 848 1004 846 q 996 851 999 849 q 989 859 992 856 q 984 867 986 863 q 981 877 983 872 q 979 886 980 881 q 982 906 979 897 q 992 922 985 916 m 1003 914 q 994 901 997 908 q 993 894 993 898 q 992 888 992 891 q 993 880 992 883 q 996 874 994 877 q 1000 867 999 870 q 1005 862 1002 864 q 1011 858 1008 859 q 1018 854 1015 856 q 1031 853 1026 852 q 1045 857 1040 853 q 1052 860 1049 858 q 1058 865 1055 863 q 1064 878 1063 871 q 1066 892 1067 884 q 1065 899 1066 895 q 1063 906 1065 902 q 1059 911 1061 909 q 1054 917 1057 914 q 1048 921 1051 919 q 1041 924 1044 923 q 1034 926 1038 926 q 1027 926 1031 926 q 1020 925 1024 926 q 1013 922 1017 924 q 1003 914 1007 919 m 1046 804 l 1038 814 l 1117 874 l 1124 865 q 1126 860 1126 862 l 1126 854 l 1097 771 q 1097 770 1097 770 q 1097 769 1097 770 q 1096 769 1097 769 q 1095 768 1095 769 l 1094 767 l 1160 815 l 1169 805 l 1090 746 l 1083 754 q 1080 759 1081 756 q 1081 764 1080 763 l 1109 849 q 1110 849 1109 849 q 1110 850 1110 849 l 1111 851 q 1113 853 1112 852 l 1046 804 m 1094 734 l 1183 779 l 1188 768 l 1113 728 l 1133 691 l 1120 684 l 1094 734 m 1131 656 l 1126 668 l 1165 683 q 1167 684 1167 684 q 1169 685 1169 685 q 1170 687 1169 687 q 1170 688 1170 688 q 1172 690 1172 688 l 1205 740 l 1207 732 q 1209 727 1208 729 q 1209 724 1209 725 q 1208 720 1208 722 q 1206 717 1207 719 l 1185 685 l 1183 683 l 1183 683 l 1184 683 q 1186 683 1184 683 l 1224 672 q 1227 670 1225 671 q 1230 668 1228 669 q 1233 663 1233 667 l 1237 653 l 1180 670 q 1178 671 1178 670 l 1175 671 l 1172 671 q 1169 670 1170 671 l 1131 656 z "},"1":{"ha":1385,"x_min":133,"x_max":1237,"o":"m 927 226 q 815 160 877 185 q 683 135 753 135 q 552 160 613 135 q 442 226 492 185 l 927 226 m 413 254 q 347 365 370 303 q 323 497 323 426 q 344 620 323 563 q 404 726 365 678 l 883 726 l 413 254 m 440 766 q 551 834 490 810 q 683 859 613 859 q 815 834 753 859 q 923 766 876 809 l 440 766 m 1044 497 q 1023 372 1044 430 q 963 265 1001 314 l 482 265 l 952 740 q 1021 623 998 683 q 1044 497 1044 563 m 800 76 q 743 65 772 69 q 683 60 715 60 q 565 76 622 60 q 460 122 508 92 q 372 191 411 151 q 305 280 333 231 q 262 383 277 328 q 247 497 247 438 q 263 615 247 558 q 308 721 278 672 q 377 809 337 769 q 466 876 417 849 q 570 919 515 904 q 683 935 625 935 q 858 899 778 935 q 996 802 938 863 q 1087 662 1054 741 q 1119 497 1119 583 q 1094 350 1119 418 q 1026 228 1069 282 q 925 135 983 174 q 800 76 867 97 m 789 883 q 739 895 765 891 q 683 899 713 899 q 574 884 626 899 q 477 842 522 869 q 397 778 433 815 q 336 696 361 740 q 297 601 310 651 q 283 497 283 550 q 297 392 283 442 q 337 296 311 341 q 399 214 363 251 q 479 150 435 177 q 575 109 524 124 q 683 94 627 94 q 839 125 766 94 q 967 211 913 157 q 1053 339 1022 266 q 1085 497 1085 413 q 1061 634 1085 570 q 997 747 1038 697 q 903 832 957 797 q 789 883 849 867 m 205 221 l 227 183 l 208 172 l 168 238 l 177 243 q 188 246 183 247 l 257 239 l 235 276 l 255 287 l 293 221 l 284 216 q 279 215 280 215 q 274 213 277 213 l 205 221 m 265 100 l 223 151 l 299 215 l 342 163 l 324 149 l 296 181 l 285 172 l 307 147 l 290 131 l 268 157 l 255 147 l 282 115 l 265 100 m 331 140 l 347 157 l 406 106 l 392 90 l 371 108 l 322 49 l 304 64 l 353 122 l 331 140 m 428 94 l 444 83 l 431 -23 l 417 -15 q 414 -12 416 -13 q 412 -9 412 -10 q 410 -5 410 -6 l 410 -1 l 412 11 l 379 31 l 369 24 q 368 23 369 23 q 366 22 367 23 l 362 22 q 359 22 360 22 q 358 22 358 22 q 355 23 356 23 q 353 24 353 23 l 340 31 l 428 94 m 419 60 q 418 59 418 59 q 416 58 415 58 q 415 56 415 56 q 415 56 415 56 l 400 45 l 415 35 l 417 54 q 417 55 417 55 q 418 56 418 56 q 418 58 418 58 q 419 58 419 58 q 419 59 419 59 q 419 60 419 60 m 522 6 l 513 -16 l 480 -3 l 467 -37 l 444 -28 l 481 63 l 542 40 l 535 19 l 494 33 l 489 19 l 522 6 m 529 -9 q 533 4 530 -3 q 541 14 538 8 q 545 19 543 17 q 550 23 548 21 q 556 26 553 25 q 563 28 559 27 q 569 30 565 30 q 576 31 572 31 q 582 31 579 31 q 589 30 585 31 q 595 28 592 28 q 601 26 599 27 q 613 19 608 22 q 617 14 615 16 q 621 9 619 12 q 626 -3 626 3 q 628 -10 628 -7 q 630 -16 629 -12 q 630 -23 630 -19 q 629 -29 630 -26 q 624 -42 628 -36 q 620 -48 622 -45 q 617 -53 619 -50 q 608 -61 614 -58 q 601 -64 604 -62 q 595 -67 599 -65 q 589 -69 592 -68 q 583 -69 586 -69 q 576 -69 579 -69 q 568 -68 573 -69 q 562 -67 565 -67 q 556 -65 560 -66 q 551 -61 553 -63 q 545 -57 548 -60 q 541 -52 542 -55 q 537 -47 539 -49 q 534 -42 535 -44 q 531 -36 532 -39 q 528 -23 529 -28 q 528 -16 528 -19 q 529 -9 528 -12 m 553 -14 q 553 -25 552 -20 q 554 -30 553 -27 q 556 -35 555 -32 q 563 -42 559 -39 q 568 -44 565 -44 q 574 -46 571 -45 q 584 -46 578 -48 q 594 -43 590 -45 q 601 -35 599 -39 q 604 -30 603 -32 q 606 -25 606 -27 q 606 -13 608 -19 q 601 -4 606 -10 q 598 0 600 -1 q 594 4 597 2 q 590 6 592 6 q 584 8 588 7 q 574 8 578 10 q 568 6 571 7 q 563 4 566 6 q 560 1 562 3 q 557 -4 558 -1 q 553 -14 554 -7 m 727 -78 l 706 -79 l 661 -13 l 662 -79 l 638 -80 l 637 19 l 647 19 l 656 19 q 663 19 661 19 q 666 15 665 17 l 701 -34 q 701 -35 701 -35 q 702 -37 701 -36 q 703 -39 702 -38 q 703 -40 703 -39 q 704 -43 703 -42 l 702 20 l 726 20 l 727 -78 m 738 -1 l 734 22 l 812 35 l 816 14 l 789 8 l 803 -66 l 781 -70 l 767 4 l 738 -1 m 856 28 q 851 27 853 28 q 849 26 849 27 q 848 23 848 23 q 849 22 848 22 q 851 19 849 19 q 852 18 851 19 q 853 17 852 17 l 860 17 l 867 17 q 874 17 871 17 q 880 17 876 17 q 884 15 883 15 q 889 13 886 15 q 897 7 894 10 q 902 -3 901 4 q 904 -15 905 -9 q 903 -22 904 -19 q 900 -28 901 -24 q 897 -33 899 -31 q 892 -39 895 -35 q 885 -42 888 -40 q 879 -45 883 -44 q 874 -47 876 -46 q 867 -47 871 -47 q 857 -46 863 -49 q 847 -42 851 -45 q 842 -39 844 -41 q 839 -35 840 -37 l 844 -28 q 847 -26 845 -26 q 849 -24 849 -24 q 856 -23 851 -23 q 859 -23 858 -23 q 861 -24 860 -24 q 864 -24 863 -24 q 866 -25 865 -25 q 871 -24 869 -25 q 874 -23 873 -24 q 876 -22 874 -23 l 879 -19 q 881 -14 881 -17 q 881 -10 881 -14 l 878 -8 q 875 -7 878 -7 q 872 -6 874 -6 q 869 -6 871 -6 l 863 -6 q 858 -6 860 -6 q 852 -5 856 -6 q 842 -3 848 -5 q 837 -1 840 -2 q 833 2 835 1 q 826 13 830 6 q 825 19 825 16 q 825 24 825 22 q 826 30 826 28 q 829 35 827 33 q 832 41 831 39 q 837 44 834 42 q 847 50 842 48 q 851 51 849 51 q 856 52 853 52 q 860 51 858 52 q 865 51 862 51 q 868 50 866 50 q 874 48 870 49 q 877 46 875 47 q 880 44 878 46 l 876 37 q 874 32 875 35 q 870 31 872 31 q 867 31 869 31 q 865 30 867 30 l 861 30 l 858 30 q 856 28 856 30 m 918 -14 q 917 -11 918 -12 q 917 -9 917 -10 q 918 -4 917 -6 q 920 1 918 -3 q 924 4 921 3 q 927 5 926 5 q 930 6 928 5 q 932 5 931 6 q 935 5 933 5 q 939 2 938 3 q 942 -3 941 1 q 945 -8 945 -6 q 944 -12 945 -11 q 942 -15 942 -14 q 941 -17 942 -16 q 939 -19 940 -18 q 937 -21 938 -19 q 932 -22 933 -22 q 927 -22 928 -22 q 921 -19 924 -22 q 918 -14 919 -17 m 954 46 q 962 38 956 42 q 966 35 964 36 q 972 33 969 35 q 982 33 976 32 q 987 35 985 33 q 992 38 989 36 q 995 41 994 39 q 999 44 997 42 l 1003 50 q 1008 58 1004 55 q 1010 59 1009 59 q 1013 60 1012 59 l 1019 60 l 1027 58 q 1026 52 1026 55 q 1024 46 1025 49 q 1019 35 1023 42 q 1013 26 1017 30 q 1005 19 1008 22 q 998 16 1001 17 q 992 13 995 14 q 979 10 986 10 q 973 10 976 10 q 966 11 969 10 q 961 13 964 13 q 954 15 958 13 q 949 18 951 17 q 944 23 946 20 q 939 27 941 25 q 934 32 936 29 q 931 39 933 35 q 928 45 930 42 q 927 51 928 48 q 926 58 927 54 q 926 64 926 61 q 927 70 926 67 q 931 83 928 76 q 934 88 933 85 q 938 94 935 91 q 943 99 940 97 q 949 103 946 101 q 958 108 954 106 q 964 109 961 109 q 969 111 966 110 l 981 111 q 988 110 985 111 q 992 109 990 110 l 992 100 q 990 95 990 97 q 988 93 988 94 q 985 91 987 92 q 976 88 980 88 q 969 87 972 88 q 960 84 965 86 q 953 76 956 81 q 950 67 950 71 q 950 56 949 61 q 954 46 951 49 m 1013 85 q 1009 90 1010 88 q 1005 96 1007 92 q 1002 102 1003 99 q 1001 108 1001 105 q 999 115 999 112 q 999 121 999 117 q 1000 127 999 124 q 1001 134 1000 131 q 1003 140 1001 138 q 1006 147 1004 143 q 1009 151 1008 149 q 1014 156 1011 154 q 1019 161 1017 159 q 1025 165 1022 163 q 1031 168 1028 167 q 1037 169 1033 169 q 1043 171 1040 171 q 1049 171 1046 171 q 1056 171 1053 171 q 1063 169 1059 171 q 1069 168 1066 169 q 1075 165 1072 167 q 1081 161 1078 163 q 1086 156 1083 159 q 1090 151 1088 153 q 1094 145 1092 149 q 1096 140 1095 142 q 1099 133 1097 137 q 1099 127 1099 130 q 1099 120 1099 124 q 1098 108 1099 115 q 1096 102 1097 105 q 1093 96 1094 99 q 1085 85 1090 90 q 1080 80 1082 82 q 1074 77 1077 78 q 1068 74 1071 76 q 1062 72 1065 73 q 1049 70 1056 70 q 1036 72 1042 70 q 1030 74 1033 73 q 1024 77 1027 76 q 1019 81 1022 78 q 1013 85 1016 83 m 1030 101 q 1034 98 1032 99 q 1040 95 1037 97 q 1049 94 1044 94 q 1060 95 1057 94 q 1065 98 1063 96 q 1069 101 1067 99 q 1075 110 1074 106 q 1077 120 1077 115 q 1075 131 1077 125 q 1069 140 1074 135 q 1060 147 1065 144 q 1049 149 1056 149 q 1044 148 1047 149 q 1040 147 1042 148 q 1034 144 1037 146 q 1030 140 1032 143 q 1024 131 1026 138 q 1022 126 1022 129 q 1022 121 1022 124 q 1024 111 1022 114 q 1026 106 1025 108 q 1030 101 1028 103 m 1190 224 l 1178 203 l 1138 229 l 1166 187 l 1156 170 l 1106 179 l 1144 153 l 1131 134 l 1049 188 l 1058 201 q 1064 207 1060 205 q 1068 208 1066 208 q 1072 208 1071 208 l 1131 199 l 1098 247 q 1096 252 1097 250 q 1095 256 1095 253 q 1096 260 1095 258 q 1098 264 1097 262 l 1107 277 l 1190 224 m 231 645 l 226 632 l 133 667 l 146 699 q 151 710 148 706 q 162 717 156 716 q 167 719 165 719 q 173 720 169 720 q 179 720 176 720 q 185 719 182 719 q 195 711 192 716 q 200 707 199 710 q 202 702 201 705 q 204 696 203 699 q 206 691 205 693 q 203 678 206 685 l 197 658 l 231 645 m 191 683 q 191 686 191 685 q 192 690 192 688 q 191 693 192 692 q 190 697 191 694 q 189 699 190 698 q 186 702 188 701 q 181 706 184 704 q 177 706 179 706 q 174 706 175 706 q 170 706 172 706 q 167 705 169 706 q 165 703 166 703 q 162 701 163 703 q 158 695 159 697 l 151 674 l 183 663 l 191 683 m 281 753 l 251 699 l 165 747 l 194 800 l 206 793 l 183 752 l 208 738 l 227 772 l 239 766 l 220 733 l 246 717 l 269 759 l 281 753 m 294 771 l 286 760 l 208 820 l 228 849 q 233 852 231 850 q 238 856 235 854 q 243 858 240 858 q 248 860 245 859 q 253 860 251 860 q 259 859 256 860 q 269 853 265 858 q 273 850 272 852 q 276 847 274 849 q 278 843 277 845 q 280 840 279 841 q 281 834 281 836 q 281 830 281 832 q 279 822 281 826 l 331 820 l 326 813 q 321 808 324 810 q 317 807 319 808 q 315 806 316 806 l 271 808 l 262 796 l 294 771 m 226 823 l 251 804 l 264 822 q 266 824 265 823 q 267 827 266 826 l 267 833 q 267 835 267 834 q 265 839 266 837 q 261 842 263 842 q 256 845 258 845 q 250 846 254 846 q 247 845 249 845 q 244 844 246 845 q 240 840 242 843 l 226 823 m 303 903 q 299 903 300 903 q 296 902 297 903 q 292 899 294 901 q 288 894 290 897 q 286 889 286 892 l 286 884 q 289 880 287 882 q 293 876 291 877 l 297 876 q 303 878 299 876 q 307 880 306 879 q 312 881 309 880 q 314 883 313 882 q 316 883 315 883 q 322 885 317 884 q 326 888 324 885 q 328 888 327 888 q 331 888 329 888 q 353 880 344 890 q 360 869 360 876 q 361 863 361 865 q 362 858 362 861 q 360 851 361 854 q 358 845 360 848 q 355 839 357 842 q 351 835 352 837 q 329 824 342 826 l 325 824 q 321 826 323 826 q 318 826 319 826 q 317 826 317 826 q 316 827 316 826 q 315 827 316 827 l 316 831 q 317 833 317 832 q 318 835 317 834 q 326 839 324 839 l 328 839 q 335 840 331 839 q 342 844 338 841 q 343 847 343 846 q 345 850 344 849 q 347 858 347 853 q 347 864 349 860 q 346 867 347 866 q 344 870 345 869 q 338 874 342 874 q 331 874 334 876 q 325 872 327 874 q 317 868 319 870 q 308 865 315 867 q 302 863 305 863 q 298 863 299 863 q 288 863 291 863 q 283 866 286 865 q 279 870 281 867 q 273 880 274 874 q 272 890 272 886 q 276 900 274 897 q 281 909 277 903 q 289 913 285 913 q 296 916 292 916 q 304 917 303 917 q 311 917 309 917 l 310 913 q 308 906 310 910 q 303 903 306 903 m 344 900 q 341 906 343 903 q 339 913 340 909 q 335 925 335 919 q 335 932 335 928 q 335 938 335 935 q 338 945 337 942 q 340 951 339 948 q 343 956 342 954 q 347 962 345 958 q 358 970 351 966 q 369 976 363 975 q 383 978 376 978 q 396 978 389 981 q 401 977 399 978 q 407 974 403 976 q 413 971 410 973 q 419 967 416 969 q 423 963 422 965 q 428 957 425 960 q 431 951 429 954 q 433 945 433 949 q 436 933 436 939 q 436 919 438 926 q 434 913 435 916 q 432 907 433 910 q 424 896 428 900 q 420 891 422 894 q 415 888 418 889 q 397 880 405 881 q 376 880 386 877 q 367 882 372 881 q 358 886 363 884 q 344 900 350 892 m 356 908 q 366 898 359 901 q 379 893 372 894 q 394 893 386 891 q 406 899 401 894 q 417 909 414 903 q 420 915 419 913 q 422 922 421 918 q 422 937 423 929 q 420 943 421 940 q 416 949 419 946 q 406 960 413 956 q 393 965 399 965 q 379 965 385 967 q 365 959 372 964 q 355 949 359 955 q 352 942 353 945 q 349 935 351 939 q 349 922 348 929 q 352 915 351 918 q 356 908 353 912 m 474 924 l 460 918 l 423 1010 l 433 1014 q 438 1015 435 1015 q 442 1014 442 1015 l 518 965 l 519 965 q 519 963 519 963 q 521 962 521 963 q 522 962 521 962 l 490 1038 l 503 1042 l 540 951 l 531 947 q 525 947 528 947 q 519 947 522 947 l 446 996 q 444 996 444 996 q 443 997 444 997 q 442 999 443 998 q 442 999 442 999 l 442 1001 l 474 924 m 563 1058 l 576 1060 l 638 972 l 630 970 q 627 970 628 969 q 624 970 626 970 q 619 974 621 971 l 610 988 l 560 978 l 557 962 q 553 956 556 958 q 551 954 553 955 q 548 953 549 953 l 540 952 l 563 1058 m 573 1038 l 563 993 l 601 1001 l 576 1038 q 574 1040 574 1039 q 573 1043 574 1042 l 573 1040 l 573 1038 m 638 969 l 635 1069 l 648 1069 l 651 984 l 695 986 l 696 972 l 638 969 m 750 1006 q 750 995 749 1000 q 752 991 751 993 q 754 987 753 988 q 757 983 756 985 q 760 980 759 981 q 766 977 763 978 q 771 975 768 976 q 781 976 778 975 q 786 977 784 976 q 790 980 788 978 q 797 987 794 983 q 800 991 799 989 q 802 997 801 994 l 812 1056 l 826 1054 l 814 994 q 813 989 813 992 q 811 984 813 987 q 809 979 810 981 q 806 975 808 977 q 802 972 804 974 q 798 969 799 970 q 790 965 794 966 q 784 963 787 963 q 779 962 781 963 q 769 963 772 962 q 763 964 765 963 q 758 966 761 965 q 754 968 756 967 q 750 971 752 969 q 742 978 745 974 q 738 988 741 982 q 736 998 736 992 q 737 1008 736 1005 l 747 1067 l 760 1065 l 750 1006 m 878 1018 q 877 1020 878 1019 q 875 1023 876 1022 q 872 1024 874 1024 q 869 1025 871 1024 q 863 1026 867 1026 l 858 1026 q 853 1024 856 1024 q 851 1019 851 1022 q 851 1014 849 1016 q 852 1010 851 1011 q 853 1007 853 1008 q 856 1005 854 1006 q 863 1000 858 1003 q 865 998 864 999 q 867 996 865 997 q 869 994 868 995 q 871 992 869 993 q 873 991 872 992 q 875 989 874 990 q 876 987 876 988 q 878 985 876 986 q 881 962 885 974 q 877 956 879 958 q 874 951 876 953 q 868 947 871 949 q 863 944 866 945 q 851 942 858 942 q 845 942 848 942 q 839 943 842 942 q 820 959 826 949 q 819 961 820 960 q 817 963 818 962 q 817 965 817 964 q 817 967 817 965 q 816 969 816 967 l 816 972 l 820 973 q 825 972 823 973 q 831 967 829 971 l 831 966 q 833 963 833 964 q 835 960 834 962 q 840 958 838 959 q 843 956 841 957 q 846 956 844 956 q 849 956 848 956 q 853 956 851 956 q 857 956 856 956 q 863 960 862 958 q 867 966 867 963 q 867 973 869 970 q 867 976 867 974 q 865 978 866 977 q 863 981 864 980 q 860 984 862 983 q 858 986 859 985 q 853 988 856 987 q 850 992 852 990 q 847 996 848 994 q 843 999 844 997 q 840 1004 842 1001 q 838 1008 839 1006 q 837 1012 837 1010 q 839 1024 835 1017 q 844 1033 840 1029 q 853 1038 849 1038 q 859 1040 856 1040 q 863 1040 861 1040 q 869 1040 866 1040 q 875 1038 872 1039 q 881 1034 878 1038 q 888 1028 885 1031 q 890 1025 889 1026 q 892 1022 892 1024 q 893 1019 893 1020 q 894 1016 894 1017 l 890 1014 q 883 1014 887 1013 q 878 1018 880 1017 m 930 903 l 876 931 l 920 1019 l 974 991 l 969 978 l 927 1001 l 914 975 l 948 958 l 941 945 l 907 963 l 894 938 l 936 915 l 930 903 m 992 922 q 1003 931 997 929 q 1008 935 1005 933 q 1013 938 1010 936 q 1020 939 1017 939 q 1026 940 1023 939 q 1033 940 1030 940 q 1040 939 1036 940 q 1052 935 1046 938 q 1063 927 1057 933 q 1068 923 1065 925 q 1072 917 1071 920 q 1077 906 1076 912 q 1080 893 1080 900 q 1080 886 1080 890 q 1079 880 1080 883 q 1077 873 1078 876 q 1075 867 1076 870 q 1067 857 1072 860 q 1063 851 1065 853 q 1058 847 1060 849 q 1051 844 1054 845 q 1045 842 1049 842 q 1033 840 1039 840 q 1026 840 1029 840 q 1019 840 1023 840 q 1014 842 1017 841 q 1008 844 1011 842 q 1002 848 1004 846 q 996 851 999 849 q 989 859 992 856 q 984 867 986 863 q 981 877 983 872 q 979 886 980 881 q 982 906 979 897 q 992 922 985 916 m 1003 914 q 994 901 997 908 q 993 894 993 898 q 992 888 992 891 q 993 880 992 883 q 996 874 994 877 q 1000 867 999 870 q 1005 862 1002 864 q 1011 858 1008 859 q 1018 854 1015 856 q 1031 853 1026 852 q 1045 857 1040 853 q 1052 860 1049 858 q 1058 865 1055 863 q 1064 878 1063 871 q 1066 892 1067 884 q 1065 899 1066 895 q 1063 906 1065 902 q 1059 911 1061 909 q 1054 917 1057 914 q 1048 921 1051 919 q 1041 924 1044 923 q 1034 926 1038 926 q 1027 926 1031 926 q 1020 925 1024 926 q 1013 922 1017 924 q 1003 914 1007 919 m 1046 804 l 1038 814 l 1117 874 l 1124 865 q 1126 860 1126 862 l 1126 854 l 1097 771 q 1097 770 1097 770 q 1097 769 1097 770 q 1096 769 1097 769 q 1095 768 1095 769 l 1094 767 l 1160 815 l 1169 805 l 1090 746 l 1083 754 q 1080 759 1081 756 q 1081 764 1080 763 l 1109 849 q 1110 849 1109 849 q 1110 850 1110 849 l 1111 851 q 1113 853 1112 852 l 1046 804 m 1094 734 l 1183 779 l 1188 768 l 1113 728 l 1133 691 l 1120 684 l 1094 734 m 1131 656 l 1126 668 l 1165 683 q 1167 684 1167 684 q 1169 685 1169 685 q 1170 687 1169 687 q 1170 688 1170 688 q 1172 690 1172 688 l 1205 740 l 1207 732 q 1209 727 1208 729 q 1209 724 1209 725 q 1208 720 1208 722 q 1206 717 1207 719 l 1185 685 l 1183 683 l 1183 683 l 1184 683 q 1186 683 1184 683 l 1224 672 q 1227 670 1225 671 q 1230 668 1228 669 q 1233 663 1233 667 l 1237 653 l 1180 670 q 1178 671 1178 670 l 1175 671 l 1172 671 q 1169 670 1170 671 l 1131 656 z "},"2":{"ha":1385,"x_min":133,"x_max":1237,"o":"m 927 226 q 815 160 877 185 q 683 135 753 135 q 552 160 613 135 q 442 226 492 185 l 927 226 m 413 254 q 347 365 370 303 q 323 497 323 426 q 344 620 323 563 q 404 726 365 678 l 883 726 l 413 254 m 440 766 q 551 834 490 810 q 683 859 613 859 q 815 834 753 859 q 923 766 876 809 l 440 766 m 1044 497 q 1023 372 1044 430 q 963 265 1001 314 l 482 265 l 952 740 q 1021 623 998 683 q 1044 497 1044 563 m 800 76 q 743 65 772 69 q 683 60 715 60 q 565 76 622 60 q 460 122 508 92 q 372 191 411 151 q 305 280 333 231 q 262 383 277 328 q 247 497 247 438 q 263 615 247 558 q 308 721 278 672 q 377 809 337 769 q 466 876 417 849 q 570 919 515 904 q 683 935 625 935 q 858 899 778 935 q 996 802 938 863 q 1087 662 1054 741 q 1119 497 1119 583 q 1094 350 1119 418 q 1026 228 1069 282 q 925 135 983 174 q 800 76 867 97 m 789 883 q 739 895 765 891 q 683 899 713 899 q 574 884 626 899 q 477 842 522 869 q 397 778 433 815 q 336 696 361 740 q 297 601 310 651 q 283 497 283 550 q 297 392 283 442 q 337 296 311 341 q 399 214 363 251 q 479 150 435 177 q 575 109 524 124 q 683 94 627 94 q 839 125 766 94 q 967 211 913 157 q 1053 339 1022 266 q 1085 497 1085 413 q 1061 634 1085 570 q 997 747 1038 697 q 903 832 957 797 q 789 883 849 867 m 205 221 l 227 183 l 208 172 l 168 238 l 177 243 q 188 246 183 247 l 257 239 l 235 276 l 255 287 l 293 221 l 284 216 q 279 215 280 215 q 274 213 277 213 l 205 221 m 265 100 l 223 151 l 299 215 l 342 163 l 324 149 l 296 181 l 285 172 l 307 147 l 290 131 l 268 157 l 255 147 l 282 115 l 265 100 m 331 140 l 347 157 l 406 106 l 392 90 l 371 108 l 322 49 l 304 64 l 353 122 l 331 140 m 428 94 l 444 83 l 431 -23 l 417 -15 q 414 -12 416 -13 q 412 -9 412 -10 q 410 -5 410 -6 l 410 -1 l 412 11 l 379 31 l 369 24 q 368 23 369 23 q 366 22 367 23 l 362 22 q 359 22 360 22 q 358 22 358 22 q 355 23 356 23 q 353 24 353 23 l 340 31 l 428 94 m 419 60 q 418 59 418 59 q 416 58 415 58 q 415 56 415 56 q 415 56 415 56 l 400 45 l 415 35 l 417 54 q 417 55 417 55 q 418 56 418 56 q 418 58 418 58 q 419 58 419 58 q 419 59 419 59 q 419 60 419 60 m 522 6 l 513 -16 l 480 -3 l 467 -37 l 444 -28 l 481 63 l 542 40 l 535 19 l 494 33 l 489 19 l 522 6 m 529 -9 q 533 4 530 -3 q 541 14 538 8 q 545 19 543 17 q 550 23 548 21 q 556 26 553 25 q 563 28 559 27 q 569 30 565 30 q 576 31 572 31 q 582 31 579 31 q 589 30 585 31 q 595 28 592 28 q 601 26 599 27 q 613 19 608 22 q 617 14 615 16 q 621 9 619 12 q 626 -3 626 3 q 628 -10 628 -7 q 630 -16 629 -12 q 630 -23 630 -19 q 629 -29 630 -26 q 624 -42 628 -36 q 620 -48 622 -45 q 617 -53 619 -50 q 608 -61 614 -58 q 601 -64 604 -62 q 595 -67 599 -65 q 589 -69 592 -68 q 583 -69 586 -69 q 576 -69 579 -69 q 568 -68 573 -69 q 562 -67 565 -67 q 556 -65 560 -66 q 551 -61 553 -63 q 545 -57 548 -60 q 541 -52 542 -55 q 537 -47 539 -49 q 534 -42 535 -44 q 531 -36 532 -39 q 528 -23 529 -28 q 528 -16 528 -19 q 529 -9 528 -12 m 553 -14 q 553 -25 552 -20 q 554 -30 553 -27 q 556 -35 555 -32 q 563 -42 559 -39 q 568 -44 565 -44 q 574 -46 571 -45 q 584 -46 578 -48 q 594 -43 590 -45 q 601 -35 599 -39 q 604 -30 603 -32 q 606 -25 606 -27 q 606 -13 608 -19 q 601 -4 606 -10 q 598 0 600 -1 q 594 4 597 2 q 590 6 592 6 q 584 8 588 7 q 574 8 578 10 q 568 6 571 7 q 563 4 566 6 q 560 1 562 3 q 557 -4 558 -1 q 553 -14 554 -7 m 727 -78 l 706 -79 l 661 -13 l 662 -79 l 638 -80 l 637 19 l 647 19 l 656 19 q 663 19 661 19 q 666 15 665 17 l 701 -34 q 701 -35 701 -35 q 702 -37 701 -36 q 703 -39 702 -38 q 703 -40 703 -39 q 704 -43 703 -42 l 702 20 l 726 20 l 727 -78 m 738 -1 l 734 22 l 812 35 l 816 14 l 789 8 l 803 -66 l 781 -70 l 767 4 l 738 -1 m 856 28 q 851 27 853 28 q 849 26 849 27 q 848 23 848 23 q 849 22 848 22 q 851 19 849 19 q 852 18 851 19 q 853 17 852 17 l 860 17 l 867 17 q 874 17 871 17 q 880 17 876 17 q 884 15 883 15 q 889 13 886 15 q 897 7 894 10 q 902 -3 901 4 q 904 -15 905 -9 q 903 -22 904 -19 q 900 -28 901 -24 q 897 -33 899 -31 q 892 -39 895 -35 q 885 -42 888 -40 q 879 -45 883 -44 q 874 -47 876 -46 q 867 -47 871 -47 q 857 -46 863 -49 q 847 -42 851 -45 q 842 -39 844 -41 q 839 -35 840 -37 l 844 -28 q 847 -26 845 -26 q 849 -24 849 -24 q 856 -23 851 -23 q 859 -23 858 -23 q 861 -24 860 -24 q 864 -24 863 -24 q 866 -25 865 -25 q 871 -24 869 -25 q 874 -23 873 -24 q 876 -22 874 -23 l 879 -19 q 881 -14 881 -17 q 881 -10 881 -14 l 878 -8 q 875 -7 878 -7 q 872 -6 874 -6 q 869 -6 871 -6 l 863 -6 q 858 -6 860 -6 q 852 -5 856 -6 q 842 -3 848 -5 q 837 -1 840 -2 q 833 2 835 1 q 826 13 830 6 q 825 19 825 16 q 825 24 825 22 q 826 30 826 28 q 829 35 827 33 q 832 41 831 39 q 837 44 834 42 q 847 50 842 48 q 851 51 849 51 q 856 52 853 52 q 860 51 858 52 q 865 51 862 51 q 868 50 866 50 q 874 48 870 49 q 877 46 875 47 q 880 44 878 46 l 876 37 q 874 32 875 35 q 870 31 872 31 q 867 31 869 31 q 865 30 867 30 l 861 30 l 858 30 q 856 28 856 30 m 918 -14 q 917 -11 918 -12 q 917 -9 917 -10 q 918 -4 917 -6 q 920 1 918 -3 q 924 4 921 3 q 927 5 926 5 q 930 6 928 5 q 932 5 931 6 q 935 5 933 5 q 939 2 938 3 q 942 -3 941 1 q 945 -8 945 -6 q 944 -12 945 -11 q 942 -15 942 -14 q 941 -17 942 -16 q 939 -19 940 -18 q 937 -21 938 -19 q 932 -22 933 -22 q 927 -22 928 -22 q 921 -19 924 -22 q 918 -14 919 -17 m 954 46 q 962 38 956 42 q 966 35 964 36 q 972 33 969 35 q 982 33 976 32 q 987 35 985 33 q 992 38 989 36 q 995 41 994 39 q 999 44 997 42 l 1003 50 q 1008 58 1004 55 q 1010 59 1009 59 q 1013 60 1012 59 l 1019 60 l 1027 58 q 1026 52 1026 55 q 1024 46 1025 49 q 1019 35 1023 42 q 1013 26 1017 30 q 1005 19 1008 22 q 998 16 1001 17 q 992 13 995 14 q 979 10 986 10 q 973 10 976 10 q 966 11 969 10 q 961 13 964 13 q 954 15 958 13 q 949 18 951 17 q 944 23 946 20 q 939 27 941 25 q 934 32 936 29 q 931 39 933 35 q 928 45 930 42 q 927 51 928 48 q 926 58 927 54 q 926 64 926 61 q 927 70 926 67 q 931 83 928 76 q 934 88 933 85 q 938 94 935 91 q 943 99 940 97 q 949 103 946 101 q 958 108 954 106 q 964 109 961 109 q 969 111 966 110 l 981 111 q 988 110 985 111 q 992 109 990 110 l 992 100 q 990 95 990 97 q 988 93 988 94 q 985 91 987 92 q 976 88 980 88 q 969 87 972 88 q 960 84 965 86 q 953 76 956 81 q 950 67 950 71 q 950 56 949 61 q 954 46 951 49 m 1013 85 q 1009 90 1010 88 q 1005 96 1007 92 q 1002 102 1003 99 q 1001 108 1001 105 q 999 115 999 112 q 999 121 999 117 q 1000 127 999 124 q 1001 134 1000 131 q 1003 140 1001 138 q 1006 147 1004 143 q 1009 151 1008 149 q 1014 156 1011 154 q 1019 161 1017 159 q 1025 165 1022 163 q 1031 168 1028 167 q 1037 169 1033 169 q 1043 171 1040 171 q 1049 171 1046 171 q 1056 171 1053 171 q 1063 169 1059 171 q 1069 168 1066 169 q 1075 165 1072 167 q 1081 161 1078 163 q 1086 156 1083 159 q 1090 151 1088 153 q 1094 145 1092 149 q 1096 140 1095 142 q 1099 133 1097 137 q 1099 127 1099 130 q 1099 120 1099 124 q 1098 108 1099 115 q 1096 102 1097 105 q 1093 96 1094 99 q 1085 85 1090 90 q 1080 80 1082 82 q 1074 77 1077 78 q 1068 74 1071 76 q 1062 72 1065 73 q 1049 70 1056 70 q 1036 72 1042 70 q 1030 74 1033 73 q 1024 77 1027 76 q 1019 81 1022 78 q 1013 85 1016 83 m 1030 101 q 1034 98 1032 99 q 1040 95 1037 97 q 1049 94 1044 94 q 1060 95 1057 94 q 1065 98 1063 96 q 1069 101 1067 99 q 1075 110 1074 106 q 1077 120 1077 115 q 1075 131 1077 125 q 1069 140 1074 135 q 1060 147 1065 144 q 1049 149 1056 149 q 1044 148 1047 149 q 1040 147 1042 148 q 1034 144 1037 146 q 1030 140 1032 143 q 1024 131 1026 138 q 1022 126 1022 129 q 1022 121 1022 124 q 1024 111 1022 114 q 1026 106 1025 108 q 1030 101 1028 103 m 1190 224 l 1178 203 l 1138 229 l 1166 187 l 1156 170 l 1106 179 l 1144 153 l 1131 134 l 1049 188 l 1058 201 q 1064 207 1060 205 q 1068 208 1066 208 q 1072 208 1071 208 l 1131 199 l 1098 247 q 1096 252 1097 250 q 1095 256 1095 253 q 1096 260 1095 258 q 1098 264 1097 262 l 1107 277 l 1190 224 m 231 645 l 226 632 l 133 667 l 146 699 q 151 710 148 706 q 162 717 156 716 q 167 719 165 719 q 173 720 169 720 q 179 720 176 720 q 185 719 182 719 q 195 711 192 716 q 200 707 199 710 q 202 702 201 705 q 204 696 203 699 q 206 691 205 693 q 203 678 206 685 l 197 658 l 231 645 m 191 683 q 191 686 191 685 q 192 690 192 688 q 191 693 192 692 q 190 697 191 694 q 189 699 190 698 q 186 702 188 701 q 181 706 184 704 q 177 706 179 706 q 174 706 175 706 q 170 706 172 706 q 167 705 169 706 q 165 703 166 703 q 162 701 163 703 q 158 695 159 697 l 151 674 l 183 663 l 191 683 m 281 753 l 251 699 l 165 747 l 194 800 l 206 793 l 183 752 l 208 738 l 227 772 l 239 766 l 220 733 l 246 717 l 269 759 l 281 753 m 294 771 l 286 760 l 208 820 l 228 849 q 233 852 231 850 q 238 856 235 854 q 243 858 240 858 q 248 860 245 859 q 253 860 251 860 q 259 859 256 860 q 269 853 265 858 q 273 850 272 852 q 276 847 274 849 q 278 843 277 845 q 280 840 279 841 q 281 834 281 836 q 281 830 281 832 q 279 822 281 826 l 331 820 l 326 813 q 321 808 324 810 q 317 807 319 808 q 315 806 316 806 l 271 808 l 262 796 l 294 771 m 226 823 l 251 804 l 264 822 q 266 824 265 823 q 267 827 266 826 l 267 833 q 267 835 267 834 q 265 839 266 837 q 261 842 263 842 q 256 845 258 845 q 250 846 254 846 q 247 845 249 845 q 244 844 246 845 q 240 840 242 843 l 226 823 m 303 903 q 299 903 300 903 q 296 902 297 903 q 292 899 294 901 q 288 894 290 897 q 286 889 286 892 l 286 884 q 289 880 287 882 q 293 876 291 877 l 297 876 q 303 878 299 876 q 307 880 306 879 q 312 881 309 880 q 314 883 313 882 q 316 883 315 883 q 322 885 317 884 q 326 888 324 885 q 328 888 327 888 q 331 888 329 888 q 353 880 344 890 q 360 869 360 876 q 361 863 361 865 q 362 858 362 861 q 360 851 361 854 q 358 845 360 848 q 355 839 357 842 q 351 835 352 837 q 329 824 342 826 l 325 824 q 321 826 323 826 q 318 826 319 826 q 317 826 317 826 q 316 827 316 826 q 315 827 316 827 l 316 831 q 317 833 317 832 q 318 835 317 834 q 326 839 324 839 l 328 839 q 335 840 331 839 q 342 844 338 841 q 343 847 343 846 q 345 850 344 849 q 347 858 347 853 q 347 864 349 860 q 346 867 347 866 q 344 870 345 869 q 338 874 342 874 q 331 874 334 876 q 325 872 327 874 q 317 868 319 870 q 308 865 315 867 q 302 863 305 863 q 298 863 299 863 q 288 863 291 863 q 283 866 286 865 q 279 870 281 867 q 273 880 274 874 q 272 890 272 886 q 276 900 274 897 q 281 909 277 903 q 289 913 285 913 q 296 916 292 916 q 304 917 303 917 q 311 917 309 917 l 310 913 q 308 906 310 910 q 303 903 306 903 m 344 900 q 341 906 343 903 q 339 913 340 909 q 335 925 335 919 q 335 932 335 928 q 335 938 335 935 q 338 945 337 942 q 340 951 339 948 q 343 956 342 954 q 347 962 345 958 q 358 970 351 966 q 369 976 363 975 q 383 978 376 978 q 396 978 389 981 q 401 977 399 978 q 407 974 403 976 q 413 971 410 973 q 419 967 416 969 q 423 963 422 965 q 428 957 425 960 q 431 951 429 954 q 433 945 433 949 q 436 933 436 939 q 436 919 438 926 q 434 913 435 916 q 432 907 433 910 q 424 896 428 900 q 420 891 422 894 q 415 888 418 889 q 397 880 405 881 q 376 880 386 877 q 367 882 372 881 q 358 886 363 884 q 344 900 350 892 m 356 908 q 366 898 359 901 q 379 893 372 894 q 394 893 386 891 q 406 899 401 894 q 417 909 414 903 q 420 915 419 913 q 422 922 421 918 q 422 937 423 929 q 420 943 421 940 q 416 949 419 946 q 406 960 413 956 q 393 965 399 965 q 379 965 385 967 q 365 959 372 964 q 355 949 359 955 q 352 942 353 945 q 349 935 351 939 q 349 922 348 929 q 352 915 351 918 q 356 908 353 912 m 474 924 l 460 918 l 423 1010 l 433 1014 q 438 1015 435 1015 q 442 1014 442 1015 l 518 965 l 519 965 q 519 963 519 963 q 521 962 521 963 q 522 962 521 962 l 490 1038 l 503 1042 l 540 951 l 531 947 q 525 947 528 947 q 519 947 522 947 l 446 996 q 444 996 444 996 q 443 997 444 997 q 442 999 443 998 q 442 999 442 999 l 442 1001 l 474 924 m 563 1058 l 576 1060 l 638 972 l 630 970 q 627 970 628 969 q 624 970 626 970 q 619 974 621 971 l 610 988 l 560 978 l 557 962 q 553 956 556 958 q 551 954 553 955 q 548 953 549 953 l 540 952 l 563 1058 m 573 1038 l 563 993 l 601 1001 l 576 1038 q 574 1040 574 1039 q 573 1043 574 1042 l 573 1040 l 573 1038 m 638 969 l 635 1069 l 648 1069 l 651 984 l 695 986 l 696 972 l 638 969 m 750 1006 q 750 995 749 1000 q 752 991 751 993 q 754 987 753 988 q 757 983 756 985 q 760 980 759 981 q 766 977 763 978 q 771 975 768 976 q 781 976 778 975 q 786 977 784 976 q 790 980 788 978 q 797 987 794 983 q 800 991 799 989 q 802 997 801 994 l 812 1056 l 826 1054 l 814 994 q 813 989 813 992 q 811 984 813 987 q 809 979 810 981 q 806 975 808 977 q 802 972 804 974 q 798 969 799 970 q 790 965 794 966 q 784 963 787 963 q 779 962 781 963 q 769 963 772 962 q 763 964 765 963 q 758 966 761 965 q 754 968 756 967 q 750 971 752 969 q 742 978 745 974 q 738 988 741 982 q 736 998 736 992 q 737 1008 736 1005 l 747 1067 l 760 1065 l 750 1006 m 878 1018 q 877 1020 878 1019 q 875 1023 876 1022 q 872 1024 874 1024 q 869 1025 871 1024 q 863 1026 867 1026 l 858 1026 q 853 1024 856 1024 q 851 1019 851 1022 q 851 1014 849 1016 q 852 1010 851 1011 q 853 1007 853 1008 q 856 1005 854 1006 q 863 1000 858 1003 q 865 998 864 999 q 867 996 865 997 q 869 994 868 995 q 871 992 869 993 q 873 991 872 992 q 875 989 874 990 q 876 987 876 988 q 878 985 876 986 q 881 962 885 974 q 877 956 879 958 q 874 951 876 953 q 868 947 871 949 q 863 944 866 945 q 851 942 858 942 q 845 942 848 942 q 839 943 842 942 q 820 959 826 949 q 819 961 820 960 q 817 963 818 962 q 817 965 817 964 q 817 967 817 965 q 816 969 816 967 l 816 972 l 820 973 q 825 972 823 973 q 831 967 829 971 l 831 966 q 833 963 833 964 q 835 960 834 962 q 840 958 838 959 q 843 956 841 957 q 846 956 844 956 q 849 956 848 956 q 853 956 851 956 q 857 956 856 956 q 863 960 862 958 q 867 966 867 963 q 867 973 869 970 q 867 976 867 974 q 865 978 866 977 q 863 981 864 980 q 860 984 862 983 q 858 986 859 985 q 853 988 856 987 q 850 992 852 990 q 847 996 848 994 q 843 999 844 997 q 840 1004 842 1001 q 838 1008 839 1006 q 837 1012 837 1010 q 839 1024 835 1017 q 844 1033 840 1029 q 853 1038 849 1038 q 859 1040 856 1040 q 863 1040 861 1040 q 869 1040 866 1040 q 875 1038 872 1039 q 881 1034 878 1038 q 888 1028 885 1031 q 890 1025 889 1026 q 892 1022 892 1024 q 893 1019 893 1020 q 894 1016 894 1017 l 890 1014 q 883 1014 887 1013 q 878 1018 880 1017 m 930 903 l 876 931 l 920 1019 l 974 991 l 969 978 l 927 1001 l 914 975 l 948 958 l 941 945 l 907 963 l 894 938 l 936 915 l 930 903 m 992 922 q 1003 931 997 929 q 1008 935 1005 933 q 1013 938 1010 936 q 1020 939 1017 939 q 1026 940 1023 939 q 1033 940 1030 940 q 1040 939 1036 940 q 1052 935 1046 938 q 1063 927 1057 933 q 1068 923 1065 925 q 1072 917 1071 920 q 1077 906 1076 912 q 1080 893 1080 900 q 1080 886 1080 890 q 1079 880 1080 883 q 1077 873 1078 876 q 1075 867 1076 870 q 1067 857 1072 860 q 1063 851 1065 853 q 1058 847 1060 849 q 1051 844 1054 845 q 1045 842 1049 842 q 1033 840 1039 840 q 1026 840 1029 840 q 1019 840 1023 840 q 1014 842 1017 841 q 1008 844 1011 842 q 1002 848 1004 846 q 996 851 999 849 q 989 859 992 856 q 984 867 986 863 q 981 877 983 872 q 979 886 980 881 q 982 906 979 897 q 992 922 985 916 m 1003 914 q 994 901 997 908 q 993 894 993 898 q 992 888 992 891 q 993 880 992 883 q 996 874 994 877 q 1000 867 999 870 q 1005 862 1002 864 q 1011 858 1008 859 q 1018 854 1015 856 q 1031 853 1026 852 q 1045 857 1040 853 q 1052 860 1049 858 q 1058 865 1055 863 q 1064 878 1063 871 q 1066 892 1067 884 q 1065 899 1066 895 q 1063 906 1065 902 q 1059 911 1061 909 q 1054 917 1057 914 q 1048 921 1051 919 q 1041 924 1044 923 q 1034 926 1038 926 q 1027 926 1031 926 q 1020 925 1024 926 q 1013 922 1017 924 q 1003 914 1007 919 m 1046 804 l 1038 814 l 1117 874 l 1124 865 q 1126 860 1126 862 l 1126 854 l 1097 771 q 1097 770 1097 770 q 1097 769 1097 770 q 1096 769 1097 769 q 1095 768 1095 769 l 1094 767 l 1160 815 l 1169 805 l 1090 746 l 1083 754 q 1080 759 1081 756 q 1081 764 1080 763 l 1109 849 q 1110 849 1109 849 q 1110 850 1110 849 l 1111 851 q 1113 853 1112 852 l 1046 804 m 1094 734 l 1183 779 l 1188 768 l 1113 728 l 1133 691 l 1120 684 l 1094 734 m 1131 656 l 1126 668 l 1165 683 q 1167 684 1167 684 q 1169 685 1169 685 q 1170 687 1169 687 q 1170 688 1170 688 q 1172 690 1172 688 l 1205 740 l 1207 732 q 1209 727 1208 729 q 1209 724 1209 725 q 1208 720 1208 722 q 1206 717 1207 719 l 1185 685 l 1183 683 l 1183 683 l 1184 683 q 1186 683 1184 683 l 1224 672 q 1227 670 1225 671 q 1230 668 1228 669 q 1233 663 1233 667 l 1237 653 l 1180 670 q 1178 671 1178 670 l 1175 671 l 1172 671 q 1169 670 1170 671 l 1131 656 z "},"3":{"ha":1385,"x_min":133,"x_max":1237,"o":"m 927 226 q 815 160 877 185 q 683 135 753 135 q 552 160 613 135 q 442 226 492 185 l 927 226 m 413 254 q 347 365 370 303 q 323 497 323 426 q 344 620 323 563 q 404 726 365 678 l 883 726 l 413 254 m 440 766 q 551 834 490 810 q 683 859 613 859 q 815 834 753 859 q 923 766 876 809 l 440 766 m 1044 497 q 1023 372 1044 430 q 963 265 1001 314 l 482 265 l 952 740 q 1021 623 998 683 q 1044 497 1044 563 m 800 76 q 743 65 772 69 q 683 60 715 60 q 565 76 622 60 q 460 122 508 92 q 372 191 411 151 q 305 280 333 231 q 262 383 277 328 q 247 497 247 438 q 263 615 247 558 q 308 721 278 672 q 377 809 337 769 q 466 876 417 849 q 570 919 515 904 q 683 935 625 935 q 858 899 778 935 q 996 802 938 863 q 1087 662 1054 741 q 1119 497 1119 583 q 1094 350 1119 418 q 1026 228 1069 282 q 925 135 983 174 q 800 76 867 97 m 789 883 q 739 895 765 891 q 683 899 713 899 q 574 884 626 899 q 477 842 522 869 q 397 778 433 815 q 336 696 361 740 q 297 601 310 651 q 283 497 283 550 q 297 392 283 442 q 337 296 311 341 q 399 214 363 251 q 479 150 435 177 q 575 109 524 124 q 683 94 627 94 q 839 125 766 94 q 967 211 913 157 q 1053 339 1022 266 q 1085 497 1085 413 q 1061 634 1085 570 q 997 747 1038 697 q 903 832 957 797 q 789 883 849 867 m 205 221 l 227 183 l 208 172 l 168 238 l 177 243 q 188 246 183 247 l 257 239 l 235 276 l 255 287 l 293 221 l 284 216 q 279 215 280 215 q 274 213 277 213 l 205 221 m 265 100 l 223 151 l 299 215 l 342 163 l 324 149 l 296 181 l 285 172 l 307 147 l 290 131 l 268 157 l 255 147 l 282 115 l 265 100 m 331 140 l 347 157 l 406 106 l 392 90 l 371 108 l 322 49 l 304 64 l 353 122 l 331 140 m 428 94 l 444 83 l 431 -23 l 417 -15 q 414 -12 416 -13 q 412 -9 412 -10 q 410 -5 410 -6 l 410 -1 l 412 11 l 379 31 l 369 24 q 368 23 369 23 q 366 22 367 23 l 362 22 q 359 22 360 22 q 358 22 358 22 q 355 23 356 23 q 353 24 353 23 l 340 31 l 428 94 m 419 60 q 418 59 418 59 q 416 58 415 58 q 415 56 415 56 q 415 56 415 56 l 400 45 l 415 35 l 417 54 q 417 55 417 55 q 418 56 418 56 q 418 58 418 58 q 419 58 419 58 q 419 59 419 59 q 419 60 419 60 m 522 6 l 513 -16 l 480 -3 l 467 -37 l 444 -28 l 481 63 l 542 40 l 535 19 l 494 33 l 489 19 l 522 6 m 529 -9 q 533 4 530 -3 q 541 14 538 8 q 545 19 543 17 q 550 23 548 21 q 556 26 553 25 q 563 28 559 27 q 569 30 565 30 q 576 31 572 31 q 582 31 579 31 q 589 30 585 31 q 595 28 592 28 q 601 26 599 27 q 613 19 608 22 q 617 14 615 16 q 621 9 619 12 q 626 -3 626 3 q 628 -10 628 -7 q 630 -16 629 -12 q 630 -23 630 -19 q 629 -29 630 -26 q 624 -42 628 -36 q 620 -48 622 -45 q 617 -53 619 -50 q 608 -61 614 -58 q 601 -64 604 -62 q 595 -67 599 -65 q 589 -69 592 -68 q 583 -69 586 -69 q 576 -69 579 -69 q 568 -68 573 -69 q 562 -67 565 -67 q 556 -65 560 -66 q 551 -61 553 -63 q 545 -57 548 -60 q 541 -52 542 -55 q 537 -47 539 -49 q 534 -42 535 -44 q 531 -36 532 -39 q 528 -23 529 -28 q 528 -16 528 -19 q 529 -9 528 -12 m 553 -14 q 553 -25 552 -20 q 554 -30 553 -27 q 556 -35 555 -32 q 563 -42 559 -39 q 568 -44 565 -44 q 574 -46 571 -45 q 584 -46 578 -48 q 594 -43 590 -45 q 601 -35 599 -39 q 604 -30 603 -32 q 606 -25 606 -27 q 606 -13 608 -19 q 601 -4 606 -10 q 598 0 600 -1 q 594 4 597 2 q 590 6 592 6 q 584 8 588 7 q 574 8 578 10 q 568 6 571 7 q 563 4 566 6 q 560 1 562 3 q 557 -4 558 -1 q 553 -14 554 -7 m 727 -78 l 706 -79 l 661 -13 l 662 -79 l 638 -80 l 637 19 l 647 19 l 656 19 q 663 19 661 19 q 666 15 665 17 l 701 -34 q 701 -35 701 -35 q 702 -37 701 -36 q 703 -39 702 -38 q 703 -40 703 -39 q 704 -43 703 -42 l 702 20 l 726 20 l 727 -78 m 738 -1 l 734 22 l 812 35 l 816 14 l 789 8 l 803 -66 l 781 -70 l 767 4 l 738 -1 m 856 28 q 851 27 853 28 q 849 26 849 27 q 848 23 848 23 q 849 22 848 22 q 851 19 849 19 q 852 18 851 19 q 853 17 852 17 l 860 17 l 867 17 q 874 17 871 17 q 880 17 876 17 q 884 15 883 15 q 889 13 886 15 q 897 7 894 10 q 902 -3 901 4 q 904 -15 905 -9 q 903 -22 904 -19 q 900 -28 901 -24 q 897 -33 899 -31 q 892 -39 895 -35 q 885 -42 888 -40 q 879 -45 883 -44 q 874 -47 876 -46 q 867 -47 871 -47 q 857 -46 863 -49 q 847 -42 851 -45 q 842 -39 844 -41 q 839 -35 840 -37 l 844 -28 q 847 -26 845 -26 q 849 -24 849 -24 q 856 -23 851 -23 q 859 -23 858 -23 q 861 -24 860 -24 q 864 -24 863 -24 q 866 -25 865 -25 q 871 -24 869 -25 q 874 -23 873 -24 q 876 -22 874 -23 l 879 -19 q 881 -14 881 -17 q 881 -10 881 -14 l 878 -8 q 875 -7 878 -7 q 872 -6 874 -6 q 869 -6 871 -6 l 863 -6 q 858 -6 860 -6 q 852 -5 856 -6 q 842 -3 848 -5 q 837 -1 840 -2 q 833 2 835 1 q 826 13 830 6 q 825 19 825 16 q 825 24 825 22 q 826 30 826 28 q 829 35 827 33 q 832 41 831 39 q 837 44 834 42 q 847 50 842 48 q 851 51 849 51 q 856 52 853 52 q 860 51 858 52 q 865 51 862 51 q 868 50 866 50 q 874 48 870 49 q 877 46 875 47 q 880 44 878 46 l 876 37 q 874 32 875 35 q 870 31 872 31 q 867 31 869 31 q 865 30 867 30 l 861 30 l 858 30 q 856 28 856 30 m 918 -14 q 917 -11 918 -12 q 917 -9 917 -10 q 918 -4 917 -6 q 920 1 918 -3 q 924 4 921 3 q 927 5 926 5 q 930 6 928 5 q 932 5 931 6 q 935 5 933 5 q 939 2 938 3 q 942 -3 941 1 q 945 -8 945 -6 q 944 -12 945 -11 q 942 -15 942 -14 q 941 -17 942 -16 q 939 -19 940 -18 q 937 -21 938 -19 q 932 -22 933 -22 q 927 -22 928 -22 q 921 -19 924 -22 q 918 -14 919 -17 m 954 46 q 962 38 956 42 q 966 35 964 36 q 972 33 969 35 q 982 33 976 32 q 987 35 985 33 q 992 38 989 36 q 995 41 994 39 q 999 44 997 42 l 1003 50 q 1008 58 1004 55 q 1010 59 1009 59 q 1013 60 1012 59 l 1019 60 l 1027 58 q 1026 52 1026 55 q 1024 46 1025 49 q 1019 35 1023 42 q 1013 26 1017 30 q 1005 19 1008 22 q 998 16 1001 17 q 992 13 995 14 q 979 10 986 10 q 973 10 976 10 q 966 11 969 10 q 961 13 964 13 q 954 15 958 13 q 949 18 951 17 q 944 23 946 20 q 939 27 941 25 q 934 32 936 29 q 931 39 933 35 q 928 45 930 42 q 927 51 928 48 q 926 58 927 54 q 926 64 926 61 q 927 70 926 67 q 931 83 928 76 q 934 88 933 85 q 938 94 935 91 q 943 99 940 97 q 949 103 946 101 q 958 108 954 106 q 964 109 961 109 q 969 111 966 110 l 981 111 q 988 110 985 111 q 992 109 990 110 l 992 100 q 990 95 990 97 q 988 93 988 94 q 985 91 987 92 q 976 88 980 88 q 969 87 972 88 q 960 84 965 86 q 953 76 956 81 q 950 67 950 71 q 950 56 949 61 q 954 46 951 49 m 1013 85 q 1009 90 1010 88 q 1005 96 1007 92 q 1002 102 1003 99 q 1001 108 1001 105 q 999 115 999 112 q 999 121 999 117 q 1000 127 999 124 q 1001 134 1000 131 q 1003 140 1001 138 q 1006 147 1004 143 q 1009 151 1008 149 q 1014 156 1011 154 q 1019 161 1017 159 q 1025 165 1022 163 q 1031 168 1028 167 q 1037 169 1033 169 q 1043 171 1040 171 q 1049 171 1046 171 q 1056 171 1053 171 q 1063 169 1059 171 q 1069 168 1066 169 q 1075 165 1072 167 q 1081 161 1078 163 q 1086 156 1083 159 q 1090 151 1088 153 q 1094 145 1092 149 q 1096 140 1095 142 q 1099 133 1097 137 q 1099 127 1099 130 q 1099 120 1099 124 q 1098 108 1099 115 q 1096 102 1097 105 q 1093 96 1094 99 q 1085 85 1090 90 q 1080 80 1082 82 q 1074 77 1077 78 q 1068 74 1071 76 q 1062 72 1065 73 q 1049 70 1056 70 q 1036 72 1042 70 q 1030 74 1033 73 q 1024 77 1027 76 q 1019 81 1022 78 q 1013 85 1016 83 m 1030 101 q 1034 98 1032 99 q 1040 95 1037 97 q 1049 94 1044 94 q 1060 95 1057 94 q 1065 98 1063 96 q 1069 101 1067 99 q 1075 110 1074 106 q 1077 120 1077 115 q 1075 131 1077 125 q 1069 140 1074 135 q 1060 147 1065 144 q 1049 149 1056 149 q 1044 148 1047 149 q 1040 147 1042 148 q 1034 144 1037 146 q 1030 140 1032 143 q 1024 131 1026 138 q 1022 126 1022 129 q 1022 121 1022 124 q 1024 111 1022 114 q 1026 106 1025 108 q 1030 101 1028 103 m 1190 224 l 1178 203 l 1138 229 l 1166 187 l 1156 170 l 1106 179 l 1144 153 l 1131 134 l 1049 188 l 1058 201 q 1064 207 1060 205 q 1068 208 1066 208 q 1072 208 1071 208 l 1131 199 l 1098 247 q 1096 252 1097 250 q 1095 256 1095 253 q 1096 260 1095 258 q 1098 264 1097 262 l 1107 277 l 1190 224 m 231 645 l 226 632 l 133 667 l 146 699 q 151 710 148 706 q 162 717 156 716 q 167 719 165 719 q 173 720 169 720 q 179 720 176 720 q 185 719 182 719 q 195 711 192 716 q 200 707 199 710 q 202 702 201 705 q 204 696 203 699 q 206 691 205 693 q 203 678 206 685 l 197 658 l 231 645 m 191 683 q 191 686 191 685 q 192 690 192 688 q 191 693 192 692 q 190 697 191 694 q 189 699 190 698 q 186 702 188 701 q 181 706 184 704 q 177 706 179 706 q 174 706 175 706 q 170 706 172 706 q 167 705 169 706 q 165 703 166 703 q 162 701 163 703 q 158 695 159 697 l 151 674 l 183 663 l 191 683 m 281 753 l 251 699 l 165 747 l 194 800 l 206 793 l 183 752 l 208 738 l 227 772 l 239 766 l 220 733 l 246 717 l 269 759 l 281 753 m 294 771 l 286 760 l 208 820 l 228 849 q 233 852 231 850 q 238 856 235 854 q 243 858 240 858 q 248 860 245 859 q 253 860 251 860 q 259 859 256 860 q 269 853 265 858 q 273 850 272 852 q 276 847 274 849 q 278 843 277 845 q 280 840 279 841 q 281 834 281 836 q 281 830 281 832 q 279 822 281 826 l 331 820 l 326 813 q 321 808 324 810 q 317 807 319 808 q 315 806 316 806 l 271 808 l 262 796 l 294 771 m 226 823 l 251 804 l 264 822 q 266 824 265 823 q 267 827 266 826 l 267 833 q 267 835 267 834 q 265 839 266 837 q 261 842 263 842 q 256 845 258 845 q 250 846 254 846 q 247 845 249 845 q 244 844 246 845 q 240 840 242 843 l 226 823 m 303 903 q 299 903 300 903 q 296 902 297 903 q 292 899 294 901 q 288 894 290 897 q 286 889 286 892 l 286 884 q 289 880 287 882 q 293 876 291 877 l 297 876 q 303 878 299 876 q 307 880 306 879 q 312 881 309 880 q 314 883 313 882 q 316 883 315 883 q 322 885 317 884 q 326 888 324 885 q 328 888 327 888 q 331 888 329 888 q 353 880 344 890 q 360 869 360 876 q 361 863 361 865 q 362 858 362 861 q 360 851 361 854 q 358 845 360 848 q 355 839 357 842 q 351 835 352 837 q 329 824 342 826 l 325 824 q 321 826 323 826 q 318 826 319 826 q 317 826 317 826 q 316 827 316 826 q 315 827 316 827 l 316 831 q 317 833 317 832 q 318 835 317 834 q 326 839 324 839 l 328 839 q 335 840 331 839 q 342 844 338 841 q 343 847 343 846 q 345 850 344 849 q 347 858 347 853 q 347 864 349 860 q 346 867 347 866 q 344 870 345 869 q 338 874 342 874 q 331 874 334 876 q 325 872 327 874 q 317 868 319 870 q 308 865 315 867 q 302 863 305 863 q 298 863 299 863 q 288 863 291 863 q 283 866 286 865 q 279 870 281 867 q 273 880 274 874 q 272 890 272 886 q 276 900 274 897 q 281 909 277 903 q 289 913 285 913 q 296 916 292 916 q 304 917 303 917 q 311 917 309 917 l 310 913 q 308 906 310 910 q 303 903 306 903 m 344 900 q 341 906 343 903 q 339 913 340 909 q 335 925 335 919 q 335 932 335 928 q 335 938 335 935 q 338 945 337 942 q 340 951 339 948 q 343 956 342 954 q 347 962 345 958 q 358 970 351 966 q 369 976 363 975 q 383 978 376 978 q 396 978 389 981 q 401 977 399 978 q 407 974 403 976 q 413 971 410 973 q 419 967 416 969 q 423 963 422 965 q 428 957 425 960 q 431 951 429 954 q 433 945 433 949 q 436 933 436 939 q 436 919 438 926 q 434 913 435 916 q 432 907 433 910 q 424 896 428 900 q 420 891 422 894 q 415 888 418 889 q 397 880 405 881 q 376 880 386 877 q 367 882 372 881 q 358 886 363 884 q 344 900 350 892 m 356 908 q 366 898 359 901 q 379 893 372 894 q 394 893 386 891 q 406 899 401 894 q 417 909 414 903 q 420 915 419 913 q 422 922 421 918 q 422 937 423 929 q 420 943 421 940 q 416 949 419 946 q 406 960 413 956 q 393 965 399 965 q 379 965 385 967 q 365 959 372 964 q 355 949 359 955 q 352 942 353 945 q 349 935 351 939 q 349 922 348 929 q 352 915 351 918 q 356 908 353 912 m 474 924 l 460 918 l 423 1010 l 433 1014 q 438 1015 435 1015 q 442 1014 442 1015 l 518 965 l 519 965 q 519 963 519 963 q 521 962 521 963 q 522 962 521 962 l 490 1038 l 503 1042 l 540 951 l 531 947 q 525 947 528 947 q 519 947 522 947 l 446 996 q 444 996 444 996 q 443 997 444 997 q 442 999 443 998 q 442 999 442 999 l 442 1001 l 474 924 m 563 1058 l 576 1060 l 638 972 l 630 970 q 627 970 628 969 q 624 970 626 970 q 619 974 621 971 l 610 988 l 560 978 l 557 962 q 553 956 556 958 q 551 954 553 955 q 548 953 549 953 l 540 952 l 563 1058 m 573 1038 l 563 993 l 601 1001 l 576 1038 q 574 1040 574 1039 q 573 1043 574 1042 l 573 1040 l 573 1038 m 638 969 l 635 1069 l 648 1069 l 651 984 l 695 986 l 696 972 l 638 969 m 750 1006 q 750 995 749 1000 q 752 991 751 993 q 754 987 753 988 q 757 983 756 985 q 760 980 759 981 q 766 977 763 978 q 771 975 768 976 q 781 976 778 975 q 786 977 784 976 q 790 980 788 978 q 797 987 794 983 q 800 991 799 989 q 802 997 801 994 l 812 1056 l 826 1054 l 814 994 q 813 989 813 992 q 811 984 813 987 q 809 979 810 981 q 806 975 808 977 q 802 972 804 974 q 798 969 799 970 q 790 965 794 966 q 784 963 787 963 q 779 962 781 963 q 769 963 772 962 q 763 964 765 963 q 758 966 761 965 q 754 968 756 967 q 750 971 752 969 q 742 978 745 974 q 738 988 741 982 q 736 998 736 992 q 737 1008 736 1005 l 747 1067 l 760 1065 l 750 1006 m 878 1018 q 877 1020 878 1019 q 875 1023 876 1022 q 872 1024 874 1024 q 869 1025 871 1024 q 863 1026 867 1026 l 858 1026 q 853 1024 856 1024 q 851 1019 851 1022 q 851 1014 849 1016 q 852 1010 851 1011 q 853 1007 853 1008 q 856 1005 854 1006 q 863 1000 858 1003 q 865 998 864 999 q 867 996 865 997 q 869 994 868 995 q 871 992 869 993 q 873 991 872 992 q 875 989 874 990 q 876 987 876 988 q 878 985 876 986 q 881 962 885 974 q 877 956 879 958 q 874 951 876 953 q 868 947 871 949 q 863 944 866 945 q 851 942 858 942 q 845 942 848 942 q 839 943 842 942 q 820 959 826 949 q 819 961 820 960 q 817 963 818 962 q 817 965 817 964 q 817 967 817 965 q 816 969 816 967 l 816 972 l 820 973 q 825 972 823 973 q 831 967 829 971 l 831 966 q 833 963 833 964 q 835 960 834 962 q 840 958 838 959 q 843 956 841 957 q 846 956 844 956 q 849 956 848 956 q 853 956 851 956 q 857 956 856 956 q 863 960 862 958 q 867 966 867 963 q 867 973 869 970 q 867 976 867 974 q 865 978 866 977 q 863 981 864 980 q 860 984 862 983 q 858 986 859 985 q 853 988 856 987 q 850 992 852 990 q 847 996 848 994 q 843 999 844 997 q 840 1004 842 1001 q 838 1008 839 1006 q 837 1012 837 1010 q 839 1024 835 1017 q 844 1033 840 1029 q 853 1038 849 1038 q 859 1040 856 1040 q 863 1040 861 1040 q 869 1040 866 1040 q 875 1038 872 1039 q 881 1034 878 1038 q 888 1028 885 1031 q 890 1025 889 1026 q 892 1022 892 1024 q 893 1019 893 1020 q 894 1016 894 1017 l 890 1014 q 883 1014 887 1013 q 878 1018 880 1017 m 930 903 l 876 931 l 920 1019 l 974 991 l 969 978 l 927 1001 l 914 975 l 948 958 l 941 945 l 907 963 l 894 938 l 936 915 l 930 903 m 992 922 q 1003 931 997 929 q 1008 935 1005 933 q 1013 938 1010 936 q 1020 939 1017 939 q 1026 940 1023 939 q 1033 940 1030 940 q 1040 939 1036 940 q 1052 935 1046 938 q 1063 927 1057 933 q 1068 923 1065 925 q 1072 917 1071 920 q 1077 906 1076 912 q 1080 893 1080 900 q 1080 886 1080 890 q 1079 880 1080 883 q 1077 873 1078 876 q 1075 867 1076 870 q 1067 857 1072 860 q 1063 851 1065 853 q 1058 847 1060 849 q 1051 844 1054 845 q 1045 842 1049 842 q 1033 840 1039 840 q 1026 840 1029 840 q 1019 840 1023 840 q 1014 842 1017 841 q 1008 844 1011 842 q 1002 848 1004 846 q 996 851 999 849 q 989 859 992 856 q 984 867 986 863 q 981 877 983 872 q 979 886 980 881 q 982 906 979 897 q 992 922 985 916 m 1003 914 q 994 901 997 908 q 993 894 993 898 q 992 888 992 891 q 993 880 992 883 q 996 874 994 877 q 1000 867 999 870 q 1005 862 1002 864 q 1011 858 1008 859 q 1018 854 1015 856 q 1031 853 1026 852 q 1045 857 1040 853 q 1052 860 1049 858 q 1058 865 1055 863 q 1064 878 1063 871 q 1066 892 1067 884 q 1065 899 1066 895 q 1063 906 1065 902 q 1059 911 1061 909 q 1054 917 1057 914 q 1048 921 1051 919 q 1041 924 1044 923 q 1034 926 1038 926 q 1027 926 1031 926 q 1020 925 1024 926 q 1013 922 1017 924 q 1003 914 1007 919 m 1046 804 l 1038 814 l 1117 874 l 1124 865 q 1126 860 1126 862 l 1126 854 l 1097 771 q 1097 770 1097 770 q 1097 769 1097 770 q 1096 769 1097 769 q 1095 768 1095 769 l 1094 767 l 1160 815 l 1169 805 l 1090 746 l 1083 754 q 1080 759 1081 756 q 1081 764 1080 763 l 1109 849 q 1110 849 1109 849 q 1110 850 1110 849 l 1111 851 q 1113 853 1112 852 l 1046 804 m 1094 734 l 1183 779 l 1188 768 l 1113 728 l 1133 691 l 1120 684 l 1094 734 m 1131 656 l 1126 668 l 1165 683 q 1167 684 1167 684 q 1169 685 1169 685 q 1170 687 1169 687 q 1170 688 1170 688 q 1172 690 1172 688 l 1205 740 l 1207 732 q 1209 727 1208 729 q 1209 724 1209 725 q 1208 720 1208 722 q 1206 717 1207 719 l 1185 685 l 1183 683 l 1183 683 l 1184 683 q 1186 683 1184 683 l 1224 672 q 1227 670 1225 671 q 1230 668 1228 669 q 1233 663 1233 667 l 1237 653 l 1180 670 q 1178 671 1178 670 l 1175 671 l 1172 671 q 1169 670 1170 671 l 1131 656 z "},"4":{"ha":1385,"x_min":133,"x_max":1237,"o":"m 927 226 q 815 160 877 185 q 683 135 753 135 q 552 160 613 135 q 442 226 492 185 l 927 226 m 413 254 q 347 365 370 303 q 323 497 323 426 q 344 620 323 563 q 404 726 365 678 l 883 726 l 413 254 m 440 766 q 551 834 490 810 q 683 859 613 859 q 815 834 753 859 q 923 766 876 809 l 440 766 m 1044 497 q 1023 372 1044 430 q 963 265 1001 314 l 482 265 l 952 740 q 1021 623 998 683 q 1044 497 1044 563 m 800 76 q 743 65 772 69 q 683 60 715 60 q 565 76 622 60 q 460 122 508 92 q 372 191 411 151 q 305 280 333 231 q 262 383 277 328 q 247 497 247 438 q 263 615 247 558 q 308 721 278 672 q 377 809 337 769 q 466 876 417 849 q 570 919 515 904 q 683 935 625 935 q 858 899 778 935 q 996 802 938 863 q 1087 662 1054 741 q 1119 497 1119 583 q 1094 350 1119 418 q 1026 228 1069 282 q 925 135 983 174 q 800 76 867 97 m 789 883 q 739 895 765 891 q 683 899 713 899 q 574 884 626 899 q 477 842 522 869 q 397 778 433 815 q 336 696 361 740 q 297 601 310 651 q 283 497 283 550 q 297 392 283 442 q 337 296 311 341 q 399 214 363 251 q 479 150 435 177 q 575 109 524 124 q 683 94 627 94 q 839 125 766 94 q 967 211 913 157 q 1053 339 1022 266 q 1085 497 1085 413 q 1061 634 1085 570 q 997 747 1038 697 q 903 832 957 797 q 789 883 849 867 m 205 221 l 227 183 l 208 172 l 168 238 l 177 243 q 188 246 183 247 l 257 239 l 235 276 l 255 287 l 293 221 l 284 216 q 279 215 280 215 q 274 213 277 213 l 205 221 m 265 100 l 223 151 l 299 215 l 342 163 l 324 149 l 296 181 l 285 172 l 307 147 l 290 131 l 268 157 l 255 147 l 282 115 l 265 100 m 331 140 l 347 157 l 406 106 l 392 90 l 371 108 l 322 49 l 304 64 l 353 122 l 331 140 m 428 94 l 444 83 l 431 -23 l 417 -15 q 414 -12 416 -13 q 412 -9 412 -10 q 410 -5 410 -6 l 410 -1 l 412 11 l 379 31 l 369 24 q 368 23 369 23 q 366 22 367 23 l 362 22 q 359 22 360 22 q 358 22 358 22 q 355 23 356 23 q 353 24 353 23 l 340 31 l 428 94 m 419 60 q 418 59 418 59 q 416 58 415 58 q 415 56 415 56 q 415 56 415 56 l 400 45 l 415 35 l 417 54 q 417 55 417 55 q 418 56 418 56 q 418 58 418 58 q 419 58 419 58 q 419 59 419 59 q 419 60 419 60 m 522 6 l 513 -16 l 480 -3 l 467 -37 l 444 -28 l 481 63 l 542 40 l 535 19 l 494 33 l 489 19 l 522 6 m 529 -9 q 533 4 530 -3 q 541 14 538 8 q 545 19 543 17 q 550 23 548 21 q 556 26 553 25 q 563 28 559 27 q 569 30 565 30 q 576 31 572 31 q 582 31 579 31 q 589 30 585 31 q 595 28 592 28 q 601 26 599 27 q 613 19 608 22 q 617 14 615 16 q 621 9 619 12 q 626 -3 626 3 q 628 -10 628 -7 q 630 -16 629 -12 q 630 -23 630 -19 q 629 -29 630 -26 q 624 -42 628 -36 q 620 -48 622 -45 q 617 -53 619 -50 q 608 -61 614 -58 q 601 -64 604 -62 q 595 -67 599 -65 q 589 -69 592 -68 q 583 -69 586 -69 q 576 -69 579 -69 q 568 -68 573 -69 q 562 -67 565 -67 q 556 -65 560 -66 q 551 -61 553 -63 q 545 -57 548 -60 q 541 -52 542 -55 q 537 -47 539 -49 q 534 -42 535 -44 q 531 -36 532 -39 q 528 -23 529 -28 q 528 -16 528 -19 q 529 -9 528 -12 m 553 -14 q 553 -25 552 -20 q 554 -30 553 -27 q 556 -35 555 -32 q 563 -42 559 -39 q 568 -44 565 -44 q 574 -46 571 -45 q 584 -46 578 -48 q 594 -43 590 -45 q 601 -35 599 -39 q 604 -30 603 -32 q 606 -25 606 -27 q 606 -13 608 -19 q 601 -4 606 -10 q 598 0 600 -1 q 594 4 597 2 q 590 6 592 6 q 584 8 588 7 q 574 8 578 10 q 568 6 571 7 q 563 4 566 6 q 560 1 562 3 q 557 -4 558 -1 q 553 -14 554 -7 m 727 -78 l 706 -79 l 661 -13 l 662 -79 l 638 -80 l 637 19 l 647 19 l 656 19 q 663 19 661 19 q 666 15 665 17 l 701 -34 q 701 -35 701 -35 q 702 -37 701 -36 q 703 -39 702 -38 q 703 -40 703 -39 q 704 -43 703 -42 l 702 20 l 726 20 l 727 -78 m 738 -1 l 734 22 l 812 35 l 816 14 l 789 8 l 803 -66 l 781 -70 l 767 4 l 738 -1 m 856 28 q 851 27 853 28 q 849 26 849 27 q 848 23 848 23 q 849 22 848 22 q 851 19 849 19 q 852 18 851 19 q 853 17 852 17 l 860 17 l 867 17 q 874 17 871 17 q 880 17 876 17 q 884 15 883 15 q 889 13 886 15 q 897 7 894 10 q 902 -3 901 4 q 904 -15 905 -9 q 903 -22 904 -19 q 900 -28 901 -24 q 897 -33 899 -31 q 892 -39 895 -35 q 885 -42 888 -40 q 879 -45 883 -44 q 874 -47 876 -46 q 867 -47 871 -47 q 857 -46 863 -49 q 847 -42 851 -45 q 842 -39 844 -41 q 839 -35 840 -37 l 844 -28 q 847 -26 845 -26 q 849 -24 849 -24 q 856 -23 851 -23 q 859 -23 858 -23 q 861 -24 860 -24 q 864 -24 863 -24 q 866 -25 865 -25 q 871 -24 869 -25 q 874 -23 873 -24 q 876 -22 874 -23 l 879 -19 q 881 -14 881 -17 q 881 -10 881 -14 l 878 -8 q 875 -7 878 -7 q 872 -6 874 -6 q 869 -6 871 -6 l 863 -6 q 858 -6 860 -6 q 852 -5 856 -6 q 842 -3 848 -5 q 837 -1 840 -2 q 833 2 835 1 q 826 13 830 6 q 825 19 825 16 q 825 24 825 22 q 826 30 826 28 q 829 35 827 33 q 832 41 831 39 q 837 44 834 42 q 847 50 842 48 q 851 51 849 51 q 856 52 853 52 q 860 51 858 52 q 865 51 862 51 q 868 50 866 50 q 874 48 870 49 q 877 46 875 47 q 880 44 878 46 l 876 37 q 874 32 875 35 q 870 31 872 31 q 867 31 869 31 q 865 30 867 30 l 861 30 l 858 30 q 856 28 856 30 m 918 -14 q 917 -11 918 -12 q 917 -9 917 -10 q 918 -4 917 -6 q 920 1 918 -3 q 924 4 921 3 q 927 5 926 5 q 930 6 928 5 q 932 5 931 6 q 935 5 933 5 q 939 2 938 3 q 942 -3 941 1 q 945 -8 945 -6 q 944 -12 945 -11 q 942 -15 942 -14 q 941 -17 942 -16 q 939 -19 940 -18 q 937 -21 938 -19 q 932 -22 933 -22 q 927 -22 928 -22 q 921 -19 924 -22 q 918 -14 919 -17 m 954 46 q 962 38 956 42 q 966 35 964 36 q 972 33 969 35 q 982 33 976 32 q 987 35 985 33 q 992 38 989 36 q 995 41 994 39 q 999 44 997 42 l 1003 50 q 1008 58 1004 55 q 1010 59 1009 59 q 1013 60 1012 59 l 1019 60 l 1027 58 q 1026 52 1026 55 q 1024 46 1025 49 q 1019 35 1023 42 q 1013 26 1017 30 q 1005 19 1008 22 q 998 16 1001 17 q 992 13 995 14 q 979 10 986 10 q 973 10 976 10 q 966 11 969 10 q 961 13 964 13 q 954 15 958 13 q 949 18 951 17 q 944 23 946 20 q 939 27 941 25 q 934 32 936 29 q 931 39 933 35 q 928 45 930 42 q 927 51 928 48 q 926 58 927 54 q 926 64 926 61 q 927 70 926 67 q 931 83 928 76 q 934 88 933 85 q 938 94 935 91 q 943 99 940 97 q 949 103 946 101 q 958 108 954 106 q 964 109 961 109 q 969 111 966 110 l 981 111 q 988 110 985 111 q 992 109 990 110 l 992 100 q 990 95 990 97 q 988 93 988 94 q 985 91 987 92 q 976 88 980 88 q 969 87 972 88 q 960 84 965 86 q 953 76 956 81 q 950 67 950 71 q 950 56 949 61 q 954 46 951 49 m 1013 85 q 1009 90 1010 88 q 1005 96 1007 92 q 1002 102 1003 99 q 1001 108 1001 105 q 999 115 999 112 q 999 121 999 117 q 1000 127 999 124 q 1001 134 1000 131 q 1003 140 1001 138 q 1006 147 1004 143 q 1009 151 1008 149 q 1014 156 1011 154 q 1019 161 1017 159 q 1025 165 1022 163 q 1031 168 1028 167 q 1037 169 1033 169 q 1043 171 1040 171 q 1049 171 1046 171 q 1056 171 1053 171 q 1063 169 1059 171 q 1069 168 1066 169 q 1075 165 1072 167 q 1081 161 1078 163 q 1086 156 1083 159 q 1090 151 1088 153 q 1094 145 1092 149 q 1096 140 1095 142 q 1099 133 1097 137 q 1099 127 1099 130 q 1099 120 1099 124 q 1098 108 1099 115 q 1096 102 1097 105 q 1093 96 1094 99 q 1085 85 1090 90 q 1080 80 1082 82 q 1074 77 1077 78 q 1068 74 1071 76 q 1062 72 1065 73 q 1049 70 1056 70 q 1036 72 1042 70 q 1030 74 1033 73 q 1024 77 1027 76 q 1019 81 1022 78 q 1013 85 1016 83 m 1030 101 q 1034 98 1032 99 q 1040 95 1037 97 q 1049 94 1044 94 q 1060 95 1057 94 q 1065 98 1063 96 q 1069 101 1067 99 q 1075 110 1074 106 q 1077 120 1077 115 q 1075 131 1077 125 q 1069 140 1074 135 q 1060 147 1065 144 q 1049 149 1056 149 q 1044 148 1047 149 q 1040 147 1042 148 q 1034 144 1037 146 q 1030 140 1032 143 q 1024 131 1026 138 q 1022 126 1022 129 q 1022 121 1022 124 q 1024 111 1022 114 q 1026 106 1025 108 q 1030 101 1028 103 m 1190 224 l 1178 203 l 1138 229 l 1166 187 l 1156 170 l 1106 179 l 1144 153 l 1131 134 l 1049 188 l 1058 201 q 1064 207 1060 205 q 1068 208 1066 208 q 1072 208 1071 208 l 1131 199 l 1098 247 q 1096 252 1097 250 q 1095 256 1095 253 q 1096 260 1095 258 q 1098 264 1097 262 l 1107 277 l 1190 224 m 231 645 l 226 632 l 133 667 l 146 699 q 151 710 148 706 q 162 717 156 716 q 167 719 165 719 q 173 720 169 720 q 179 720 176 720 q 185 719 182 719 q 195 711 192 716 q 200 707 199 710 q 202 702 201 705 q 204 696 203 699 q 206 691 205 693 q 203 678 206 685 l 197 658 l 231 645 m 191 683 q 191 686 191 685 q 192 690 192 688 q 191 693 192 692 q 190 697 191 694 q 189 699 190 698 q 186 702 188 701 q 181 706 184 704 q 177 706 179 706 q 174 706 175 706 q 170 706 172 706 q 167 705 169 706 q 165 703 166 703 q 162 701 163 703 q 158 695 159 697 l 151 674 l 183 663 l 191 683 m 281 753 l 251 699 l 165 747 l 194 800 l 206 793 l 183 752 l 208 738 l 227 772 l 239 766 l 220 733 l 246 717 l 269 759 l 281 753 m 294 771 l 286 760 l 208 820 l 228 849 q 233 852 231 850 q 238 856 235 854 q 243 858 240 858 q 248 860 245 859 q 253 860 251 860 q 259 859 256 860 q 269 853 265 858 q 273 850 272 852 q 276 847 274 849 q 278 843 277 845 q 280 840 279 841 q 281 834 281 836 q 281 830 281 832 q 279 822 281 826 l 331 820 l 326 813 q 321 808 324 810 q 317 807 319 808 q 315 806 316 806 l 271 808 l 262 796 l 294 771 m 226 823 l 251 804 l 264 822 q 266 824 265 823 q 267 827 266 826 l 267 833 q 267 835 267 834 q 265 839 266 837 q 261 842 263 842 q 256 845 258 845 q 250 846 254 846 q 247 845 249 845 q 244 844 246 845 q 240 840 242 843 l 226 823 m 303 903 q 299 903 300 903 q 296 902 297 903 q 292 899 294 901 q 288 894 290 897 q 286 889 286 892 l 286 884 q 289 880 287 882 q 293 876 291 877 l 297 876 q 303 878 299 876 q 307 880 306 879 q 312 881 309 880 q 314 883 313 882 q 316 883 315 883 q 322 885 317 884 q 326 888 324 885 q 328 888 327 888 q 331 888 329 888 q 353 880 344 890 q 360 869 360 876 q 361 863 361 865 q 362 858 362 861 q 360 851 361 854 q 358 845 360 848 q 355 839 357 842 q 351 835 352 837 q 329 824 342 826 l 325 824 q 321 826 323 826 q 318 826 319 826 q 317 826 317 826 q 316 827 316 826 q 315 827 316 827 l 316 831 q 317 833 317 832 q 318 835 317 834 q 326 839 324 839 l 328 839 q 335 840 331 839 q 342 844 338 841 q 343 847 343 846 q 345 850 344 849 q 347 858 347 853 q 347 864 349 860 q 346 867 347 866 q 344 870 345 869 q 338 874 342 874 q 331 874 334 876 q 325 872 327 874 q 317 868 319 870 q 308 865 315 867 q 302 863 305 863 q 298 863 299 863 q 288 863 291 863 q 283 866 286 865 q 279 870 281 867 q 273 880 274 874 q 272 890 272 886 q 276 900 274 897 q 281 909 277 903 q 289 913 285 913 q 296 916 292 916 q 304 917 303 917 q 311 917 309 917 l 310 913 q 308 906 310 910 q 303 903 306 903 m 344 900 q 341 906 343 903 q 339 913 340 909 q 335 925 335 919 q 335 932 335 928 q 335 938 335 935 q 338 945 337 942 q 340 951 339 948 q 343 956 342 954 q 347 962 345 958 q 358 970 351 966 q 369 976 363 975 q 383 978 376 978 q 396 978 389 981 q 401 977 399 978 q 407 974 403 976 q 413 971 410 973 q 419 967 416 969 q 423 963 422 965 q 428 957 425 960 q 431 951 429 954 q 433 945 433 949 q 436 933 436 939 q 436 919 438 926 q 434 913 435 916 q 432 907 433 910 q 424 896 428 900 q 420 891 422 894 q 415 888 418 889 q 397 880 405 881 q 376 880 386 877 q 367 882 372 881 q 358 886 363 884 q 344 900 350 892 m 356 908 q 366 898 359 901 q 379 893 372 894 q 394 893 386 891 q 406 899 401 894 q 417 909 414 903 q 420 915 419 913 q 422 922 421 918 q 422 937 423 929 q 420 943 421 940 q 416 949 419 946 q 406 960 413 956 q 393 965 399 965 q 379 965 385 967 q 365 959 372 964 q 355 949 359 955 q 352 942 353 945 q 349 935 351 939 q 349 922 348 929 q 352 915 351 918 q 356 908 353 912 m 474 924 l 460 918 l 423 1010 l 433 1014 q 438 1015 435 1015 q 442 1014 442 1015 l 518 965 l 519 965 q 519 963 519 963 q 521 962 521 963 q 522 962 521 962 l 490 1038 l 503 1042 l 540 951 l 531 947 q 525 947 528 947 q 519 947 522 947 l 446 996 q 444 996 444 996 q 443 997 444 997 q 442 999 443 998 q 442 999 442 999 l 442 1001 l 474 924 m 563 1058 l 576 1060 l 638 972 l 630 970 q 627 970 628 969 q 624 970 626 970 q 619 974 621 971 l 610 988 l 560 978 l 557 962 q 553 956 556 958 q 551 954 553 955 q 548 953 549 953 l 540 952 l 563 1058 m 573 1038 l 563 993 l 601 1001 l 576 1038 q 574 1040 574 1039 q 573 1043 574 1042 l 573 1040 l 573 1038 m 638 969 l 635 1069 l 648 1069 l 651 984 l 695 986 l 696 972 l 638 969 m 750 1006 q 750 995 749 1000 q 752 991 751 993 q 754 987 753 988 q 757 983 756 985 q 760 980 759 981 q 766 977 763 978 q 771 975 768 976 q 781 976 778 975 q 786 977 784 976 q 790 980 788 978 q 797 987 794 983 q 800 991 799 989 q 802 997 801 994 l 812 1056 l 826 1054 l 814 994 q 813 989 813 992 q 811 984 813 987 q 809 979 810 981 q 806 975 808 977 q 802 972 804 974 q 798 969 799 970 q 790 965 794 966 q 784 963 787 963 q 779 962 781 963 q 769 963 772 962 q 763 964 765 963 q 758 966 761 965 q 754 968 756 967 q 750 971 752 969 q 742 978 745 974 q 738 988 741 982 q 736 998 736 992 q 737 1008 736 1005 l 747 1067 l 760 1065 l 750 1006 m 878 1018 q 877 1020 878 1019 q 875 1023 876 1022 q 872 1024 874 1024 q 869 1025 871 1024 q 863 1026 867 1026 l 858 1026 q 853 1024 856 1024 q 851 1019 851 1022 q 851 1014 849 1016 q 852 1010 851 1011 q 853 1007 853 1008 q 856 1005 854 1006 q 863 1000 858 1003 q 865 998 864 999 q 867 996 865 997 q 869 994 868 995 q 871 992 869 993 q 873 991 872 992 q 875 989 874 990 q 876 987 876 988 q 878 985 876 986 q 881 962 885 974 q 877 956 879 958 q 874 951 876 953 q 868 947 871 949 q 863 944 866 945 q 851 942 858 942 q 845 942 848 942 q 839 943 842 942 q 820 959 826 949 q 819 961 820 960 q 817 963 818 962 q 817 965 817 964 q 817 967 817 965 q 816 969 816 967 l 816 972 l 820 973 q 825 972 823 973 q 831 967 829 971 l 831 966 q 833 963 833 964 q 835 960 834 962 q 840 958 838 959 q 843 956 841 957 q 846 956 844 956 q 849 956 848 956 q 853 956 851 956 q 857 956 856 956 q 863 960 862 958 q 867 966 867 963 q 867 973 869 970 q 867 976 867 974 q 865 978 866 977 q 863 981 864 980 q 860 984 862 983 q 858 986 859 985 q 853 988 856 987 q 850 992 852 990 q 847 996 848 994 q 843 999 844 997 q 840 1004 842 1001 q 838 1008 839 1006 q 837 1012 837 1010 q 839 1024 835 1017 q 844 1033 840 1029 q 853 1038 849 1038 q 859 1040 856 1040 q 863 1040 861 1040 q 869 1040 866 1040 q 875 1038 872 1039 q 881 1034 878 1038 q 888 1028 885 1031 q 890 1025 889 1026 q 892 1022 892 1024 q 893 1019 893 1020 q 894 1016 894 1017 l 890 1014 q 883 1014 887 1013 q 878 1018 880 1017 m 930 903 l 876 931 l 920 1019 l 974 991 l 969 978 l 927 1001 l 914 975 l 948 958 l 941 945 l 907 963 l 894 938 l 936 915 l 930 903 m 992 922 q 1003 931 997 929 q 1008 935 1005 933 q 1013 938 1010 936 q 1020 939 1017 939 q 1026 940 1023 939 q 1033 940 1030 940 q 1040 939 1036 940 q 1052 935 1046 938 q 1063 927 1057 933 q 1068 923 1065 925 q 1072 917 1071 920 q 1077 906 1076 912 q 1080 893 1080 900 q 1080 886 1080 890 q 1079 880 1080 883 q 1077 873 1078 876 q 1075 867 1076 870 q 1067 857 1072 860 q 1063 851 1065 853 q 1058 847 1060 849 q 1051 844 1054 845 q 1045 842 1049 842 q 1033 840 1039 840 q 1026 840 1029 840 q 1019 840 1023 840 q 1014 842 1017 841 q 1008 844 1011 842 q 1002 848 1004 846 q 996 851 999 849 q 989 859 992 856 q 984 867 986 863 q 981 877 983 872 q 979 886 980 881 q 982 906 979 897 q 992 922 985 916 m 1003 914 q 994 901 997 908 q 993 894 993 898 q 992 888 992 891 q 993 880 992 883 q 996 874 994 877 q 1000 867 999 870 q 1005 862 1002 864 q 1011 858 1008 859 q 1018 854 1015 856 q 1031 853 1026 852 q 1045 857 1040 853 q 1052 860 1049 858 q 1058 865 1055 863 q 1064 878 1063 871 q 1066 892 1067 884 q 1065 899 1066 895 q 1063 906 1065 902 q 1059 911 1061 909 q 1054 917 1057 914 q 1048 921 1051 919 q 1041 924 1044 923 q 1034 926 1038 926 q 1027 926 1031 926 q 1020 925 1024 926 q 1013 922 1017 924 q 1003 914 1007 919 m 1046 804 l 1038 814 l 1117 874 l 1124 865 q 1126 860 1126 862 l 1126 854 l 1097 771 q 1097 770 1097 770 q 1097 769 1097 770 q 1096 769 1097 769 q 1095 768 1095 769 l 1094 767 l 1160 815 l 1169 805 l 1090 746 l 1083 754 q 1080 759 1081 756 q 1081 764 1080 763 l 1109 849 q 1110 849 1109 849 q 1110 850 1110 849 l 1111 851 q 1113 853 1112 852 l 1046 804 m 1094 734 l 1183 779 l 1188 768 l 1113 728 l 1133 691 l 1120 684 l 1094 734 m 1131 656 l 1126 668 l 1165 683 q 1167 684 1167 684 q 1169 685 1169 685 q 1170 687 1169 687 q 1170 688 1170 688 q 1172 690 1172 688 l 1205 740 l 1207 732 q 1209 727 1208 729 q 1209 724 1209 725 q 1208 720 1208 722 q 1206 717 1207 719 l 1185 685 l 1183 683 l 1183 683 l 1184 683 q 1186 683 1184 683 l 1224 672 q 1227 670 1225 671 q 1230 668 1228 669 q 1233 663 1233 667 l 1237 653 l 1180 670 q 1178 671 1178 670 l 1175 671 l 1172 671 q 1169 670 1170 671 l 1131 656 z "},"5":{"ha":1385,"x_min":133,"x_max":1237,"o":"m 927 226 q 815 160 877 185 q 683 135 753 135 q 552 160 613 135 q 442 226 492 185 l 927 226 m 413 254 q 347 365 370 303 q 323 497 323 426 q 344 620 323 563 q 404 726 365 678 l 883 726 l 413 254 m 440 766 q 551 834 490 810 q 683 859 613 859 q 815 834 753 859 q 923 766 876 809 l 440 766 m 1044 497 q 1023 372 1044 430 q 963 265 1001 314 l 482 265 l 952 740 q 1021 623 998 683 q 1044 497 1044 563 m 800 76 q 743 65 772 69 q 683 60 715 60 q 565 76 622 60 q 460 122 508 92 q 372 191 411 151 q 305 280 333 231 q 262 383 277 328 q 247 497 247 438 q 263 615 247 558 q 308 721 278 672 q 377 809 337 769 q 466 876 417 849 q 570 919 515 904 q 683 935 625 935 q 858 899 778 935 q 996 802 938 863 q 1087 662 1054 741 q 1119 497 1119 583 q 1094 350 1119 418 q 1026 228 1069 282 q 925 135 983 174 q 800 76 867 97 m 789 883 q 739 895 765 891 q 683 899 713 899 q 574 884 626 899 q 477 842 522 869 q 397 778 433 815 q 336 696 361 740 q 297 601 310 651 q 283 497 283 550 q 297 392 283 442 q 337 296 311 341 q 399 214 363 251 q 479 150 435 177 q 575 109 524 124 q 683 94 627 94 q 839 125 766 94 q 967 211 913 157 q 1053 339 1022 266 q 1085 497 1085 413 q 1061 634 1085 570 q 997 747 1038 697 q 903 832 957 797 q 789 883 849 867 m 205 221 l 227 183 l 208 172 l 168 238 l 177 243 q 188 246 183 247 l 257 239 l 235 276 l 255 287 l 293 221 l 284 216 q 279 215 280 215 q 274 213 277 213 l 205 221 m 265 100 l 223 151 l 299 215 l 342 163 l 324 149 l 296 181 l 285 172 l 307 147 l 290 131 l 268 157 l 255 147 l 282 115 l 265 100 m 331 140 l 347 157 l 406 106 l 392 90 l 371 108 l 322 49 l 304 64 l 353 122 l 331 140 m 428 94 l 444 83 l 431 -23 l 417 -15 q 414 -12 416 -13 q 412 -9 412 -10 q 410 -5 410 -6 l 410 -1 l 412 11 l 379 31 l 369 24 q 368 23 369 23 q 366 22 367 23 l 362 22 q 359 22 360 22 q 358 22 358 22 q 355 23 356 23 q 353 24 353 23 l 340 31 l 428 94 m 419 60 q 418 59 418 59 q 416 58 415 58 q 415 56 415 56 q 415 56 415 56 l 400 45 l 415 35 l 417 54 q 417 55 417 55 q 418 56 418 56 q 418 58 418 58 q 419 58 419 58 q 419 59 419 59 q 419 60 419 60 m 522 6 l 513 -16 l 480 -3 l 467 -37 l 444 -28 l 481 63 l 542 40 l 535 19 l 494 33 l 489 19 l 522 6 m 529 -9 q 533 4 530 -3 q 541 14 538 8 q 545 19 543 17 q 550 23 548 21 q 556 26 553 25 q 563 28 559 27 q 569 30 565 30 q 576 31 572 31 q 582 31 579 31 q 589 30 585 31 q 595 28 592 28 q 601 26 599 27 q 613 19 608 22 q 617 14 615 16 q 621 9 619 12 q 626 -3 626 3 q 628 -10 628 -7 q 630 -16 629 -12 q 630 -23 630 -19 q 629 -29 630 -26 q 624 -42 628 -36 q 620 -48 622 -45 q 617 -53 619 -50 q 608 -61 614 -58 q 601 -64 604 -62 q 595 -67 599 -65 q 589 -69 592 -68 q 583 -69 586 -69 q 576 -69 579 -69 q 568 -68 573 -69 q 562 -67 565 -67 q 556 -65 560 -66 q 551 -61 553 -63 q 545 -57 548 -60 q 541 -52 542 -55 q 537 -47 539 -49 q 534 -42 535 -44 q 531 -36 532 -39 q 528 -23 529 -28 q 528 -16 528 -19 q 529 -9 528 -12 m 553 -14 q 553 -25 552 -20 q 554 -30 553 -27 q 556 -35 555 -32 q 563 -42 559 -39 q 568 -44 565 -44 q 574 -46 571 -45 q 584 -46 578 -48 q 594 -43 590 -45 q 601 -35 599 -39 q 604 -30 603 -32 q 606 -25 606 -27 q 606 -13 608 -19 q 601 -4 606 -10 q 598 0 600 -1 q 594 4 597 2 q 590 6 592 6 q 584 8 588 7 q 574 8 578 10 q 568 6 571 7 q 563 4 566 6 q 560 1 562 3 q 557 -4 558 -1 q 553 -14 554 -7 m 727 -78 l 706 -79 l 661 -13 l 662 -79 l 638 -80 l 637 19 l 647 19 l 656 19 q 663 19 661 19 q 666 15 665 17 l 701 -34 q 701 -35 701 -35 q 702 -37 701 -36 q 703 -39 702 -38 q 703 -40 703 -39 q 704 -43 703 -42 l 702 20 l 726 20 l 727 -78 m 738 -1 l 734 22 l 812 35 l 816 14 l 789 8 l 803 -66 l 781 -70 l 767 4 l 738 -1 m 856 28 q 851 27 853 28 q 849 26 849 27 q 848 23 848 23 q 849 22 848 22 q 851 19 849 19 q 852 18 851 19 q 853 17 852 17 l 860 17 l 867 17 q 874 17 871 17 q 880 17 876 17 q 884 15 883 15 q 889 13 886 15 q 897 7 894 10 q 902 -3 901 4 q 904 -15 905 -9 q 903 -22 904 -19 q 900 -28 901 -24 q 897 -33 899 -31 q 892 -39 895 -35 q 885 -42 888 -40 q 879 -45 883 -44 q 874 -47 876 -46 q 867 -47 871 -47 q 857 -46 863 -49 q 847 -42 851 -45 q 842 -39 844 -41 q 839 -35 840 -37 l 844 -28 q 847 -26 845 -26 q 849 -24 849 -24 q 856 -23 851 -23 q 859 -23 858 -23 q 861 -24 860 -24 q 864 -24 863 -24 q 866 -25 865 -25 q 871 -24 869 -25 q 874 -23 873 -24 q 876 -22 874 -23 l 879 -19 q 881 -14 881 -17 q 881 -10 881 -14 l 878 -8 q 875 -7 878 -7 q 872 -6 874 -6 q 869 -6 871 -6 l 863 -6 q 858 -6 860 -6 q 852 -5 856 -6 q 842 -3 848 -5 q 837 -1 840 -2 q 833 2 835 1 q 826 13 830 6 q 825 19 825 16 q 825 24 825 22 q 826 30 826 28 q 829 35 827 33 q 832 41 831 39 q 837 44 834 42 q 847 50 842 48 q 851 51 849 51 q 856 52 853 52 q 860 51 858 52 q 865 51 862 51 q 868 50 866 50 q 874 48 870 49 q 877 46 875 47 q 880 44 878 46 l 876 37 q 874 32 875 35 q 870 31 872 31 q 867 31 869 31 q 865 30 867 30 l 861 30 l 858 30 q 856 28 856 30 m 918 -14 q 917 -11 918 -12 q 917 -9 917 -10 q 918 -4 917 -6 q 920 1 918 -3 q 924 4 921 3 q 927 5 926 5 q 930 6 928 5 q 932 5 931 6 q 935 5 933 5 q 939 2 938 3 q 942 -3 941 1 q 945 -8 945 -6 q 944 -12 945 -11 q 942 -15 942 -14 q 941 -17 942 -16 q 939 -19 940 -18 q 937 -21 938 -19 q 932 -22 933 -22 q 927 -22 928 -22 q 921 -19 924 -22 q 918 -14 919 -17 m 954 46 q 962 38 956 42 q 966 35 964 36 q 972 33 969 35 q 982 33 976 32 q 987 35 985 33 q 992 38 989 36 q 995 41 994 39 q 999 44 997 42 l 1003 50 q 1008 58 1004 55 q 1010 59 1009 59 q 1013 60 1012 59 l 1019 60 l 1027 58 q 1026 52 1026 55 q 1024 46 1025 49 q 1019 35 1023 42 q 1013 26 1017 30 q 1005 19 1008 22 q 998 16 1001 17 q 992 13 995 14 q 979 10 986 10 q 973 10 976 10 q 966 11 969 10 q 961 13 964 13 q 954 15 958 13 q 949 18 951 17 q 944 23 946 20 q 939 27 941 25 q 934 32 936 29 q 931 39 933 35 q 928 45 930 42 q 927 51 928 48 q 926 58 927 54 q 926 64 926 61 q 927 70 926 67 q 931 83 928 76 q 934 88 933 85 q 938 94 935 91 q 943 99 940 97 q 949 103 946 101 q 958 108 954 106 q 964 109 961 109 q 969 111 966 110 l 981 111 q 988 110 985 111 q 992 109 990 110 l 992 100 q 990 95 990 97 q 988 93 988 94 q 985 91 987 92 q 976 88 980 88 q 969 87 972 88 q 960 84 965 86 q 953 76 956 81 q 950 67 950 71 q 950 56 949 61 q 954 46 951 49 m 1013 85 q 1009 90 1010 88 q 1005 96 1007 92 q 1002 102 1003 99 q 1001 108 1001 105 q 999 115 999 112 q 999 121 999 117 q 1000 127 999 124 q 1001 134 1000 131 q 1003 140 1001 138 q 1006 147 1004 143 q 1009 151 1008 149 q 1014 156 1011 154 q 1019 161 1017 159 q 1025 165 1022 163 q 1031 168 1028 167 q 1037 169 1033 169 q 1043 171 1040 171 q 1049 171 1046 171 q 1056 171 1053 171 q 1063 169 1059 171 q 1069 168 1066 169 q 1075 165 1072 167 q 1081 161 1078 163 q 1086 156 1083 159 q 1090 151 1088 153 q 1094 145 1092 149 q 1096 140 1095 142 q 1099 133 1097 137 q 1099 127 1099 130 q 1099 120 1099 124 q 1098 108 1099 115 q 1096 102 1097 105 q 1093 96 1094 99 q 1085 85 1090 90 q 1080 80 1082 82 q 1074 77 1077 78 q 1068 74 1071 76 q 1062 72 1065 73 q 1049 70 1056 70 q 1036 72 1042 70 q 1030 74 1033 73 q 1024 77 1027 76 q 1019 81 1022 78 q 1013 85 1016 83 m 1030 101 q 1034 98 1032 99 q 1040 95 1037 97 q 1049 94 1044 94 q 1060 95 1057 94 q 1065 98 1063 96 q 1069 101 1067 99 q 1075 110 1074 106 q 1077 120 1077 115 q 1075 131 1077 125 q 1069 140 1074 135 q 1060 147 1065 144 q 1049 149 1056 149 q 1044 148 1047 149 q 1040 147 1042 148 q 1034 144 1037 146 q 1030 140 1032 143 q 1024 131 1026 138 q 1022 126 1022 129 q 1022 121 1022 124 q 1024 111 1022 114 q 1026 106 1025 108 q 1030 101 1028 103 m 1190 224 l 1178 203 l 1138 229 l 1166 187 l 1156 170 l 1106 179 l 1144 153 l 1131 134 l 1049 188 l 1058 201 q 1064 207 1060 205 q 1068 208 1066 208 q 1072 208 1071 208 l 1131 199 l 1098 247 q 1096 252 1097 250 q 1095 256 1095 253 q 1096 260 1095 258 q 1098 264 1097 262 l 1107 277 l 1190 224 m 231 645 l 226 632 l 133 667 l 146 699 q 151 710 148 706 q 162 717 156 716 q 167 719 165 719 q 173 720 169 720 q 179 720 176 720 q 185 719 182 719 q 195 711 192 716 q 200 707 199 710 q 202 702 201 705 q 204 696 203 699 q 206 691 205 693 q 203 678 206 685 l 197 658 l 231 645 m 191 683 q 191 686 191 685 q 192 690 192 688 q 191 693 192 692 q 190 697 191 694 q 189 699 190 698 q 186 702 188 701 q 181 706 184 704 q 177 706 179 706 q 174 706 175 706 q 170 706 172 706 q 167 705 169 706 q 165 703 166 703 q 162 701 163 703 q 158 695 159 697 l 151 674 l 183 663 l 191 683 m 281 753 l 251 699 l 165 747 l 194 800 l 206 793 l 183 752 l 208 738 l 227 772 l 239 766 l 220 733 l 246 717 l 269 759 l 281 753 m 294 771 l 286 760 l 208 820 l 228 849 q 233 852 231 850 q 238 856 235 854 q 243 858 240 858 q 248 860 245 859 q 253 860 251 860 q 259 859 256 860 q 269 853 265 858 q 273 850 272 852 q 276 847 274 849 q 278 843 277 845 q 280 840 279 841 q 281 834 281 836 q 281 830 281 832 q 279 822 281 826 l 331 820 l 326 813 q 321 808 324 810 q 317 807 319 808 q 315 806 316 806 l 271 808 l 262 796 l 294 771 m 226 823 l 251 804 l 264 822 q 266 824 265 823 q 267 827 266 826 l 267 833 q 267 835 267 834 q 265 839 266 837 q 261 842 263 842 q 256 845 258 845 q 250 846 254 846 q 247 845 249 845 q 244 844 246 845 q 240 840 242 843 l 226 823 m 303 903 q 299 903 300 903 q 296 902 297 903 q 292 899 294 901 q 288 894 290 897 q 286 889 286 892 l 286 884 q 289 880 287 882 q 293 876 291 877 l 297 876 q 303 878 299 876 q 307 880 306 879 q 312 881 309 880 q 314 883 313 882 q 316 883 315 883 q 322 885 317 884 q 326 888 324 885 q 328 888 327 888 q 331 888 329 888 q 353 880 344 890 q 360 869 360 876 q 361 863 361 865 q 362 858 362 861 q 360 851 361 854 q 358 845 360 848 q 355 839 357 842 q 351 835 352 837 q 329 824 342 826 l 325 824 q 321 826 323 826 q 318 826 319 826 q 317 826 317 826 q 316 827 316 826 q 315 827 316 827 l 316 831 q 317 833 317 832 q 318 835 317 834 q 326 839 324 839 l 328 839 q 335 840 331 839 q 342 844 338 841 q 343 847 343 846 q 345 850 344 849 q 347 858 347 853 q 347 864 349 860 q 346 867 347 866 q 344 870 345 869 q 338 874 342 874 q 331 874 334 876 q 325 872 327 874 q 317 868 319 870 q 308 865 315 867 q 302 863 305 863 q 298 863 299 863 q 288 863 291 863 q 283 866 286 865 q 279 870 281 867 q 273 880 274 874 q 272 890 272 886 q 276 900 274 897 q 281 909 277 903 q 289 913 285 913 q 296 916 292 916 q 304 917 303 917 q 311 917 309 917 l 310 913 q 308 906 310 910 q 303 903 306 903 m 344 900 q 341 906 343 903 q 339 913 340 909 q 335 925 335 919 q 335 932 335 928 q 335 938 335 935 q 338 945 337 942 q 340 951 339 948 q 343 956 342 954 q 347 962 345 958 q 358 970 351 966 q 369 976 363 975 q 383 978 376 978 q 396 978 389 981 q 401 977 399 978 q 407 974 403 976 q 413 971 410 973 q 419 967 416 969 q 423 963 422 965 q 428 957 425 960 q 431 951 429 954 q 433 945 433 949 q 436 933 436 939 q 436 919 438 926 q 434 913 435 916 q 432 907 433 910 q 424 896 428 900 q 420 891 422 894 q 415 888 418 889 q 397 880 405 881 q 376 880 386 877 q 367 882 372 881 q 358 886 363 884 q 344 900 350 892 m 356 908 q 366 898 359 901 q 379 893 372 894 q 394 893 386 891 q 406 899 401 894 q 417 909 414 903 q 420 915 419 913 q 422 922 421 918 q 422 937 423 929 q 420 943 421 940 q 416 949 419 946 q 406 960 413 956 q 393 965 399 965 q 379 965 385 967 q 365 959 372 964 q 355 949 359 955 q 352 942 353 945 q 349 935 351 939 q 349 922 348 929 q 352 915 351 918 q 356 908 353 912 m 474 924 l 460 918 l 423 1010 l 433 1014 q 438 1015 435 1015 q 442 1014 442 1015 l 518 965 l 519 965 q 519 963 519 963 q 521 962 521 963 q 522 962 521 962 l 490 1038 l 503 1042 l 540 951 l 531 947 q 525 947 528 947 q 519 947 522 947 l 446 996 q 444 996 444 996 q 443 997 444 997 q 442 999 443 998 q 442 999 442 999 l 442 1001 l 474 924 m 563 1058 l 576 1060 l 638 972 l 630 970 q 627 970 628 969 q 624 970 626 970 q 619 974 621 971 l 610 988 l 560 978 l 557 962 q 553 956 556 958 q 551 954 553 955 q 548 953 549 953 l 540 952 l 563 1058 m 573 1038 l 563 993 l 601 1001 l 576 1038 q 574 1040 574 1039 q 573 1043 574 1042 l 573 1040 l 573 1038 m 638 969 l 635 1069 l 648 1069 l 651 984 l 695 986 l 696 972 l 638 969 m 750 1006 q 750 995 749 1000 q 752 991 751 993 q 754 987 753 988 q 757 983 756 985 q 760 980 759 981 q 766 977 763 978 q 771 975 768 976 q 781 976 778 975 q 786 977 784 976 q 790 980 788 978 q 797 987 794 983 q 800 991 799 989 q 802 997 801 994 l 812 1056 l 826 1054 l 814 994 q 813 989 813 992 q 811 984 813 987 q 809 979 810 981 q 806 975 808 977 q 802 972 804 974 q 798 969 799 970 q 790 965 794 966 q 784 963 787 963 q 779 962 781 963 q 769 963 772 962 q 763 964 765 963 q 758 966 761 965 q 754 968 756 967 q 750 971 752 969 q 742 978 745 974 q 738 988 741 982 q 736 998 736 992 q 737 1008 736 1005 l 747 1067 l 760 1065 l 750 1006 m 878 1018 q 877 1020 878 1019 q 875 1023 876 1022 q 872 1024 874 1024 q 869 1025 871 1024 q 863 1026 867 1026 l 858 1026 q 853 1024 856 1024 q 851 1019 851 1022 q 851 1014 849 1016 q 852 1010 851 1011 q 853 1007 853 1008 q 856 1005 854 1006 q 863 1000 858 1003 q 865 998 864 999 q 867 996 865 997 q 869 994 868 995 q 871 992 869 993 q 873 991 872 992 q 875 989 874 990 q 876 987 876 988 q 878 985 876 986 q 881 962 885 974 q 877 956 879 958 q 874 951 876 953 q 868 947 871 949 q 863 944 866 945 q 851 942 858 942 q 845 942 848 942 q 839 943 842 942 q 820 959 826 949 q 819 961 820 960 q 817 963 818 962 q 817 965 817 964 q 817 967 817 965 q 816 969 816 967 l 816 972 l 820 973 q 825 972 823 973 q 831 967 829 971 l 831 966 q 833 963 833 964 q 835 960 834 962 q 840 958 838 959 q 843 956 841 957 q 846 956 844 956 q 849 956 848 956 q 853 956 851 956 q 857 956 856 956 q 863 960 862 958 q 867 966 867 963 q 867 973 869 970 q 867 976 867 974 q 865 978 866 977 q 863 981 864 980 q 860 984 862 983 q 858 986 859 985 q 853 988 856 987 q 850 992 852 990 q 847 996 848 994 q 843 999 844 997 q 840 1004 842 1001 q 838 1008 839 1006 q 837 1012 837 1010 q 839 1024 835 1017 q 844 1033 840 1029 q 853 1038 849 1038 q 859 1040 856 1040 q 863 1040 861 1040 q 869 1040 866 1040 q 875 1038 872 1039 q 881 1034 878 1038 q 888 1028 885 1031 q 890 1025 889 1026 q 892 1022 892 1024 q 893 1019 893 1020 q 894 1016 894 1017 l 890 1014 q 883 1014 887 1013 q 878 1018 880 1017 m 930 903 l 876 931 l 920 1019 l 974 991 l 969 978 l 927 1001 l 914 975 l 948 958 l 941 945 l 907 963 l 894 938 l 936 915 l 930 903 m 992 922 q 1003 931 997 929 q 1008 935 1005 933 q 1013 938 1010 936 q 1020 939 1017 939 q 1026 940 1023 939 q 1033 940 1030 940 q 1040 939 1036 940 q 1052 935 1046 938 q 1063 927 1057 933 q 1068 923 1065 925 q 1072 917 1071 920 q 1077 906 1076 912 q 1080 893 1080 900 q 1080 886 1080 890 q 1079 880 1080 883 q 1077 873 1078 876 q 1075 867 1076 870 q 1067 857 1072 860 q 1063 851 1065 853 q 1058 847 1060 849 q 1051 844 1054 845 q 1045 842 1049 842 q 1033 840 1039 840 q 1026 840 1029 840 q 1019 840 1023 840 q 1014 842 1017 841 q 1008 844 1011 842 q 1002 848 1004 846 q 996 851 999 849 q 989 859 992 856 q 984 867 986 863 q 981 877 983 872 q 979 886 980 881 q 982 906 979 897 q 992 922 985 916 m 1003 914 q 994 901 997 908 q 993 894 993 898 q 992 888 992 891 q 993 880 992 883 q 996 874 994 877 q 1000 867 999 870 q 1005 862 1002 864 q 1011 858 1008 859 q 1018 854 1015 856 q 1031 853 1026 852 q 1045 857 1040 853 q 1052 860 1049 858 q 1058 865 1055 863 q 1064 878 1063 871 q 1066 892 1067 884 q 1065 899 1066 895 q 1063 906 1065 902 q 1059 911 1061 909 q 1054 917 1057 914 q 1048 921 1051 919 q 1041 924 1044 923 q 1034 926 1038 926 q 1027 926 1031 926 q 1020 925 1024 926 q 1013 922 1017 924 q 1003 914 1007 919 m 1046 804 l 1038 814 l 1117 874 l 1124 865 q 1126 860 1126 862 l 1126 854 l 1097 771 q 1097 770 1097 770 q 1097 769 1097 770 q 1096 769 1097 769 q 1095 768 1095 769 l 1094 767 l 1160 815 l 1169 805 l 1090 746 l 1083 754 q 1080 759 1081 756 q 1081 764 1080 763 l 1109 849 q 1110 849 1109 849 q 1110 850 1110 849 l 1111 851 q 1113 853 1112 852 l 1046 804 m 1094 734 l 1183 779 l 1188 768 l 1113 728 l 1133 691 l 1120 684 l 1094 734 m 1131 656 l 1126 668 l 1165 683 q 1167 684 1167 684 q 1169 685 1169 685 q 1170 687 1169 687 q 1170 688 1170 688 q 1172 690 1172 688 l 1205 740 l 1207 732 q 1209 727 1208 729 q 1209 724 1209 725 q 1208 720 1208 722 q 1206 717 1207 719 l 1185 685 l 1183 683 l 1183 683 l 1184 683 q 1186 683 1184 683 l 1224 672 q 1227 670 1225 671 q 1230 668 1228 669 q 1233 663 1233 667 l 1237 653 l 1180 670 q 1178 671 1178 670 l 1175 671 l 1172 671 q 1169 670 1170 671 l 1131 656 z "},"6":{"ha":1385,"x_min":133,"x_max":1237,"o":"m 927 226 q 815 160 877 185 q 683 135 753 135 q 552 160 613 135 q 442 226 492 185 l 927 226 m 413 254 q 347 365 370 303 q 323 497 323 426 q 344 620 323 563 q 404 726 365 678 l 883 726 l 413 254 m 440 766 q 551 834 490 810 q 683 859 613 859 q 815 834 753 859 q 923 766 876 809 l 440 766 m 1044 497 q 1023 372 1044 430 q 963 265 1001 314 l 482 265 l 952 740 q 1021 623 998 683 q 1044 497 1044 563 m 800 76 q 743 65 772 69 q 683 60 715 60 q 565 76 622 60 q 460 122 508 92 q 372 191 411 151 q 305 280 333 231 q 262 383 277 328 q 247 497 247 438 q 263 615 247 558 q 308 721 278 672 q 377 809 337 769 q 466 876 417 849 q 570 919 515 904 q 683 935 625 935 q 858 899 778 935 q 996 802 938 863 q 1087 662 1054 741 q 1119 497 1119 583 q 1094 350 1119 418 q 1026 228 1069 282 q 925 135 983 174 q 800 76 867 97 m 789 883 q 739 895 765 891 q 683 899 713 899 q 574 884 626 899 q 477 842 522 869 q 397 778 433 815 q 336 696 361 740 q 297 601 310 651 q 283 497 283 550 q 297 392 283 442 q 337 296 311 341 q 399 214 363 251 q 479 150 435 177 q 575 109 524 124 q 683 94 627 94 q 839 125 766 94 q 967 211 913 157 q 1053 339 1022 266 q 1085 497 1085 413 q 1061 634 1085 570 q 997 747 1038 697 q 903 832 957 797 q 789 883 849 867 m 205 221 l 227 183 l 208 172 l 168 238 l 177 243 q 188 246 183 247 l 257 239 l 235 276 l 255 287 l 293 221 l 284 216 q 279 215 280 215 q 274 213 277 213 l 205 221 m 265 100 l 223 151 l 299 215 l 342 163 l 324 149 l 296 181 l 285 172 l 307 147 l 290 131 l 268 157 l 255 147 l 282 115 l 265 100 m 331 140 l 347 157 l 406 106 l 392 90 l 371 108 l 322 49 l 304 64 l 353 122 l 331 140 m 428 94 l 444 83 l 431 -23 l 417 -15 q 414 -12 416 -13 q 412 -9 412 -10 q 410 -5 410 -6 l 410 -1 l 412 11 l 379 31 l 369 24 q 368 23 369 23 q 366 22 367 23 l 362 22 q 359 22 360 22 q 358 22 358 22 q 355 23 356 23 q 353 24 353 23 l 340 31 l 428 94 m 419 60 q 418 59 418 59 q 416 58 415 58 q 415 56 415 56 q 415 56 415 56 l 400 45 l 415 35 l 417 54 q 417 55 417 55 q 418 56 418 56 q 418 58 418 58 q 419 58 419 58 q 419 59 419 59 q 419 60 419 60 m 522 6 l 513 -16 l 480 -3 l 467 -37 l 444 -28 l 481 63 l 542 40 l 535 19 l 494 33 l 489 19 l 522 6 m 529 -9 q 533 4 530 -3 q 541 14 538 8 q 545 19 543 17 q 550 23 548 21 q 556 26 553 25 q 563 28 559 27 q 569 30 565 30 q 576 31 572 31 q 582 31 579 31 q 589 30 585 31 q 595 28 592 28 q 601 26 599 27 q 613 19 608 22 q 617 14 615 16 q 621 9 619 12 q 626 -3 626 3 q 628 -10 628 -7 q 630 -16 629 -12 q 630 -23 630 -19 q 629 -29 630 -26 q 624 -42 628 -36 q 620 -48 622 -45 q 617 -53 619 -50 q 608 -61 614 -58 q 601 -64 604 -62 q 595 -67 599 -65 q 589 -69 592 -68 q 583 -69 586 -69 q 576 -69 579 -69 q 568 -68 573 -69 q 562 -67 565 -67 q 556 -65 560 -66 q 551 -61 553 -63 q 545 -57 548 -60 q 541 -52 542 -55 q 537 -47 539 -49 q 534 -42 535 -44 q 531 -36 532 -39 q 528 -23 529 -28 q 528 -16 528 -19 q 529 -9 528 -12 m 553 -14 q 553 -25 552 -20 q 554 -30 553 -27 q 556 -35 555 -32 q 563 -42 559 -39 q 568 -44 565 -44 q 574 -46 571 -45 q 584 -46 578 -48 q 594 -43 590 -45 q 601 -35 599 -39 q 604 -30 603 -32 q 606 -25 606 -27 q 606 -13 608 -19 q 601 -4 606 -10 q 598 0 600 -1 q 594 4 597 2 q 590 6 592 6 q 584 8 588 7 q 574 8 578 10 q 568 6 571 7 q 563 4 566 6 q 560 1 562 3 q 557 -4 558 -1 q 553 -14 554 -7 m 727 -78 l 706 -79 l 661 -13 l 662 -79 l 638 -80 l 637 19 l 647 19 l 656 19 q 663 19 661 19 q 666 15 665 17 l 701 -34 q 701 -35 701 -35 q 702 -37 701 -36 q 703 -39 702 -38 q 703 -40 703 -39 q 704 -43 703 -42 l 702 20 l 726 20 l 727 -78 m 738 -1 l 734 22 l 812 35 l 816 14 l 789 8 l 803 -66 l 781 -70 l 767 4 l 738 -1 m 856 28 q 851 27 853 28 q 849 26 849 27 q 848 23 848 23 q 849 22 848 22 q 851 19 849 19 q 852 18 851 19 q 853 17 852 17 l 860 17 l 867 17 q 874 17 871 17 q 880 17 876 17 q 884 15 883 15 q 889 13 886 15 q 897 7 894 10 q 902 -3 901 4 q 904 -15 905 -9 q 903 -22 904 -19 q 900 -28 901 -24 q 897 -33 899 -31 q 892 -39 895 -35 q 885 -42 888 -40 q 879 -45 883 -44 q 874 -47 876 -46 q 867 -47 871 -47 q 857 -46 863 -49 q 847 -42 851 -45 q 842 -39 844 -41 q 839 -35 840 -37 l 844 -28 q 847 -26 845 -26 q 849 -24 849 -24 q 856 -23 851 -23 q 859 -23 858 -23 q 861 -24 860 -24 q 864 -24 863 -24 q 866 -25 865 -25 q 871 -24 869 -25 q 874 -23 873 -24 q 876 -22 874 -23 l 879 -19 q 881 -14 881 -17 q 881 -10 881 -14 l 878 -8 q 875 -7 878 -7 q 872 -6 874 -6 q 869 -6 871 -6 l 863 -6 q 858 -6 860 -6 q 852 -5 856 -6 q 842 -3 848 -5 q 837 -1 840 -2 q 833 2 835 1 q 826 13 830 6 q 825 19 825 16 q 825 24 825 22 q 826 30 826 28 q 829 35 827 33 q 832 41 831 39 q 837 44 834 42 q 847 50 842 48 q 851 51 849 51 q 856 52 853 52 q 860 51 858 52 q 865 51 862 51 q 868 50 866 50 q 874 48 870 49 q 877 46 875 47 q 880 44 878 46 l 876 37 q 874 32 875 35 q 870 31 872 31 q 867 31 869 31 q 865 30 867 30 l 861 30 l 858 30 q 856 28 856 30 m 918 -14 q 917 -11 918 -12 q 917 -9 917 -10 q 918 -4 917 -6 q 920 1 918 -3 q 924 4 921 3 q 927 5 926 5 q 930 6 928 5 q 932 5 931 6 q 935 5 933 5 q 939 2 938 3 q 942 -3 941 1 q 945 -8 945 -6 q 944 -12 945 -11 q 942 -15 942 -14 q 941 -17 942 -16 q 939 -19 940 -18 q 937 -21 938 -19 q 932 -22 933 -22 q 927 -22 928 -22 q 921 -19 924 -22 q 918 -14 919 -17 m 954 46 q 962 38 956 42 q 966 35 964 36 q 972 33 969 35 q 982 33 976 32 q 987 35 985 33 q 992 38 989 36 q 995 41 994 39 q 999 44 997 42 l 1003 50 q 1008 58 1004 55 q 1010 59 1009 59 q 1013 60 1012 59 l 1019 60 l 1027 58 q 1026 52 1026 55 q 1024 46 1025 49 q 1019 35 1023 42 q 1013 26 1017 30 q 1005 19 1008 22 q 998 16 1001 17 q 992 13 995 14 q 979 10 986 10 q 973 10 976 10 q 966 11 969 10 q 961 13 964 13 q 954 15 958 13 q 949 18 951 17 q 944 23 946 20 q 939 27 941 25 q 934 32 936 29 q 931 39 933 35 q 928 45 930 42 q 927 51 928 48 q 926 58 927 54 q 926 64 926 61 q 927 70 926 67 q 931 83 928 76 q 934 88 933 85 q 938 94 935 91 q 943 99 940 97 q 949 103 946 101 q 958 108 954 106 q 964 109 961 109 q 969 111 966 110 l 981 111 q 988 110 985 111 q 992 109 990 110 l 992 100 q 990 95 990 97 q 988 93 988 94 q 985 91 987 92 q 976 88 980 88 q 969 87 972 88 q 960 84 965 86 q 953 76 956 81 q 950 67 950 71 q 950 56 949 61 q 954 46 951 49 m 1013 85 q 1009 90 1010 88 q 1005 96 1007 92 q 1002 102 1003 99 q 1001 108 1001 105 q 999 115 999 112 q 999 121 999 117 q 1000 127 999 124 q 1001 134 1000 131 q 1003 140 1001 138 q 1006 147 1004 143 q 1009 151 1008 149 q 1014 156 1011 154 q 1019 161 1017 159 q 1025 165 1022 163 q 1031 168 1028 167 q 1037 169 1033 169 q 1043 171 1040 171 q 1049 171 1046 171 q 1056 171 1053 171 q 1063 169 1059 171 q 1069 168 1066 169 q 1075 165 1072 167 q 1081 161 1078 163 q 1086 156 1083 159 q 1090 151 1088 153 q 1094 145 1092 149 q 1096 140 1095 142 q 1099 133 1097 137 q 1099 127 1099 130 q 1099 120 1099 124 q 1098 108 1099 115 q 1096 102 1097 105 q 1093 96 1094 99 q 1085 85 1090 90 q 1080 80 1082 82 q 1074 77 1077 78 q 1068 74 1071 76 q 1062 72 1065 73 q 1049 70 1056 70 q 1036 72 1042 70 q 1030 74 1033 73 q 1024 77 1027 76 q 1019 81 1022 78 q 1013 85 1016 83 m 1030 101 q 1034 98 1032 99 q 1040 95 1037 97 q 1049 94 1044 94 q 1060 95 1057 94 q 1065 98 1063 96 q 1069 101 1067 99 q 1075 110 1074 106 q 1077 120 1077 115 q 1075 131 1077 125 q 1069 140 1074 135 q 1060 147 1065 144 q 1049 149 1056 149 q 1044 148 1047 149 q 1040 147 1042 148 q 1034 144 1037 146 q 1030 140 1032 143 q 1024 131 1026 138 q 1022 126 1022 129 q 1022 121 1022 124 q 1024 111 1022 114 q 1026 106 1025 108 q 1030 101 1028 103 m 1190 224 l 1178 203 l 1138 229 l 1166 187 l 1156 170 l 1106 179 l 1144 153 l 1131 134 l 1049 188 l 1058 201 q 1064 207 1060 205 q 1068 208 1066 208 q 1072 208 1071 208 l 1131 199 l 1098 247 q 1096 252 1097 250 q 1095 256 1095 253 q 1096 260 1095 258 q 1098 264 1097 262 l 1107 277 l 1190 224 m 231 645 l 226 632 l 133 667 l 146 699 q 151 710 148 706 q 162 717 156 716 q 167 719 165 719 q 173 720 169 720 q 179 720 176 720 q 185 719 182 719 q 195 711 192 716 q 200 707 199 710 q 202 702 201 705 q 204 696 203 699 q 206 691 205 693 q 203 678 206 685 l 197 658 l 231 645 m 191 683 q 191 686 191 685 q 192 690 192 688 q 191 693 192 692 q 190 697 191 694 q 189 699 190 698 q 186 702 188 701 q 181 706 184 704 q 177 706 179 706 q 174 706 175 706 q 170 706 172 706 q 167 705 169 706 q 165 703 166 703 q 162 701 163 703 q 158 695 159 697 l 151 674 l 183 663 l 191 683 m 281 753 l 251 699 l 165 747 l 194 800 l 206 793 l 183 752 l 208 738 l 227 772 l 239 766 l 220 733 l 246 717 l 269 759 l 281 753 m 294 771 l 286 760 l 208 820 l 228 849 q 233 852 231 850 q 238 856 235 854 q 243 858 240 858 q 248 860 245 859 q 253 860 251 860 q 259 859 256 860 q 269 853 265 858 q 273 850 272 852 q 276 847 274 849 q 278 843 277 845 q 280 840 279 841 q 281 834 281 836 q 281 830 281 832 q 279 822 281 826 l 331 820 l 326 813 q 321 808 324 810 q 317 807 319 808 q 315 806 316 806 l 271 808 l 262 796 l 294 771 m 226 823 l 251 804 l 264 822 q 266 824 265 823 q 267 827 266 826 l 267 833 q 267 835 267 834 q 265 839 266 837 q 261 842 263 842 q 256 845 258 845 q 250 846 254 846 q 247 845 249 845 q 244 844 246 845 q 240 840 242 843 l 226 823 m 303 903 q 299 903 300 903 q 296 902 297 903 q 292 899 294 901 q 288 894 290 897 q 286 889 286 892 l 286 884 q 289 880 287 882 q 293 876 291 877 l 297 876 q 303 878 299 876 q 307 880 306 879 q 312 881 309 880 q 314 883 313 882 q 316 883 315 883 q 322 885 317 884 q 326 888 324 885 q 328 888 327 888 q 331 888 329 888 q 353 880 344 890 q 360 869 360 876 q 361 863 361 865 q 362 858 362 861 q 360 851 361 854 q 358 845 360 848 q 355 839 357 842 q 351 835 352 837 q 329 824 342 826 l 325 824 q 321 826 323 826 q 318 826 319 826 q 317 826 317 826 q 316 827 316 826 q 315 827 316 827 l 316 831 q 317 833 317 832 q 318 835 317 834 q 326 839 324 839 l 328 839 q 335 840 331 839 q 342 844 338 841 q 343 847 343 846 q 345 850 344 849 q 347 858 347 853 q 347 864 349 860 q 346 867 347 866 q 344 870 345 869 q 338 874 342 874 q 331 874 334 876 q 325 872 327 874 q 317 868 319 870 q 308 865 315 867 q 302 863 305 863 q 298 863 299 863 q 288 863 291 863 q 283 866 286 865 q 279 870 281 867 q 273 880 274 874 q 272 890 272 886 q 276 900 274 897 q 281 909 277 903 q 289 913 285 913 q 296 916 292 916 q 304 917 303 917 q 311 917 309 917 l 310 913 q 308 906 310 910 q 303 903 306 903 m 344 900 q 341 906 343 903 q 339 913 340 909 q 335 925 335 919 q 335 932 335 928 q 335 938 335 935 q 338 945 337 942 q 340 951 339 948 q 343 956 342 954 q 347 962 345 958 q 358 970 351 966 q 369 976 363 975 q 383 978 376 978 q 396 978 389 981 q 401 977 399 978 q 407 974 403 976 q 413 971 410 973 q 419 967 416 969 q 423 963 422 965 q 428 957 425 960 q 431 951 429 954 q 433 945 433 949 q 436 933 436 939 q 436 919 438 926 q 434 913 435 916 q 432 907 433 910 q 424 896 428 900 q 420 891 422 894 q 415 888 418 889 q 397 880 405 881 q 376 880 386 877 q 367 882 372 881 q 358 886 363 884 q 344 900 350 892 m 356 908 q 366 898 359 901 q 379 893 372 894 q 394 893 386 891 q 406 899 401 894 q 417 909 414 903 q 420 915 419 913 q 422 922 421 918 q 422 937 423 929 q 420 943 421 940 q 416 949 419 946 q 406 960 413 956 q 393 965 399 965 q 379 965 385 967 q 365 959 372 964 q 355 949 359 955 q 352 942 353 945 q 349 935 351 939 q 349 922 348 929 q 352 915 351 918 q 356 908 353 912 m 474 924 l 460 918 l 423 1010 l 433 1014 q 438 1015 435 1015 q 442 1014 442 1015 l 518 965 l 519 965 q 519 963 519 963 q 521 962 521 963 q 522 962 521 962 l 490 1038 l 503 1042 l 540 951 l 531 947 q 525 947 528 947 q 519 947 522 947 l 446 996 q 444 996 444 996 q 443 997 444 997 q 442 999 443 998 q 442 999 442 999 l 442 1001 l 474 924 m 563 1058 l 576 1060 l 638 972 l 630 970 q 627 970 628 969 q 624 970 626 970 q 619 974 621 971 l 610 988 l 560 978 l 557 962 q 553 956 556 958 q 551 954 553 955 q 548 953 549 953 l 540 952 l 563 1058 m 573 1038 l 563 993 l 601 1001 l 576 1038 q 574 1040 574 1039 q 573 1043 574 1042 l 573 1040 l 573 1038 m 638 969 l 635 1069 l 648 1069 l 651 984 l 695 986 l 696 972 l 638 969 m 750 1006 q 750 995 749 1000 q 752 991 751 993 q 754 987 753 988 q 757 983 756 985 q 760 980 759 981 q 766 977 763 978 q 771 975 768 976 q 781 976 778 975 q 786 977 784 976 q 790 980 788 978 q 797 987 794 983 q 800 991 799 989 q 802 997 801 994 l 812 1056 l 826 1054 l 814 994 q 813 989 813 992 q 811 984 813 987 q 809 979 810 981 q 806 975 808 977 q 802 972 804 974 q 798 969 799 970 q 790 965 794 966 q 784 963 787 963 q 779 962 781 963 q 769 963 772 962 q 763 964 765 963 q 758 966 761 965 q 754 968 756 967 q 750 971 752 969 q 742 978 745 974 q 738 988 741 982 q 736 998 736 992 q 737 1008 736 1005 l 747 1067 l 760 1065 l 750 1006 m 878 1018 q 877 1020 878 1019 q 875 1023 876 1022 q 872 1024 874 1024 q 869 1025 871 1024 q 863 1026 867 1026 l 858 1026 q 853 1024 856 1024 q 851 1019 851 1022 q 851 1014 849 1016 q 852 1010 851 1011 q 853 1007 853 1008 q 856 1005 854 1006 q 863 1000 858 1003 q 865 998 864 999 q 867 996 865 997 q 869 994 868 995 q 871 992 869 993 q 873 991 872 992 q 875 989 874 990 q 876 987 876 988 q 878 985 876 986 q 881 962 885 974 q 877 956 879 958 q 874 951 876 953 q 868 947 871 949 q 863 944 866 945 q 851 942 858 942 q 845 942 848 942 q 839 943 842 942 q 820 959 826 949 q 819 961 820 960 q 817 963 818 962 q 817 965 817 964 q 817 967 817 965 q 816 969 816 967 l 816 972 l 820 973 q 825 972 823 973 q 831 967 829 971 l 831 966 q 833 963 833 964 q 835 960 834 962 q 840 958 838 959 q 843 956 841 957 q 846 956 844 956 q 849 956 848 956 q 853 956 851 956 q 857 956 856 956 q 863 960 862 958 q 867 966 867 963 q 867 973 869 970 q 867 976 867 974 q 865 978 866 977 q 863 981 864 980 q 860 984 862 983 q 858 986 859 985 q 853 988 856 987 q 850 992 852 990 q 847 996 848 994 q 843 999 844 997 q 840 1004 842 1001 q 838 1008 839 1006 q 837 1012 837 1010 q 839 1024 835 1017 q 844 1033 840 1029 q 853 1038 849 1038 q 859 1040 856 1040 q 863 1040 861 1040 q 869 1040 866 1040 q 875 1038 872 1039 q 881 1034 878 1038 q 888 1028 885 1031 q 890 1025 889 1026 q 892 1022 892 1024 q 893 1019 893 1020 q 894 1016 894 1017 l 890 1014 q 883 1014 887 1013 q 878 1018 880 1017 m 930 903 l 876 931 l 920 1019 l 974 991 l 969 978 l 927 1001 l 914 975 l 948 958 l 941 945 l 907 963 l 894 938 l 936 915 l 930 903 m 992 922 q 1003 931 997 929 q 1008 935 1005 933 q 1013 938 1010 936 q 1020 939 1017 939 q 1026 940 1023 939 q 1033 940 1030 940 q 1040 939 1036 940 q 1052 935 1046 938 q 1063 927 1057 933 q 1068 923 1065 925 q 1072 917 1071 920 q 1077 906 1076 912 q 1080 893 1080 900 q 1080 886 1080 890 q 1079 880 1080 883 q 1077 873 1078 876 q 1075 867 1076 870 q 1067 857 1072 860 q 1063 851 1065 853 q 1058 847 1060 849 q 1051 844 1054 845 q 1045 842 1049 842 q 1033 840 1039 840 q 1026 840 1029 840 q 1019 840 1023 840 q 1014 842 1017 841 q 1008 844 1011 842 q 1002 848 1004 846 q 996 851 999 849 q 989 859 992 856 q 984 867 986 863 q 981 877 983 872 q 979 886 980 881 q 982 906 979 897 q 992 922 985 916 m 1003 914 q 994 901 997 908 q 993 894 993 898 q 992 888 992 891 q 993 880 992 883 q 996 874 994 877 q 1000 867 999 870 q 1005 862 1002 864 q 1011 858 1008 859 q 1018 854 1015 856 q 1031 853 1026 852 q 1045 857 1040 853 q 1052 860 1049 858 q 1058 865 1055 863 q 1064 878 1063 871 q 1066 892 1067 884 q 1065 899 1066 895 q 1063 906 1065 902 q 1059 911 1061 909 q 1054 917 1057 914 q 1048 921 1051 919 q 1041 924 1044 923 q 1034 926 1038 926 q 1027 926 1031 926 q 1020 925 1024 926 q 1013 922 1017 924 q 1003 914 1007 919 m 1046 804 l 1038 814 l 1117 874 l 1124 865 q 1126 860 1126 862 l 1126 854 l 1097 771 q 1097 770 1097 770 q 1097 769 1097 770 q 1096 769 1097 769 q 1095 768 1095 769 l 1094 767 l 1160 815 l 1169 805 l 1090 746 l 1083 754 q 1080 759 1081 756 q 1081 764 1080 763 l 1109 849 q 1110 849 1109 849 q 1110 850 1110 849 l 1111 851 q 1113 853 1112 852 l 1046 804 m 1094 734 l 1183 779 l 1188 768 l 1113 728 l 1133 691 l 1120 684 l 1094 734 m 1131 656 l 1126 668 l 1165 683 q 1167 684 1167 684 q 1169 685 1169 685 q 1170 687 1169 687 q 1170 688 1170 688 q 1172 690 1172 688 l 1205 740 l 1207 732 q 1209 727 1208 729 q 1209 724 1209 725 q 1208 720 1208 722 q 1206 717 1207 719 l 1185 685 l 1183 683 l 1183 683 l 1184 683 q 1186 683 1184 683 l 1224 672 q 1227 670 1225 671 q 1230 668 1228 669 q 1233 663 1233 667 l 1237 653 l 1180 670 q 1178 671 1178 670 l 1175 671 l 1172 671 q 1169 670 1170 671 l 1131 656 z "},"7":{"ha":1385,"x_min":133,"x_max":1237,"o":"m 927 226 q 815 160 877 185 q 683 135 753 135 q 552 160 613 135 q 442 226 492 185 l 927 226 m 413 254 q 347 365 370 303 q 323 497 323 426 q 344 620 323 563 q 404 726 365 678 l 883 726 l 413 254 m 440 766 q 551 834 490 810 q 683 859 613 859 q 815 834 753 859 q 923 766 876 809 l 440 766 m 1044 497 q 1023 372 1044 430 q 963 265 1001 314 l 482 265 l 952 740 q 1021 623 998 683 q 1044 497 1044 563 m 800 76 q 743 65 772 69 q 683 60 715 60 q 565 76 622 60 q 460 122 508 92 q 372 191 411 151 q 305 280 333 231 q 262 383 277 328 q 247 497 247 438 q 263 615 247 558 q 308 721 278 672 q 377 809 337 769 q 466 876 417 849 q 570 919 515 904 q 683 935 625 935 q 858 899 778 935 q 996 802 938 863 q 1087 662 1054 741 q 1119 497 1119 583 q 1094 350 1119 418 q 1026 228 1069 282 q 925 135 983 174 q 800 76 867 97 m 789 883 q 739 895 765 891 q 683 899 713 899 q 574 884 626 899 q 477 842 522 869 q 397 778 433 815 q 336 696 361 740 q 297 601 310 651 q 283 497 283 550 q 297 392 283 442 q 337 296 311 341 q 399 214 363 251 q 479 150 435 177 q 575 109 524 124 q 683 94 627 94 q 839 125 766 94 q 967 211 913 157 q 1053 339 1022 266 q 1085 497 1085 413 q 1061 634 1085 570 q 997 747 1038 697 q 903 832 957 797 q 789 883 849 867 m 205 221 l 227 183 l 208 172 l 168 238 l 177 243 q 188 246 183 247 l 257 239 l 235 276 l 255 287 l 293 221 l 284 216 q 279 215 280 215 q 274 213 277 213 l 205 221 m 265 100 l 223 151 l 299 215 l 342 163 l 324 149 l 296 181 l 285 172 l 307 147 l 290 131 l 268 157 l 255 147 l 282 115 l 265 100 m 331 140 l 347 157 l 406 106 l 392 90 l 371 108 l 322 49 l 304 64 l 353 122 l 331 140 m 428 94 l 444 83 l 431 -23 l 417 -15 q 414 -12 416 -13 q 412 -9 412 -10 q 410 -5 410 -6 l 410 -1 l 412 11 l 379 31 l 369 24 q 368 23 369 23 q 366 22 367 23 l 362 22 q 359 22 360 22 q 358 22 358 22 q 355 23 356 23 q 353 24 353 23 l 340 31 l 428 94 m 419 60 q 418 59 418 59 q 416 58 415 58 q 415 56 415 56 q 415 56 415 56 l 400 45 l 415 35 l 417 54 q 417 55 417 55 q 418 56 418 56 q 418 58 418 58 q 419 58 419 58 q 419 59 419 59 q 419 60 419 60 m 522 6 l 513 -16 l 480 -3 l 467 -37 l 444 -28 l 481 63 l 542 40 l 535 19 l 494 33 l 489 19 l 522 6 m 529 -9 q 533 4 530 -3 q 541 14 538 8 q 545 19 543 17 q 550 23 548 21 q 556 26 553 25 q 563 28 559 27 q 569 30 565 30 q 576 31 572 31 q 582 31 579 31 q 589 30 585 31 q 595 28 592 28 q 601 26 599 27 q 613 19 608 22 q 617 14 615 16 q 621 9 619 12 q 626 -3 626 3 q 628 -10 628 -7 q 630 -16 629 -12 q 630 -23 630 -19 q 629 -29 630 -26 q 624 -42 628 -36 q 620 -48 622 -45 q 617 -53 619 -50 q 608 -61 614 -58 q 601 -64 604 -62 q 595 -67 599 -65 q 589 -69 592 -68 q 583 -69 586 -69 q 576 -69 579 -69 q 568 -68 573 -69 q 562 -67 565 -67 q 556 -65 560 -66 q 551 -61 553 -63 q 545 -57 548 -60 q 541 -52 542 -55 q 537 -47 539 -49 q 534 -42 535 -44 q 531 -36 532 -39 q 528 -23 529 -28 q 528 -16 528 -19 q 529 -9 528 -12 m 553 -14 q 553 -25 552 -20 q 554 -30 553 -27 q 556 -35 555 -32 q 563 -42 559 -39 q 568 -44 565 -44 q 574 -46 571 -45 q 584 -46 578 -48 q 594 -43 590 -45 q 601 -35 599 -39 q 604 -30 603 -32 q 606 -25 606 -27 q 606 -13 608 -19 q 601 -4 606 -10 q 598 0 600 -1 q 594 4 597 2 q 590 6 592 6 q 584 8 588 7 q 574 8 578 10 q 568 6 571 7 q 563 4 566 6 q 560 1 562 3 q 557 -4 558 -1 q 553 -14 554 -7 m 727 -78 l 706 -79 l 661 -13 l 662 -79 l 638 -80 l 637 19 l 647 19 l 656 19 q 663 19 661 19 q 666 15 665 17 l 701 -34 q 701 -35 701 -35 q 702 -37 701 -36 q 703 -39 702 -38 q 703 -40 703 -39 q 704 -43 703 -42 l 702 20 l 726 20 l 727 -78 m 738 -1 l 734 22 l 812 35 l 816 14 l 789 8 l 803 -66 l 781 -70 l 767 4 l 738 -1 m 856 28 q 851 27 853 28 q 849 26 849 27 q 848 23 848 23 q 849 22 848 22 q 851 19 849 19 q 852 18 851 19 q 853 17 852 17 l 860 17 l 867 17 q 874 17 871 17 q 880 17 876 17 q 884 15 883 15 q 889 13 886 15 q 897 7 894 10 q 902 -3 901 4 q 904 -15 905 -9 q 903 -22 904 -19 q 900 -28 901 -24 q 897 -33 899 -31 q 892 -39 895 -35 q 885 -42 888 -40 q 879 -45 883 -44 q 874 -47 876 -46 q 867 -47 871 -47 q 857 -46 863 -49 q 847 -42 851 -45 q 842 -39 844 -41 q 839 -35 840 -37 l 844 -28 q 847 -26 845 -26 q 849 -24 849 -24 q 856 -23 851 -23 q 859 -23 858 -23 q 861 -24 860 -24 q 864 -24 863 -24 q 866 -25 865 -25 q 871 -24 869 -25 q 874 -23 873 -24 q 876 -22 874 -23 l 879 -19 q 881 -14 881 -17 q 881 -10 881 -14 l 878 -8 q 875 -7 878 -7 q 872 -6 874 -6 q 869 -6 871 -6 l 863 -6 q 858 -6 860 -6 q 852 -5 856 -6 q 842 -3 848 -5 q 837 -1 840 -2 q 833 2 835 1 q 826 13 830 6 q 825 19 825 16 q 825 24 825 22 q 826 30 826 28 q 829 35 827 33 q 832 41 831 39 q 837 44 834 42 q 847 50 842 48 q 851 51 849 51 q 856 52 853 52 q 860 51 858 52 q 865 51 862 51 q 868 50 866 50 q 874 48 870 49 q 877 46 875 47 q 880 44 878 46 l 876 37 q 874 32 875 35 q 870 31 872 31 q 867 31 869 31 q 865 30 867 30 l 861 30 l 858 30 q 856 28 856 30 m 918 -14 q 917 -11 918 -12 q 917 -9 917 -10 q 918 -4 917 -6 q 920 1 918 -3 q 924 4 921 3 q 927 5 926 5 q 930 6 928 5 q 932 5 931 6 q 935 5 933 5 q 939 2 938 3 q 942 -3 941 1 q 945 -8 945 -6 q 944 -12 945 -11 q 942 -15 942 -14 q 941 -17 942 -16 q 939 -19 940 -18 q 937 -21 938 -19 q 932 -22 933 -22 q 927 -22 928 -22 q 921 -19 924 -22 q 918 -14 919 -17 m 954 46 q 962 38 956 42 q 966 35 964 36 q 972 33 969 35 q 982 33 976 32 q 987 35 985 33 q 992 38 989 36 q 995 41 994 39 q 999 44 997 42 l 1003 50 q 1008 58 1004 55 q 1010 59 1009 59 q 1013 60 1012 59 l 1019 60 l 1027 58 q 1026 52 1026 55 q 1024 46 1025 49 q 1019 35 1023 42 q 1013 26 1017 30 q 1005 19 1008 22 q 998 16 1001 17 q 992 13 995 14 q 979 10 986 10 q 973 10 976 10 q 966 11 969 10 q 961 13 964 13 q 954 15 958 13 q 949 18 951 17 q 944 23 946 20 q 939 27 941 25 q 934 32 936 29 q 931 39 933 35 q 928 45 930 42 q 927 51 928 48 q 926 58 927 54 q 926 64 926 61 q 927 70 926 67 q 931 83 928 76 q 934 88 933 85 q 938 94 935 91 q 943 99 940 97 q 949 103 946 101 q 958 108 954 106 q 964 109 961 109 q 969 111 966 110 l 981 111 q 988 110 985 111 q 992 109 990 110 l 992 100 q 990 95 990 97 q 988 93 988 94 q 985 91 987 92 q 976 88 980 88 q 969 87 972 88 q 960 84 965 86 q 953 76 956 81 q 950 67 950 71 q 950 56 949 61 q 954 46 951 49 m 1013 85 q 1009 90 1010 88 q 1005 96 1007 92 q 1002 102 1003 99 q 1001 108 1001 105 q 999 115 999 112 q 999 121 999 117 q 1000 127 999 124 q 1001 134 1000 131 q 1003 140 1001 138 q 1006 147 1004 143 q 1009 151 1008 149 q 1014 156 1011 154 q 1019 161 1017 159 q 1025 165 1022 163 q 1031 168 1028 167 q 1037 169 1033 169 q 1043 171 1040 171 q 1049 171 1046 171 q 1056 171 1053 171 q 1063 169 1059 171 q 1069 168 1066 169 q 1075 165 1072 167 q 1081 161 1078 163 q 1086 156 1083 159 q 1090 151 1088 153 q 1094 145 1092 149 q 1096 140 1095 142 q 1099 133 1097 137 q 1099 127 1099 130 q 1099 120 1099 124 q 1098 108 1099 115 q 1096 102 1097 105 q 1093 96 1094 99 q 1085 85 1090 90 q 1080 80 1082 82 q 1074 77 1077 78 q 1068 74 1071 76 q 1062 72 1065 73 q 1049 70 1056 70 q 1036 72 1042 70 q 1030 74 1033 73 q 1024 77 1027 76 q 1019 81 1022 78 q 1013 85 1016 83 m 1030 101 q 1034 98 1032 99 q 1040 95 1037 97 q 1049 94 1044 94 q 1060 95 1057 94 q 1065 98 1063 96 q 1069 101 1067 99 q 1075 110 1074 106 q 1077 120 1077 115 q 1075 131 1077 125 q 1069 140 1074 135 q 1060 147 1065 144 q 1049 149 1056 149 q 1044 148 1047 149 q 1040 147 1042 148 q 1034 144 1037 146 q 1030 140 1032 143 q 1024 131 1026 138 q 1022 126 1022 129 q 1022 121 1022 124 q 1024 111 1022 114 q 1026 106 1025 108 q 1030 101 1028 103 m 1190 224 l 1178 203 l 1138 229 l 1166 187 l 1156 170 l 1106 179 l 1144 153 l 1131 134 l 1049 188 l 1058 201 q 1064 207 1060 205 q 1068 208 1066 208 q 1072 208 1071 208 l 1131 199 l 1098 247 q 1096 252 1097 250 q 1095 256 1095 253 q 1096 260 1095 258 q 1098 264 1097 262 l 1107 277 l 1190 224 m 231 645 l 226 632 l 133 667 l 146 699 q 151 710 148 706 q 162 717 156 716 q 167 719 165 719 q 173 720 169 720 q 179 720 176 720 q 185 719 182 719 q 195 711 192 716 q 200 707 199 710 q 202 702 201 705 q 204 696 203 699 q 206 691 205 693 q 203 678 206 685 l 197 658 l 231 645 m 191 683 q 191 686 191 685 q 192 690 192 688 q 191 693 192 692 q 190 697 191 694 q 189 699 190 698 q 186 702 188 701 q 181 706 184 704 q 177 706 179 706 q 174 706 175 706 q 170 706 172 706 q 167 705 169 706 q 165 703 166 703 q 162 701 163 703 q 158 695 159 697 l 151 674 l 183 663 l 191 683 m 281 753 l 251 699 l 165 747 l 194 800 l 206 793 l 183 752 l 208 738 l 227 772 l 239 766 l 220 733 l 246 717 l 269 759 l 281 753 m 294 771 l 286 760 l 208 820 l 228 849 q 233 852 231 850 q 238 856 235 854 q 243 858 240 858 q 248 860 245 859 q 253 860 251 860 q 259 859 256 860 q 269 853 265 858 q 273 850 272 852 q 276 847 274 849 q 278 843 277 845 q 280 840 279 841 q 281 834 281 836 q 281 830 281 832 q 279 822 281 826 l 331 820 l 326 813 q 321 808 324 810 q 317 807 319 808 q 315 806 316 806 l 271 808 l 262 796 l 294 771 m 226 823 l 251 804 l 264 822 q 266 824 265 823 q 267 827 266 826 l 267 833 q 267 835 267 834 q 265 839 266 837 q 261 842 263 842 q 256 845 258 845 q 250 846 254 846 q 247 845 249 845 q 244 844 246 845 q 240 840 242 843 l 226 823 m 303 903 q 299 903 300 903 q 296 902 297 903 q 292 899 294 901 q 288 894 290 897 q 286 889 286 892 l 286 884 q 289 880 287 882 q 293 876 291 877 l 297 876 q 303 878 299 876 q 307 880 306 879 q 312 881 309 880 q 314 883 313 882 q 316 883 315 883 q 322 885 317 884 q 326 888 324 885 q 328 888 327 888 q 331 888 329 888 q 353 880 344 890 q 360 869 360 876 q 361 863 361 865 q 362 858 362 861 q 360 851 361 854 q 358 845 360 848 q 355 839 357 842 q 351 835 352 837 q 329 824 342 826 l 325 824 q 321 826 323 826 q 318 826 319 826 q 317 826 317 826 q 316 827 316 826 q 315 827 316 827 l 316 831 q 317 833 317 832 q 318 835 317 834 q 326 839 324 839 l 328 839 q 335 840 331 839 q 342 844 338 841 q 343 847 343 846 q 345 850 344 849 q 347 858 347 853 q 347 864 349 860 q 346 867 347 866 q 344 870 345 869 q 338 874 342 874 q 331 874 334 876 q 325 872 327 874 q 317 868 319 870 q 308 865 315 867 q 302 863 305 863 q 298 863 299 863 q 288 863 291 863 q 283 866 286 865 q 279 870 281 867 q 273 880 274 874 q 272 890 272 886 q 276 900 274 897 q 281 909 277 903 q 289 913 285 913 q 296 916 292 916 q 304 917 303 917 q 311 917 309 917 l 310 913 q 308 906 310 910 q 303 903 306 903 m 344 900 q 341 906 343 903 q 339 913 340 909 q 335 925 335 919 q 335 932 335 928 q 335 938 335 935 q 338 945 337 942 q 340 951 339 948 q 343 956 342 954 q 347 962 345 958 q 358 970 351 966 q 369 976 363 975 q 383 978 376 978 q 396 978 389 981 q 401 977 399 978 q 407 974 403 976 q 413 971 410 973 q 419 967 416 969 q 423 963 422 965 q 428 957 425 960 q 431 951 429 954 q 433 945 433 949 q 436 933 436 939 q 436 919 438 926 q 434 913 435 916 q 432 907 433 910 q 424 896 428 900 q 420 891 422 894 q 415 888 418 889 q 397 880 405 881 q 376 880 386 877 q 367 882 372 881 q 358 886 363 884 q 344 900 350 892 m 356 908 q 366 898 359 901 q 379 893 372 894 q 394 893 386 891 q 406 899 401 894 q 417 909 414 903 q 420 915 419 913 q 422 922 421 918 q 422 937 423 929 q 420 943 421 940 q 416 949 419 946 q 406 960 413 956 q 393 965 399 965 q 379 965 385 967 q 365 959 372 964 q 355 949 359 955 q 352 942 353 945 q 349 935 351 939 q 349 922 348 929 q 352 915 351 918 q 356 908 353 912 m 474 924 l 460 918 l 423 1010 l 433 1014 q 438 1015 435 1015 q 442 1014 442 1015 l 518 965 l 519 965 q 519 963 519 963 q 521 962 521 963 q 522 962 521 962 l 490 1038 l 503 1042 l 540 951 l 531 947 q 525 947 528 947 q 519 947 522 947 l 446 996 q 444 996 444 996 q 443 997 444 997 q 442 999 443 998 q 442 999 442 999 l 442 1001 l 474 924 m 563 1058 l 576 1060 l 638 972 l 630 970 q 627 970 628 969 q 624 970 626 970 q 619 974 621 971 l 610 988 l 560 978 l 557 962 q 553 956 556 958 q 551 954 553 955 q 548 953 549 953 l 540 952 l 563 1058 m 573 1038 l 563 993 l 601 1001 l 576 1038 q 574 1040 574 1039 q 573 1043 574 1042 l 573 1040 l 573 1038 m 638 969 l 635 1069 l 648 1069 l 651 984 l 695 986 l 696 972 l 638 969 m 750 1006 q 750 995 749 1000 q 752 991 751 993 q 754 987 753 988 q 757 983 756 985 q 760 980 759 981 q 766 977 763 978 q 771 975 768 976 q 781 976 778 975 q 786 977 784 976 q 790 980 788 978 q 797 987 794 983 q 800 991 799 989 q 802 997 801 994 l 812 1056 l 826 1054 l 814 994 q 813 989 813 992 q 811 984 813 987 q 809 979 810 981 q 806 975 808 977 q 802 972 804 974 q 798 969 799 970 q 790 965 794 966 q 784 963 787 963 q 779 962 781 963 q 769 963 772 962 q 763 964 765 963 q 758 966 761 965 q 754 968 756 967 q 750 971 752 969 q 742 978 745 974 q 738 988 741 982 q 736 998 736 992 q 737 1008 736 1005 l 747 1067 l 760 1065 l 750 1006 m 878 1018 q 877 1020 878 1019 q 875 1023 876 1022 q 872 1024 874 1024 q 869 1025 871 1024 q 863 1026 867 1026 l 858 1026 q 853 1024 856 1024 q 851 1019 851 1022 q 851 1014 849 1016 q 852 1010 851 1011 q 853 1007 853 1008 q 856 1005 854 1006 q 863 1000 858 1003 q 865 998 864 999 q 867 996 865 997 q 869 994 868 995 q 871 992 869 993 q 873 991 872 992 q 875 989 874 990 q 876 987 876 988 q 878 985 876 986 q 881 962 885 974 q 877 956 879 958 q 874 951 876 953 q 868 947 871 949 q 863 944 866 945 q 851 942 858 942 q 845 942 848 942 q 839 943 842 942 q 820 959 826 949 q 819 961 820 960 q 817 963 818 962 q 817 965 817 964 q 817 967 817 965 q 816 969 816 967 l 816 972 l 820 973 q 825 972 823 973 q 831 967 829 971 l 831 966 q 833 963 833 964 q 835 960 834 962 q 840 958 838 959 q 843 956 841 957 q 846 956 844 956 q 849 956 848 956 q 853 956 851 956 q 857 956 856 956 q 863 960 862 958 q 867 966 867 963 q 867 973 869 970 q 867 976 867 974 q 865 978 866 977 q 863 981 864 980 q 860 984 862 983 q 858 986 859 985 q 853 988 856 987 q 850 992 852 990 q 847 996 848 994 q 843 999 844 997 q 840 1004 842 1001 q 838 1008 839 1006 q 837 1012 837 1010 q 839 1024 835 1017 q 844 1033 840 1029 q 853 1038 849 1038 q 859 1040 856 1040 q 863 1040 861 1040 q 869 1040 866 1040 q 875 1038 872 1039 q 881 1034 878 1038 q 888 1028 885 1031 q 890 1025 889 1026 q 892 1022 892 1024 q 893 1019 893 1020 q 894 1016 894 1017 l 890 1014 q 883 1014 887 1013 q 878 1018 880 1017 m 930 903 l 876 931 l 920 1019 l 974 991 l 969 978 l 927 1001 l 914 975 l 948 958 l 941 945 l 907 963 l 894 938 l 936 915 l 930 903 m 992 922 q 1003 931 997 929 q 1008 935 1005 933 q 1013 938 1010 936 q 1020 939 1017 939 q 1026 940 1023 939 q 1033 940 1030 940 q 1040 939 1036 940 q 1052 935 1046 938 q 1063 927 1057 933 q 1068 923 1065 925 q 1072 917 1071 920 q 1077 906 1076 912 q 1080 893 1080 900 q 1080 886 1080 890 q 1079 880 1080 883 q 1077 873 1078 876 q 1075 867 1076 870 q 1067 857 1072 860 q 1063 851 1065 853 q 1058 847 1060 849 q 1051 844 1054 845 q 1045 842 1049 842 q 1033 840 1039 840 q 1026 840 1029 840 q 1019 840 1023 840 q 1014 842 1017 841 q 1008 844 1011 842 q 1002 848 1004 846 q 996 851 999 849 q 989 859 992 856 q 984 867 986 863 q 981 877 983 872 q 979 886 980 881 q 982 906 979 897 q 992 922 985 916 m 1003 914 q 994 901 997 908 q 993 894 993 898 q 992 888 992 891 q 993 880 992 883 q 996 874 994 877 q 1000 867 999 870 q 1005 862 1002 864 q 1011 858 1008 859 q 1018 854 1015 856 q 1031 853 1026 852 q 1045 857 1040 853 q 1052 860 1049 858 q 1058 865 1055 863 q 1064 878 1063 871 q 1066 892 1067 884 q 1065 899 1066 895 q 1063 906 1065 902 q 1059 911 1061 909 q 1054 917 1057 914 q 1048 921 1051 919 q 1041 924 1044 923 q 1034 926 1038 926 q 1027 926 1031 926 q 1020 925 1024 926 q 1013 922 1017 924 q 1003 914 1007 919 m 1046 804 l 1038 814 l 1117 874 l 1124 865 q 1126 860 1126 862 l 1126 854 l 1097 771 q 1097 770 1097 770 q 1097 769 1097 770 q 1096 769 1097 769 q 1095 768 1095 769 l 1094 767 l 1160 815 l 1169 805 l 1090 746 l 1083 754 q 1080 759 1081 756 q 1081 764 1080 763 l 1109 849 q 1110 849 1109 849 q 1110 850 1110 849 l 1111 851 q 1113 853 1112 852 l 1046 804 m 1094 734 l 1183 779 l 1188 768 l 1113 728 l 1133 691 l 1120 684 l 1094 734 m 1131 656 l 1126 668 l 1165 683 q 1167 684 1167 684 q 1169 685 1169 685 q 1170 687 1169 687 q 1170 688 1170 688 q 1172 690 1172 688 l 1205 740 l 1207 732 q 1209 727 1208 729 q 1209 724 1209 725 q 1208 720 1208 722 q 1206 717 1207 719 l 1185 685 l 1183 683 l 1183 683 l 1184 683 q 1186 683 1184 683 l 1224 672 q 1227 670 1225 671 q 1230 668 1228 669 q 1233 663 1233 667 l 1237 653 l 1180 670 q 1178 671 1178 670 l 1175 671 l 1172 671 q 1169 670 1170 671 l 1131 656 z "},"8":{"ha":1385,"x_min":133,"x_max":1237,"o":"m 927 226 q 815 160 877 185 q 683 135 753 135 q 552 160 613 135 q 442 226 492 185 l 927 226 m 413 254 q 347 365 370 303 q 323 497 323 426 q 344 620 323 563 q 404 726 365 678 l 883 726 l 413 254 m 440 766 q 551 834 490 810 q 683 859 613 859 q 815 834 753 859 q 923 766 876 809 l 440 766 m 1044 497 q 1023 372 1044 430 q 963 265 1001 314 l 482 265 l 952 740 q 1021 623 998 683 q 1044 497 1044 563 m 800 76 q 743 65 772 69 q 683 60 715 60 q 565 76 622 60 q 460 122 508 92 q 372 191 411 151 q 305 280 333 231 q 262 383 277 328 q 247 497 247 438 q 263 615 247 558 q 308 721 278 672 q 377 809 337 769 q 466 876 417 849 q 570 919 515 904 q 683 935 625 935 q 858 899 778 935 q 996 802 938 863 q 1087 662 1054 741 q 1119 497 1119 583 q 1094 350 1119 418 q 1026 228 1069 282 q 925 135 983 174 q 800 76 867 97 m 789 883 q 739 895 765 891 q 683 899 713 899 q 574 884 626 899 q 477 842 522 869 q 397 778 433 815 q 336 696 361 740 q 297 601 310 651 q 283 497 283 550 q 297 392 283 442 q 337 296 311 341 q 399 214 363 251 q 479 150 435 177 q 575 109 524 124 q 683 94 627 94 q 839 125 766 94 q 967 211 913 157 q 1053 339 1022 266 q 1085 497 1085 413 q 1061 634 1085 570 q 997 747 1038 697 q 903 832 957 797 q 789 883 849 867 m 205 221 l 227 183 l 208 172 l 168 238 l 177 243 q 188 246 183 247 l 257 239 l 235 276 l 255 287 l 293 221 l 284 216 q 279 215 280 215 q 274 213 277 213 l 205 221 m 265 100 l 223 151 l 299 215 l 342 163 l 324 149 l 296 181 l 285 172 l 307 147 l 290 131 l 268 157 l 255 147 l 282 115 l 265 100 m 331 140 l 347 157 l 406 106 l 392 90 l 371 108 l 322 49 l 304 64 l 353 122 l 331 140 m 428 94 l 444 83 l 431 -23 l 417 -15 q 414 -12 416 -13 q 412 -9 412 -10 q 410 -5 410 -6 l 410 -1 l 412 11 l 379 31 l 369 24 q 368 23 369 23 q 366 22 367 23 l 362 22 q 359 22 360 22 q 358 22 358 22 q 355 23 356 23 q 353 24 353 23 l 340 31 l 428 94 m 419 60 q 418 59 418 59 q 416 58 415 58 q 415 56 415 56 q 415 56 415 56 l 400 45 l 415 35 l 417 54 q 417 55 417 55 q 418 56 418 56 q 418 58 418 58 q 419 58 419 58 q 419 59 419 59 q 419 60 419 60 m 522 6 l 513 -16 l 480 -3 l 467 -37 l 444 -28 l 481 63 l 542 40 l 535 19 l 494 33 l 489 19 l 522 6 m 529 -9 q 533 4 530 -3 q 541 14 538 8 q 545 19 543 17 q 550 23 548 21 q 556 26 553 25 q 563 28 559 27 q 569 30 565 30 q 576 31 572 31 q 582 31 579 31 q 589 30 585 31 q 595 28 592 28 q 601 26 599 27 q 613 19 608 22 q 617 14 615 16 q 621 9 619 12 q 626 -3 626 3 q 628 -10 628 -7 q 630 -16 629 -12 q 630 -23 630 -19 q 629 -29 630 -26 q 624 -42 628 -36 q 620 -48 622 -45 q 617 -53 619 -50 q 608 -61 614 -58 q 601 -64 604 -62 q 595 -67 599 -65 q 589 -69 592 -68 q 583 -69 586 -69 q 576 -69 579 -69 q 568 -68 573 -69 q 562 -67 565 -67 q 556 -65 560 -66 q 551 -61 553 -63 q 545 -57 548 -60 q 541 -52 542 -55 q 537 -47 539 -49 q 534 -42 535 -44 q 531 -36 532 -39 q 528 -23 529 -28 q 528 -16 528 -19 q 529 -9 528 -12 m 553 -14 q 553 -25 552 -20 q 554 -30 553 -27 q 556 -35 555 -32 q 563 -42 559 -39 q 568 -44 565 -44 q 574 -46 571 -45 q 584 -46 578 -48 q 594 -43 590 -45 q 601 -35 599 -39 q 604 -30 603 -32 q 606 -25 606 -27 q 606 -13 608 -19 q 601 -4 606 -10 q 598 0 600 -1 q 594 4 597 2 q 590 6 592 6 q 584 8 588 7 q 574 8 578 10 q 568 6 571 7 q 563 4 566 6 q 560 1 562 3 q 557 -4 558 -1 q 553 -14 554 -7 m 727 -78 l 706 -79 l 661 -13 l 662 -79 l 638 -80 l 637 19 l 647 19 l 656 19 q 663 19 661 19 q 666 15 665 17 l 701 -34 q 701 -35 701 -35 q 702 -37 701 -36 q 703 -39 702 -38 q 703 -40 703 -39 q 704 -43 703 -42 l 702 20 l 726 20 l 727 -78 m 738 -1 l 734 22 l 812 35 l 816 14 l 789 8 l 803 -66 l 781 -70 l 767 4 l 738 -1 m 856 28 q 851 27 853 28 q 849 26 849 27 q 848 23 848 23 q 849 22 848 22 q 851 19 849 19 q 852 18 851 19 q 853 17 852 17 l 860 17 l 867 17 q 874 17 871 17 q 880 17 876 17 q 884 15 883 15 q 889 13 886 15 q 897 7 894 10 q 902 -3 901 4 q 904 -15 905 -9 q 903 -22 904 -19 q 900 -28 901 -24 q 897 -33 899 -31 q 892 -39 895 -35 q 885 -42 888 -40 q 879 -45 883 -44 q 874 -47 876 -46 q 867 -47 871 -47 q 857 -46 863 -49 q 847 -42 851 -45 q 842 -39 844 -41 q 839 -35 840 -37 l 844 -28 q 847 -26 845 -26 q 849 -24 849 -24 q 856 -23 851 -23 q 859 -23 858 -23 q 861 -24 860 -24 q 864 -24 863 -24 q 866 -25 865 -25 q 871 -24 869 -25 q 874 -23 873 -24 q 876 -22 874 -23 l 879 -19 q 881 -14 881 -17 q 881 -10 881 -14 l 878 -8 q 875 -7 878 -7 q 872 -6 874 -6 q 869 -6 871 -6 l 863 -6 q 858 -6 860 -6 q 852 -5 856 -6 q 842 -3 848 -5 q 837 -1 840 -2 q 833 2 835 1 q 826 13 830 6 q 825 19 825 16 q 825 24 825 22 q 826 30 826 28 q 829 35 827 33 q 832 41 831 39 q 837 44 834 42 q 847 50 842 48 q 851 51 849 51 q 856 52 853 52 q 860 51 858 52 q 865 51 862 51 q 868 50 866 50 q 874 48 870 49 q 877 46 875 47 q 880 44 878 46 l 876 37 q 874 32 875 35 q 870 31 872 31 q 867 31 869 31 q 865 30 867 30 l 861 30 l 858 30 q 856 28 856 30 m 918 -14 q 917 -11 918 -12 q 917 -9 917 -10 q 918 -4 917 -6 q 920 1 918 -3 q 924 4 921 3 q 927 5 926 5 q 930 6 928 5 q 932 5 931 6 q 935 5 933 5 q 939 2 938 3 q 942 -3 941 1 q 945 -8 945 -6 q 944 -12 945 -11 q 942 -15 942 -14 q 941 -17 942 -16 q 939 -19 940 -18 q 937 -21 938 -19 q 932 -22 933 -22 q 927 -22 928 -22 q 921 -19 924 -22 q 918 -14 919 -17 m 954 46 q 962 38 956 42 q 966 35 964 36 q 972 33 969 35 q 982 33 976 32 q 987 35 985 33 q 992 38 989 36 q 995 41 994 39 q 999 44 997 42 l 1003 50 q 1008 58 1004 55 q 1010 59 1009 59 q 1013 60 1012 59 l 1019 60 l 1027 58 q 1026 52 1026 55 q 1024 46 1025 49 q 1019 35 1023 42 q 1013 26 1017 30 q 1005 19 1008 22 q 998 16 1001 17 q 992 13 995 14 q 979 10 986 10 q 973 10 976 10 q 966 11 969 10 q 961 13 964 13 q 954 15 958 13 q 949 18 951 17 q 944 23 946 20 q 939 27 941 25 q 934 32 936 29 q 931 39 933 35 q 928 45 930 42 q 927 51 928 48 q 926 58 927 54 q 926 64 926 61 q 927 70 926 67 q 931 83 928 76 q 934 88 933 85 q 938 94 935 91 q 943 99 940 97 q 949 103 946 101 q 958 108 954 106 q 964 109 961 109 q 969 111 966 110 l 981 111 q 988 110 985 111 q 992 109 990 110 l 992 100 q 990 95 990 97 q 988 93 988 94 q 985 91 987 92 q 976 88 980 88 q 969 87 972 88 q 960 84 965 86 q 953 76 956 81 q 950 67 950 71 q 950 56 949 61 q 954 46 951 49 m 1013 85 q 1009 90 1010 88 q 1005 96 1007 92 q 1002 102 1003 99 q 1001 108 1001 105 q 999 115 999 112 q 999 121 999 117 q 1000 127 999 124 q 1001 134 1000 131 q 1003 140 1001 138 q 1006 147 1004 143 q 1009 151 1008 149 q 1014 156 1011 154 q 1019 161 1017 159 q 1025 165 1022 163 q 1031 168 1028 167 q 1037 169 1033 169 q 1043 171 1040 171 q 1049 171 1046 171 q 1056 171 1053 171 q 1063 169 1059 171 q 1069 168 1066 169 q 1075 165 1072 167 q 1081 161 1078 163 q 1086 156 1083 159 q 1090 151 1088 153 q 1094 145 1092 149 q 1096 140 1095 142 q 1099 133 1097 137 q 1099 127 1099 130 q 1099 120 1099 124 q 1098 108 1099 115 q 1096 102 1097 105 q 1093 96 1094 99 q 1085 85 1090 90 q 1080 80 1082 82 q 1074 77 1077 78 q 1068 74 1071 76 q 1062 72 1065 73 q 1049 70 1056 70 q 1036 72 1042 70 q 1030 74 1033 73 q 1024 77 1027 76 q 1019 81 1022 78 q 1013 85 1016 83 m 1030 101 q 1034 98 1032 99 q 1040 95 1037 97 q 1049 94 1044 94 q 1060 95 1057 94 q 1065 98 1063 96 q 1069 101 1067 99 q 1075 110 1074 106 q 1077 120 1077 115 q 1075 131 1077 125 q 1069 140 1074 135 q 1060 147 1065 144 q 1049 149 1056 149 q 1044 148 1047 149 q 1040 147 1042 148 q 1034 144 1037 146 q 1030 140 1032 143 q 1024 131 1026 138 q 1022 126 1022 129 q 1022 121 1022 124 q 1024 111 1022 114 q 1026 106 1025 108 q 1030 101 1028 103 m 1190 224 l 1178 203 l 1138 229 l 1166 187 l 1156 170 l 1106 179 l 1144 153 l 1131 134 l 1049 188 l 1058 201 q 1064 207 1060 205 q 1068 208 1066 208 q 1072 208 1071 208 l 1131 199 l 1098 247 q 1096 252 1097 250 q 1095 256 1095 253 q 1096 260 1095 258 q 1098 264 1097 262 l 1107 277 l 1190 224 m 231 645 l 226 632 l 133 667 l 146 699 q 151 710 148 706 q 162 717 156 716 q 167 719 165 719 q 173 720 169 720 q 179 720 176 720 q 185 719 182 719 q 195 711 192 716 q 200 707 199 710 q 202 702 201 705 q 204 696 203 699 q 206 691 205 693 q 203 678 206 685 l 197 658 l 231 645 m 191 683 q 191 686 191 685 q 192 690 192 688 q 191 693 192 692 q 190 697 191 694 q 189 699 190 698 q 186 702 188 701 q 181 706 184 704 q 177 706 179 706 q 174 706 175 706 q 170 706 172 706 q 167 705 169 706 q 165 703 166 703 q 162 701 163 703 q 158 695 159 697 l 151 674 l 183 663 l 191 683 m 281 753 l 251 699 l 165 747 l 194 800 l 206 793 l 183 752 l 208 738 l 227 772 l 239 766 l 220 733 l 246 717 l 269 759 l 281 753 m 294 771 l 286 760 l 208 820 l 228 849 q 233 852 231 850 q 238 856 235 854 q 243 858 240 858 q 248 860 245 859 q 253 860 251 860 q 259 859 256 860 q 269 853 265 858 q 273 850 272 852 q 276 847 274 849 q 278 843 277 845 q 280 840 279 841 q 281 834 281 836 q 281 830 281 832 q 279 822 281 826 l 331 820 l 326 813 q 321 808 324 810 q 317 807 319 808 q 315 806 316 806 l 271 808 l 262 796 l 294 771 m 226 823 l 251 804 l 264 822 q 266 824 265 823 q 267 827 266 826 l 267 833 q 267 835 267 834 q 265 839 266 837 q 261 842 263 842 q 256 845 258 845 q 250 846 254 846 q 247 845 249 845 q 244 844 246 845 q 240 840 242 843 l 226 823 m 303 903 q 299 903 300 903 q 296 902 297 903 q 292 899 294 901 q 288 894 290 897 q 286 889 286 892 l 286 884 q 289 880 287 882 q 293 876 291 877 l 297 876 q 303 878 299 876 q 307 880 306 879 q 312 881 309 880 q 314 883 313 882 q 316 883 315 883 q 322 885 317 884 q 326 888 324 885 q 328 888 327 888 q 331 888 329 888 q 353 880 344 890 q 360 869 360 876 q 361 863 361 865 q 362 858 362 861 q 360 851 361 854 q 358 845 360 848 q 355 839 357 842 q 351 835 352 837 q 329 824 342 826 l 325 824 q 321 826 323 826 q 318 826 319 826 q 317 826 317 826 q 316 827 316 826 q 315 827 316 827 l 316 831 q 317 833 317 832 q 318 835 317 834 q 326 839 324 839 l 328 839 q 335 840 331 839 q 342 844 338 841 q 343 847 343 846 q 345 850 344 849 q 347 858 347 853 q 347 864 349 860 q 346 867 347 866 q 344 870 345 869 q 338 874 342 874 q 331 874 334 876 q 325 872 327 874 q 317 868 319 870 q 308 865 315 867 q 302 863 305 863 q 298 863 299 863 q 288 863 291 863 q 283 866 286 865 q 279 870 281 867 q 273 880 274 874 q 272 890 272 886 q 276 900 274 897 q 281 909 277 903 q 289 913 285 913 q 296 916 292 916 q 304 917 303 917 q 311 917 309 917 l 310 913 q 308 906 310 910 q 303 903 306 903 m 344 900 q 341 906 343 903 q 339 913 340 909 q 335 925 335 919 q 335 932 335 928 q 335 938 335 935 q 338 945 337 942 q 340 951 339 948 q 343 956 342 954 q 347 962 345 958 q 358 970 351 966 q 369 976 363 975 q 383 978 376 978 q 396 978 389 981 q 401 977 399 978 q 407 974 403 976 q 413 971 410 973 q 419 967 416 969 q 423 963 422 965 q 428 957 425 960 q 431 951 429 954 q 433 945 433 949 q 436 933 436 939 q 436 919 438 926 q 434 913 435 916 q 432 907 433 910 q 424 896 428 900 q 420 891 422 894 q 415 888 418 889 q 397 880 405 881 q 376 880 386 877 q 367 882 372 881 q 358 886 363 884 q 344 900 350 892 m 356 908 q 366 898 359 901 q 379 893 372 894 q 394 893 386 891 q 406 899 401 894 q 417 909 414 903 q 420 915 419 913 q 422 922 421 918 q 422 937 423 929 q 420 943 421 940 q 416 949 419 946 q 406 960 413 956 q 393 965 399 965 q 379 965 385 967 q 365 959 372 964 q 355 949 359 955 q 352 942 353 945 q 349 935 351 939 q 349 922 348 929 q 352 915 351 918 q 356 908 353 912 m 474 924 l 460 918 l 423 1010 l 433 1014 q 438 1015 435 1015 q 442 1014 442 1015 l 518 965 l 519 965 q 519 963 519 963 q 521 962 521 963 q 522 962 521 962 l 490 1038 l 503 1042 l 540 951 l 531 947 q 525 947 528 947 q 519 947 522 947 l 446 996 q 444 996 444 996 q 443 997 444 997 q 442 999 443 998 q 442 999 442 999 l 442 1001 l 474 924 m 563 1058 l 576 1060 l 638 972 l 630 970 q 627 970 628 969 q 624 970 626 970 q 619 974 621 971 l 610 988 l 560 978 l 557 962 q 553 956 556 958 q 551 954 553 955 q 548 953 549 953 l 540 952 l 563 1058 m 573 1038 l 563 993 l 601 1001 l 576 1038 q 574 1040 574 1039 q 573 1043 574 1042 l 573 1040 l 573 1038 m 638 969 l 635 1069 l 648 1069 l 651 984 l 695 986 l 696 972 l 638 969 m 750 1006 q 750 995 749 1000 q 752 991 751 993 q 754 987 753 988 q 757 983 756 985 q 760 980 759 981 q 766 977 763 978 q 771 975 768 976 q 781 976 778 975 q 786 977 784 976 q 790 980 788 978 q 797 987 794 983 q 800 991 799 989 q 802 997 801 994 l 812 1056 l 826 1054 l 814 994 q 813 989 813 992 q 811 984 813 987 q 809 979 810 981 q 806 975 808 977 q 802 972 804 974 q 798 969 799 970 q 790 965 794 966 q 784 963 787 963 q 779 962 781 963 q 769 963 772 962 q 763 964 765 963 q 758 966 761 965 q 754 968 756 967 q 750 971 752 969 q 742 978 745 974 q 738 988 741 982 q 736 998 736 992 q 737 1008 736 1005 l 747 1067 l 760 1065 l 750 1006 m 878 1018 q 877 1020 878 1019 q 875 1023 876 1022 q 872 1024 874 1024 q 869 1025 871 1024 q 863 1026 867 1026 l 858 1026 q 853 1024 856 1024 q 851 1019 851 1022 q 851 1014 849 1016 q 852 1010 851 1011 q 853 1007 853 1008 q 856 1005 854 1006 q 863 1000 858 1003 q 865 998 864 999 q 867 996 865 997 q 869 994 868 995 q 871 992 869 993 q 873 991 872 992 q 875 989 874 990 q 876 987 876 988 q 878 985 876 986 q 881 962 885 974 q 877 956 879 958 q 874 951 876 953 q 868 947 871 949 q 863 944 866 945 q 851 942 858 942 q 845 942 848 942 q 839 943 842 942 q 820 959 826 949 q 819 961 820 960 q 817 963 818 962 q 817 965 817 964 q 817 967 817 965 q 816 969 816 967 l 816 972 l 820 973 q 825 972 823 973 q 831 967 829 971 l 831 966 q 833 963 833 964 q 835 960 834 962 q 840 958 838 959 q 843 956 841 957 q 846 956 844 956 q 849 956 848 956 q 853 956 851 956 q 857 956 856 956 q 863 960 862 958 q 867 966 867 963 q 867 973 869 970 q 867 976 867 974 q 865 978 866 977 q 863 981 864 980 q 860 984 862 983 q 858 986 859 985 q 853 988 856 987 q 850 992 852 990 q 847 996 848 994 q 843 999 844 997 q 840 1004 842 1001 q 838 1008 839 1006 q 837 1012 837 1010 q 839 1024 835 1017 q 844 1033 840 1029 q 853 1038 849 1038 q 859 1040 856 1040 q 863 1040 861 1040 q 869 1040 866 1040 q 875 1038 872 1039 q 881 1034 878 1038 q 888 1028 885 1031 q 890 1025 889 1026 q 892 1022 892 1024 q 893 1019 893 1020 q 894 1016 894 1017 l 890 1014 q 883 1014 887 1013 q 878 1018 880 1017 m 930 903 l 876 931 l 920 1019 l 974 991 l 969 978 l 927 1001 l 914 975 l 948 958 l 941 945 l 907 963 l 894 938 l 936 915 l 930 903 m 992 922 q 1003 931 997 929 q 1008 935 1005 933 q 1013 938 1010 936 q 1020 939 1017 939 q 1026 940 1023 939 q 1033 940 1030 940 q 1040 939 1036 940 q 1052 935 1046 938 q 1063 927 1057 933 q 1068 923 1065 925 q 1072 917 1071 920 q 1077 906 1076 912 q 1080 893 1080 900 q 1080 886 1080 890 q 1079 880 1080 883 q 1077 873 1078 876 q 1075 867 1076 870 q 1067 857 1072 860 q 1063 851 1065 853 q 1058 847 1060 849 q 1051 844 1054 845 q 1045 842 1049 842 q 1033 840 1039 840 q 1026 840 1029 840 q 1019 840 1023 840 q 1014 842 1017 841 q 1008 844 1011 842 q 1002 848 1004 846 q 996 851 999 849 q 989 859 992 856 q 984 867 986 863 q 981 877 983 872 q 979 886 980 881 q 982 906 979 897 q 992 922 985 916 m 1003 914 q 994 901 997 908 q 993 894 993 898 q 992 888 992 891 q 993 880 992 883 q 996 874 994 877 q 1000 867 999 870 q 1005 862 1002 864 q 1011 858 1008 859 q 1018 854 1015 856 q 1031 853 1026 852 q 1045 857 1040 853 q 1052 860 1049 858 q 1058 865 1055 863 q 1064 878 1063 871 q 1066 892 1067 884 q 1065 899 1066 895 q 1063 906 1065 902 q 1059 911 1061 909 q 1054 917 1057 914 q 1048 921 1051 919 q 1041 924 1044 923 q 1034 926 1038 926 q 1027 926 1031 926 q 1020 925 1024 926 q 1013 922 1017 924 q 1003 914 1007 919 m 1046 804 l 1038 814 l 1117 874 l 1124 865 q 1126 860 1126 862 l 1126 854 l 1097 771 q 1097 770 1097 770 q 1097 769 1097 770 q 1096 769 1097 769 q 1095 768 1095 769 l 1094 767 l 1160 815 l 1169 805 l 1090 746 l 1083 754 q 1080 759 1081 756 q 1081 764 1080 763 l 1109 849 q 1110 849 1109 849 q 1110 850 1110 849 l 1111 851 q 1113 853 1112 852 l 1046 804 m 1094 734 l 1183 779 l 1188 768 l 1113 728 l 1133 691 l 1120 684 l 1094 734 m 1131 656 l 1126 668 l 1165 683 q 1167 684 1167 684 q 1169 685 1169 685 q 1170 687 1169 687 q 1170 688 1170 688 q 1172 690 1172 688 l 1205 740 l 1207 732 q 1209 727 1208 729 q 1209 724 1209 725 q 1208 720 1208 722 q 1206 717 1207 719 l 1185 685 l 1183 683 l 1183 683 l 1184 683 q 1186 683 1184 683 l 1224 672 q 1227 670 1225 671 q 1230 668 1228 669 q 1233 663 1233 667 l 1237 653 l 1180 670 q 1178 671 1178 670 l 1175 671 l 1172 671 q 1169 670 1170 671 l 1131 656 z "},"9":{"ha":1385,"x_min":133,"x_max":1237,"o":"m 927 226 q 815 160 877 185 q 683 135 753 135 q 552 160 613 135 q 442 226 492 185 l 927 226 m 413 254 q 347 365 370 303 q 323 497 323 426 q 344 620 323 563 q 404 726 365 678 l 883 726 l 413 254 m 440 766 q 551 834 490 810 q 683 859 613 859 q 815 834 753 859 q 923 766 876 809 l 440 766 m 1044 497 q 1023 372 1044 430 q 963 265 1001 314 l 482 265 l 952 740 q 1021 623 998 683 q 1044 497 1044 563 m 800 76 q 743 65 772 69 q 683 60 715 60 q 565 76 622 60 q 460 122 508 92 q 372 191 411 151 q 305 280 333 231 q 262 383 277 328 q 247 497 247 438 q 263 615 247 558 q 308 721 278 672 q 377 809 337 769 q 466 876 417 849 q 570 919 515 904 q 683 935 625 935 q 858 899 778 935 q 996 802 938 863 q 1087 662 1054 741 q 1119 497 1119 583 q 1094 350 1119 418 q 1026 228 1069 282 q 925 135 983 174 q 800 76 867 97 m 789 883 q 739 895 765 891 q 683 899 713 899 q 574 884 626 899 q 477 842 522 869 q 397 778 433 815 q 336 696 361 740 q 297 601 310 651 q 283 497 283 550 q 297 392 283 442 q 337 296 311 341 q 399 214 363 251 q 479 150 435 177 q 575 109 524 124 q 683 94 627 94 q 839 125 766 94 q 967 211 913 157 q 1053 339 1022 266 q 1085 497 1085 413 q 1061 634 1085 570 q 997 747 1038 697 q 903 832 957 797 q 789 883 849 867 m 205 221 l 227 183 l 208 172 l 168 238 l 177 243 q 188 246 183 247 l 257 239 l 235 276 l 255 287 l 293 221 l 284 216 q 279 215 280 215 q 274 213 277 213 l 205 221 m 265 100 l 223 151 l 299 215 l 342 163 l 324 149 l 296 181 l 285 172 l 307 147 l 290 131 l 268 157 l 255 147 l 282 115 l 265 100 m 331 140 l 347 157 l 406 106 l 392 90 l 371 108 l 322 49 l 304 64 l 353 122 l 331 140 m 428 94 l 444 83 l 431 -23 l 417 -15 q 414 -12 416 -13 q 412 -9 412 -10 q 410 -5 410 -6 l 410 -1 l 412 11 l 379 31 l 369 24 q 368 23 369 23 q 366 22 367 23 l 362 22 q 359 22 360 22 q 358 22 358 22 q 355 23 356 23 q 353 24 353 23 l 340 31 l 428 94 m 419 60 q 418 59 418 59 q 416 58 415 58 q 415 56 415 56 q 415 56 415 56 l 400 45 l 415 35 l 417 54 q 417 55 417 55 q 418 56 418 56 q 418 58 418 58 q 419 58 419 58 q 419 59 419 59 q 419 60 419 60 m 522 6 l 513 -16 l 480 -3 l 467 -37 l 444 -28 l 481 63 l 542 40 l 535 19 l 494 33 l 489 19 l 522 6 m 529 -9 q 533 4 530 -3 q 541 14 538 8 q 545 19 543 17 q 550 23 548 21 q 556 26 553 25 q 563 28 559 27 q 569 30 565 30 q 576 31 572 31 q 582 31 579 31 q 589 30 585 31 q 595 28 592 28 q 601 26 599 27 q 613 19 608 22 q 617 14 615 16 q 621 9 619 12 q 626 -3 626 3 q 628 -10 628 -7 q 630 -16 629 -12 q 630 -23 630 -19 q 629 -29 630 -26 q 624 -42 628 -36 q 620 -48 622 -45 q 617 -53 619 -50 q 608 -61 614 -58 q 601 -64 604 -62 q 595 -67 599 -65 q 589 -69 592 -68 q 583 -69 586 -69 q 576 -69 579 -69 q 568 -68 573 -69 q 562 -67 565 -67 q 556 -65 560 -66 q 551 -61 553 -63 q 545 -57 548 -60 q 541 -52 542 -55 q 537 -47 539 -49 q 534 -42 535 -44 q 531 -36 532 -39 q 528 -23 529 -28 q 528 -16 528 -19 q 529 -9 528 -12 m 553 -14 q 553 -25 552 -20 q 554 -30 553 -27 q 556 -35 555 -32 q 563 -42 559 -39 q 568 -44 565 -44 q 574 -46 571 -45 q 584 -46 578 -48 q 594 -43 590 -45 q 601 -35 599 -39 q 604 -30 603 -32 q 606 -25 606 -27 q 606 -13 608 -19 q 601 -4 606 -10 q 598 0 600 -1 q 594 4 597 2 q 590 6 592 6 q 584 8 588 7 q 574 8 578 10 q 568 6 571 7 q 563 4 566 6 q 560 1 562 3 q 557 -4 558 -1 q 553 -14 554 -7 m 727 -78 l 706 -79 l 661 -13 l 662 -79 l 638 -80 l 637 19 l 647 19 l 656 19 q 663 19 661 19 q 666 15 665 17 l 701 -34 q 701 -35 701 -35 q 702 -37 701 -36 q 703 -39 702 -38 q 703 -40 703 -39 q 704 -43 703 -42 l 702 20 l 726 20 l 727 -78 m 738 -1 l 734 22 l 812 35 l 816 14 l 789 8 l 803 -66 l 781 -70 l 767 4 l 738 -1 m 856 28 q 851 27 853 28 q 849 26 849 27 q 848 23 848 23 q 849 22 848 22 q 851 19 849 19 q 852 18 851 19 q 853 17 852 17 l 860 17 l 867 17 q 874 17 871 17 q 880 17 876 17 q 884 15 883 15 q 889 13 886 15 q 897 7 894 10 q 902 -3 901 4 q 904 -15 905 -9 q 903 -22 904 -19 q 900 -28 901 -24 q 897 -33 899 -31 q 892 -39 895 -35 q 885 -42 888 -40 q 879 -45 883 -44 q 874 -47 876 -46 q 867 -47 871 -47 q 857 -46 863 -49 q 847 -42 851 -45 q 842 -39 844 -41 q 839 -35 840 -37 l 844 -28 q 847 -26 845 -26 q 849 -24 849 -24 q 856 -23 851 -23 q 859 -23 858 -23 q 861 -24 860 -24 q 864 -24 863 -24 q 866 -25 865 -25 q 871 -24 869 -25 q 874 -23 873 -24 q 876 -22 874 -23 l 879 -19 q 881 -14 881 -17 q 881 -10 881 -14 l 878 -8 q 875 -7 878 -7 q 872 -6 874 -6 q 869 -6 871 -6 l 863 -6 q 858 -6 860 -6 q 852 -5 856 -6 q 842 -3 848 -5 q 837 -1 840 -2 q 833 2 835 1 q 826 13 830 6 q 825 19 825 16 q 825 24 825 22 q 826 30 826 28 q 829 35 827 33 q 832 41 831 39 q 837 44 834 42 q 847 50 842 48 q 851 51 849 51 q 856 52 853 52 q 860 51 858 52 q 865 51 862 51 q 868 50 866 50 q 874 48 870 49 q 877 46 875 47 q 880 44 878 46 l 876 37 q 874 32 875 35 q 870 31 872 31 q 867 31 869 31 q 865 30 867 30 l 861 30 l 858 30 q 856 28 856 30 m 918 -14 q 917 -11 918 -12 q 917 -9 917 -10 q 918 -4 917 -6 q 920 1 918 -3 q 924 4 921 3 q 927 5 926 5 q 930 6 928 5 q 932 5 931 6 q 935 5 933 5 q 939 2 938 3 q 942 -3 941 1 q 945 -8 945 -6 q 944 -12 945 -11 q 942 -15 942 -14 q 941 -17 942 -16 q 939 -19 940 -18 q 937 -21 938 -19 q 932 -22 933 -22 q 927 -22 928 -22 q 921 -19 924 -22 q 918 -14 919 -17 m 954 46 q 962 38 956 42 q 966 35 964 36 q 972 33 969 35 q 982 33 976 32 q 987 35 985 33 q 992 38 989 36 q 995 41 994 39 q 999 44 997 42 l 1003 50 q 1008 58 1004 55 q 1010 59 1009 59 q 1013 60 1012 59 l 1019 60 l 1027 58 q 1026 52 1026 55 q 1024 46 1025 49 q 1019 35 1023 42 q 1013 26 1017 30 q 1005 19 1008 22 q 998 16 1001 17 q 992 13 995 14 q 979 10 986 10 q 973 10 976 10 q 966 11 969 10 q 961 13 964 13 q 954 15 958 13 q 949 18 951 17 q 944 23 946 20 q 939 27 941 25 q 934 32 936 29 q 931 39 933 35 q 928 45 930 42 q 927 51 928 48 q 926 58 927 54 q 926 64 926 61 q 927 70 926 67 q 931 83 928 76 q 934 88 933 85 q 938 94 935 91 q 943 99 940 97 q 949 103 946 101 q 958 108 954 106 q 964 109 961 109 q 969 111 966 110 l 981 111 q 988 110 985 111 q 992 109 990 110 l 992 100 q 990 95 990 97 q 988 93 988 94 q 985 91 987 92 q 976 88 980 88 q 969 87 972 88 q 960 84 965 86 q 953 76 956 81 q 950 67 950 71 q 950 56 949 61 q 954 46 951 49 m 1013 85 q 1009 90 1010 88 q 1005 96 1007 92 q 1002 102 1003 99 q 1001 108 1001 105 q 999 115 999 112 q 999 121 999 117 q 1000 127 999 124 q 1001 134 1000 131 q 1003 140 1001 138 q 1006 147 1004 143 q 1009 151 1008 149 q 1014 156 1011 154 q 1019 161 1017 159 q 1025 165 1022 163 q 1031 168 1028 167 q 1037 169 1033 169 q 1043 171 1040 171 q 1049 171 1046 171 q 1056 171 1053 171 q 1063 169 1059 171 q 1069 168 1066 169 q 1075 165 1072 167 q 1081 161 1078 163 q 1086 156 1083 159 q 1090 151 1088 153 q 1094 145 1092 149 q 1096 140 1095 142 q 1099 133 1097 137 q 1099 127 1099 130 q 1099 120 1099 124 q 1098 108 1099 115 q 1096 102 1097 105 q 1093 96 1094 99 q 1085 85 1090 90 q 1080 80 1082 82 q 1074 77 1077 78 q 1068 74 1071 76 q 1062 72 1065 73 q 1049 70 1056 70 q 1036 72 1042 70 q 1030 74 1033 73 q 1024 77 1027 76 q 1019 81 1022 78 q 1013 85 1016 83 m 1030 101 q 1034 98 1032 99 q 1040 95 1037 97 q 1049 94 1044 94 q 1060 95 1057 94 q 1065 98 1063 96 q 1069 101 1067 99 q 1075 110 1074 106 q 1077 120 1077 115 q 1075 131 1077 125 q 1069 140 1074 135 q 1060 147 1065 144 q 1049 149 1056 149 q 1044 148 1047 149 q 1040 147 1042 148 q 1034 144 1037 146 q 1030 140 1032 143 q 1024 131 1026 138 q 1022 126 1022 129 q 1022 121 1022 124 q 1024 111 1022 114 q 1026 106 1025 108 q 1030 101 1028 103 m 1190 224 l 1178 203 l 1138 229 l 1166 187 l 1156 170 l 1106 179 l 1144 153 l 1131 134 l 1049 188 l 1058 201 q 1064 207 1060 205 q 1068 208 1066 208 q 1072 208 1071 208 l 1131 199 l 1098 247 q 1096 252 1097 250 q 1095 256 1095 253 q 1096 260 1095 258 q 1098 264 1097 262 l 1107 277 l 1190 224 m 231 645 l 226 632 l 133 667 l 146 699 q 151 710 148 706 q 162 717 156 716 q 167 719 165 719 q 173 720 169 720 q 179 720 176 720 q 185 719 182 719 q 195 711 192 716 q 200 707 199 710 q 202 702 201 705 q 204 696 203 699 q 206 691 205 693 q 203 678 206 685 l 197 658 l 231 645 m 191 683 q 191 686 191 685 q 192 690 192 688 q 191 693 192 692 q 190 697 191 694 q 189 699 190 698 q 186 702 188 701 q 181 706 184 704 q 177 706 179 706 q 174 706 175 706 q 170 706 172 706 q 167 705 169 706 q 165 703 166 703 q 162 701 163 703 q 158 695 159 697 l 151 674 l 183 663 l 191 683 m 281 753 l 251 699 l 165 747 l 194 800 l 206 793 l 183 752 l 208 738 l 227 772 l 239 766 l 220 733 l 246 717 l 269 759 l 281 753 m 294 771 l 286 760 l 208 820 l 228 849 q 233 852 231 850 q 238 856 235 854 q 243 858 240 858 q 248 860 245 859 q 253 860 251 860 q 259 859 256 860 q 269 853 265 858 q 273 850 272 852 q 276 847 274 849 q 278 843 277 845 q 280 840 279 841 q 281 834 281 836 q 281 830 281 832 q 279 822 281 826 l 331 820 l 326 813 q 321 808 324 810 q 317 807 319 808 q 315 806 316 806 l 271 808 l 262 796 l 294 771 m 226 823 l 251 804 l 264 822 q 266 824 265 823 q 267 827 266 826 l 267 833 q 267 835 267 834 q 265 839 266 837 q 261 842 263 842 q 256 845 258 845 q 250 846 254 846 q 247 845 249 845 q 244 844 246 845 q 240 840 242 843 l 226 823 m 303 903 q 299 903 300 903 q 296 902 297 903 q 292 899 294 901 q 288 894 290 897 q 286 889 286 892 l 286 884 q 289 880 287 882 q 293 876 291 877 l 297 876 q 303 878 299 876 q 307 880 306 879 q 312 881 309 880 q 314 883 313 882 q 316 883 315 883 q 322 885 317 884 q 326 888 324 885 q 328 888 327 888 q 331 888 329 888 q 353 880 344 890 q 360 869 360 876 q 361 863 361 865 q 362 858 362 861 q 360 851 361 854 q 358 845 360 848 q 355 839 357 842 q 351 835 352 837 q 329 824 342 826 l 325 824 q 321 826 323 826 q 318 826 319 826 q 317 826 317 826 q 316 827 316 826 q 315 827 316 827 l 316 831 q 317 833 317 832 q 318 835 317 834 q 326 839 324 839 l 328 839 q 335 840 331 839 q 342 844 338 841 q 343 847 343 846 q 345 850 344 849 q 347 858 347 853 q 347 864 349 860 q 346 867 347 866 q 344 870 345 869 q 338 874 342 874 q 331 874 334 876 q 325 872 327 874 q 317 868 319 870 q 308 865 315 867 q 302 863 305 863 q 298 863 299 863 q 288 863 291 863 q 283 866 286 865 q 279 870 281 867 q 273 880 274 874 q 272 890 272 886 q 276 900 274 897 q 281 909 277 903 q 289 913 285 913 q 296 916 292 916 q 304 917 303 917 q 311 917 309 917 l 310 913 q 308 906 310 910 q 303 903 306 903 m 344 900 q 341 906 343 903 q 339 913 340 909 q 335 925 335 919 q 335 932 335 928 q 335 938 335 935 q 338 945 337 942 q 340 951 339 948 q 343 956 342 954 q 347 962 345 958 q 358 970 351 966 q 369 976 363 975 q 383 978 376 978 q 396 978 389 981 q 401 977 399 978 q 407 974 403 976 q 413 971 410 973 q 419 967 416 969 q 423 963 422 965 q 428 957 425 960 q 431 951 429 954 q 433 945 433 949 q 436 933 436 939 q 436 919 438 926 q 434 913 435 916 q 432 907 433 910 q 424 896 428 900 q 420 891 422 894 q 415 888 418 889 q 397 880 405 881 q 376 880 386 877 q 367 882 372 881 q 358 886 363 884 q 344 900 350 892 m 356 908 q 366 898 359 901 q 379 893 372 894 q 394 893 386 891 q 406 899 401 894 q 417 909 414 903 q 420 915 419 913 q 422 922 421 918 q 422 937 423 929 q 420 943 421 940 q 416 949 419 946 q 406 960 413 956 q 393 965 399 965 q 379 965 385 967 q 365 959 372 964 q 355 949 359 955 q 352 942 353 945 q 349 935 351 939 q 349 922 348 929 q 352 915 351 918 q 356 908 353 912 m 474 924 l 460 918 l 423 1010 l 433 1014 q 438 1015 435 1015 q 442 1014 442 1015 l 518 965 l 519 965 q 519 963 519 963 q 521 962 521 963 q 522 962 521 962 l 490 1038 l 503 1042 l 540 951 l 531 947 q 525 947 528 947 q 519 947 522 947 l 446 996 q 444 996 444 996 q 443 997 444 997 q 442 999 443 998 q 442 999 442 999 l 442 1001 l 474 924 m 563 1058 l 576 1060 l 638 972 l 630 970 q 627 970 628 969 q 624 970 626 970 q 619 974 621 971 l 610 988 l 560 978 l 557 962 q 553 956 556 958 q 551 954 553 955 q 548 953 549 953 l 540 952 l 563 1058 m 573 1038 l 563 993 l 601 1001 l 576 1038 q 574 1040 574 1039 q 573 1043 574 1042 l 573 1040 l 573 1038 m 638 969 l 635 1069 l 648 1069 l 651 984 l 695 986 l 696 972 l 638 969 m 750 1006 q 750 995 749 1000 q 752 991 751 993 q 754 987 753 988 q 757 983 756 985 q 760 980 759 981 q 766 977 763 978 q 771 975 768 976 q 781 976 778 975 q 786 977 784 976 q 790 980 788 978 q 797 987 794 983 q 800 991 799 989 q 802 997 801 994 l 812 1056 l 826 1054 l 814 994 q 813 989 813 992 q 811 984 813 987 q 809 979 810 981 q 806 975 808 977 q 802 972 804 974 q 798 969 799 970 q 790 965 794 966 q 784 963 787 963 q 779 962 781 963 q 769 963 772 962 q 763 964 765 963 q 758 966 761 965 q 754 968 756 967 q 750 971 752 969 q 742 978 745 974 q 738 988 741 982 q 736 998 736 992 q 737 1008 736 1005 l 747 1067 l 760 1065 l 750 1006 m 878 1018 q 877 1020 878 1019 q 875 1023 876 1022 q 872 1024 874 1024 q 869 1025 871 1024 q 863 1026 867 1026 l 858 1026 q 853 1024 856 1024 q 851 1019 851 1022 q 851 1014 849 1016 q 852 1010 851 1011 q 853 1007 853 1008 q 856 1005 854 1006 q 863 1000 858 1003 q 865 998 864 999 q 867 996 865 997 q 869 994 868 995 q 871 992 869 993 q 873 991 872 992 q 875 989 874 990 q 876 987 876 988 q 878 985 876 986 q 881 962 885 974 q 877 956 879 958 q 874 951 876 953 q 868 947 871 949 q 863 944 866 945 q 851 942 858 942 q 845 942 848 942 q 839 943 842 942 q 820 959 826 949 q 819 961 820 960 q 817 963 818 962 q 817 965 817 964 q 817 967 817 965 q 816 969 816 967 l 816 972 l 820 973 q 825 972 823 973 q 831 967 829 971 l 831 966 q 833 963 833 964 q 835 960 834 962 q 840 958 838 959 q 843 956 841 957 q 846 956 844 956 q 849 956 848 956 q 853 956 851 956 q 857 956 856 956 q 863 960 862 958 q 867 966 867 963 q 867 973 869 970 q 867 976 867 974 q 865 978 866 977 q 863 981 864 980 q 860 984 862 983 q 858 986 859 985 q 853 988 856 987 q 850 992 852 990 q 847 996 848 994 q 843 999 844 997 q 840 1004 842 1001 q 838 1008 839 1006 q 837 1012 837 1010 q 839 1024 835 1017 q 844 1033 840 1029 q 853 1038 849 1038 q 859 1040 856 1040 q 863 1040 861 1040 q 869 1040 866 1040 q 875 1038 872 1039 q 881 1034 878 1038 q 888 1028 885 1031 q 890 1025 889 1026 q 892 1022 892 1024 q 893 1019 893 1020 q 894 1016 894 1017 l 890 1014 q 883 1014 887 1013 q 878 1018 880 1017 m 930 903 l 876 931 l 920 1019 l 974 991 l 969 978 l 927 1001 l 914 975 l 948 958 l 941 945 l 907 963 l 894 938 l 936 915 l 930 903 m 992 922 q 1003 931 997 929 q 1008 935 1005 933 q 1013 938 1010 936 q 1020 939 1017 939 q 1026 940 1023 939 q 1033 940 1030 940 q 1040 939 1036 940 q 1052 935 1046 938 q 1063 927 1057 933 q 1068 923 1065 925 q 1072 917 1071 920 q 1077 906 1076 912 q 1080 893 1080 900 q 1080 886 1080 890 q 1079 880 1080 883 q 1077 873 1078 876 q 1075 867 1076 870 q 1067 857 1072 860 q 1063 851 1065 853 q 1058 847 1060 849 q 1051 844 1054 845 q 1045 842 1049 842 q 1033 840 1039 840 q 1026 840 1029 840 q 1019 840 1023 840 q 1014 842 1017 841 q 1008 844 1011 842 q 1002 848 1004 846 q 996 851 999 849 q 989 859 992 856 q 984 867 986 863 q 981 877 983 872 q 979 886 980 881 q 982 906 979 897 q 992 922 985 916 m 1003 914 q 994 901 997 908 q 993 894 993 898 q 992 888 992 891 q 993 880 992 883 q 996 874 994 877 q 1000 867 999 870 q 1005 862 1002 864 q 1011 858 1008 859 q 1018 854 1015 856 q 1031 853 1026 852 q 1045 857 1040 853 q 1052 860 1049 858 q 1058 865 1055 863 q 1064 878 1063 871 q 1066 892 1067 884 q 1065 899 1066 895 q 1063 906 1065 902 q 1059 911 1061 909 q 1054 917 1057 914 q 1048 921 1051 919 q 1041 924 1044 923 q 1034 926 1038 926 q 1027 926 1031 926 q 1020 925 1024 926 q 1013 922 1017 924 q 1003 914 1007 919 m 1046 804 l 1038 814 l 1117 874 l 1124 865 q 1126 860 1126 862 l 1126 854 l 1097 771 q 1097 770 1097 770 q 1097 769 1097 770 q 1096 769 1097 769 q 1095 768 1095 769 l 1094 767 l 1160 815 l 1169 805 l 1090 746 l 1083 754 q 1080 759 1081 756 q 1081 764 1080 763 l 1109 849 q 1110 849 1109 849 q 1110 850 1110 849 l 1111 851 q 1113 853 1112 852 l 1046 804 m 1094 734 l 1183 779 l 1188 768 l 1113 728 l 1133 691 l 1120 684 l 1094 734 m 1131 656 l 1126 668 l 1165 683 q 1167 684 1167 684 q 1169 685 1169 685 q 1170 687 1169 687 q 1170 688 1170 688 q 1172 690 1172 688 l 1205 740 l 1207 732 q 1209 727 1208 729 q 1209 724 1209 725 q 1208 720 1208 722 q 1206 717 1207 719 l 1185 685 l 1183 683 l 1183 683 l 1184 683 q 1186 683 1184 683 l 1224 672 q 1227 670 1225 671 q 1230 668 1228 669 q 1233 663 1233 667 l 1237 653 l 1180 670 q 1178 671 1178 670 l 1175 671 l 1172 671 q 1169 670 1170 671 l 1131 656 z "},"\u0000":{"ha":0,"x_min":0,"x_max":0,"o":""},"\r":{"ha":435,"x_min":0,"x_max":0,"o":""}," ":{"ha":435,"x_min":0,"x_max":0,"o":""},"J":{"ha":627,"x_min":-100,"x_max":513,"o":"m 243 1003 q 270 1031 243 1029 l 475 1031 q 513 995 513 1031 l 513 44 q 485 -85 513 -25 q 411 -190 458 -145 q 303 -260 365 -235 q 174 -286 242 -286 q 94 -277 133 -286 q 20 -250 56 -268 q -45 -207 -15 -233 q -98 -147 -75 -181 q -100 -135 -100 -146 q -89 -109 -100 -117 l 32 4 q 44 12 38 9 q 56 15 50 15 q 75 8 66 15 q 96 -9 85 0 q 123 -26 108 -19 q 160 -34 138 -34 q 191 -28 176 -34 q 218 -11 206 -22 q 236 14 229 -1 q 243 44 243 28 l 243 1003 z "},"K":{"ha":1062,"x_min":110,"x_max":1035,"o":"m 110 1001 q 118 1022 110 1013 q 141 1031 126 1031 l 347 1031 q 368 1023 357 1031 q 380 1001 380 1015 l 380 622 q 528 814 456 719 q 676 1006 601 908 q 696 1025 684 1017 q 720 1032 708 1032 l 984 1032 q 1001 1022 1001 1032 q 993 1005 1001 1015 l 666 574 l 1028 29 q 1035 10 1035 17 q 1020 0 1035 0 l 758 0 q 734 7 746 0 q 715 26 723 14 q 648 122 678 76 q 590 213 618 167 q 532 305 561 258 q 468 403 503 351 l 380 301 l 380 31 q 347 0 380 0 l 142 0 q 110 31 110 0 l 110 1001 z "},"L":{"ha":819,"x_min":88,"x_max":769,"o":"m 88 1001 q 96 1023 88 1014 q 119 1032 104 1032 l 324 1032 q 346 1024 336 1032 q 356 1001 356 1015 l 356 246 l 738 246 q 760 238 751 246 q 769 215 769 229 l 769 32 q 761 10 769 20 q 738 0 753 1 l 118 0 q 88 31 88 0 l 88 1001 z "},"M":{"ha":1334,"x_min":70,"x_max":1262,"o":"m 169 1001 q 179 1022 171 1013 q 203 1031 188 1031 l 443 1031 q 476 1005 469 1031 l 665 374 l 856 1005 q 891 1031 865 1031 l 1128 1031 q 1151 1023 1141 1031 q 1163 1001 1161 1014 q 1212 516 1187 756 q 1262 31 1238 275 l 1262 27 q 1231 0 1262 0 l 1035 0 q 1001 31 1003 0 l 941 567 l 785 27 q 775 10 783 20 q 758 1 766 1 l 575 1 q 557 10 567 1 q 547 27 548 19 l 391 566 l 331 31 q 297 0 329 0 l 100 0 q 70 31 70 0 l 169 1001 z "},"P":{"ha":933,"x_min":99,"x_max":894,"o":"m 99 999 q 106 1023 99 1014 q 129 1031 114 1031 l 573 1031 q 663 1018 621 1031 q 741 982 706 1005 q 805 926 776 958 q 853 856 833 894 q 883 777 873 819 q 894 694 894 736 q 871 572 894 631 q 807 465 849 512 q 707 390 765 419 q 578 360 649 361 l 367 360 l 367 30 q 335 0 367 0 l 129 0 q 107 7 115 0 q 99 30 99 15 l 99 999 m 622 695 q 614 737 622 716 q 593 774 607 758 q 559 801 579 790 q 515 811 540 811 l 367 811 l 367 579 l 515 579 q 560 589 540 579 q 593 615 580 599 q 614 652 607 631 q 622 695 622 673 z "},"R":{"ha":977,"x_min":113,"x_max":962,"o":"m 113 999 q 121 1023 113 1014 q 144 1031 128 1031 l 592 1031 q 726 1005 664 1031 q 835 932 789 978 q 909 825 882 886 q 935 694 935 763 q 923 604 935 647 q 887 524 910 561 q 832 457 864 487 q 763 405 801 426 l 942 69 q 954 46 947 59 q 962 23 962 33 q 955 6 962 12 q 935 0 947 0 l 697 0 q 675 7 685 0 q 663 26 666 14 l 494 343 l 382 343 l 382 30 q 350 0 382 0 l 144 0 q 122 7 130 0 q 113 30 113 15 l 113 999 m 657 691 q 649 733 657 712 q 628 771 642 753 q 594 800 614 788 q 551 815 575 812 q 515 818 532 817 q 478 819 498 819 l 382 819 l 382 564 l 510 564 q 532 565 522 564 q 553 567 542 565 q 597 581 578 569 q 630 609 617 592 q 650 648 643 626 q 657 691 657 669 z "},"S":{"ha":911,"x_min":52,"x_max":857,"o":"m 242 333 q 272 307 253 323 q 314 274 290 290 q 384 238 349 251 q 457 224 419 224 q 516 232 492 224 q 554 253 540 240 q 574 284 568 267 q 580 321 580 301 q 564 359 580 342 q 524 390 547 376 q 474 412 500 403 q 430 428 449 422 q 284 491 347 457 q 180 566 222 524 q 117 657 138 607 q 97 767 97 706 q 123 885 97 832 q 197 975 149 938 q 313 1033 245 1013 q 465 1053 381 1053 q 586 1039 528 1053 q 701 994 644 1025 q 745 965 724 980 q 783 936 767 950 q 808 910 799 922 q 817 888 817 897 q 813 872 817 879 q 799 854 808 864 l 693 741 q 669 729 681 729 q 652 735 660 729 q 634 749 644 740 l 628 754 q 597 778 614 766 q 560 801 580 791 q 519 818 541 811 q 476 824 498 824 q 433 820 453 824 q 397 808 413 817 q 373 786 382 800 q 364 753 364 773 q 374 720 364 734 q 403 693 383 706 q 451 670 422 681 q 518 647 480 660 q 654 596 592 623 q 761 533 716 569 q 832 446 806 497 q 857 323 857 395 q 826 184 857 247 q 740 78 794 122 q 612 11 685 35 q 453 -13 538 -13 q 297 15 374 -13 q 153 92 219 44 q 106 131 125 112 q 76 163 87 151 l 74 165 q 72 166 73 166 q 71 167 72 167 q 69 169 70 169 q 68 170 69 169 q 52 198 52 188 q 68 224 52 210 l 188 339 q 212 349 203 349 q 225 345 218 349 q 242 333 232 341 z "},"T":{"ha":925,"x_min":56,"x_max":869,"o":"m 56 1001 q 65 1023 56 1015 q 88 1031 74 1031 l 836 1031 q 858 1024 849 1031 q 869 1001 868 1016 l 869 828 q 861 804 869 815 q 836 792 852 792 l 597 792 l 597 33 q 588 10 597 20 q 564 0 578 0 l 360 0 q 338 9 348 0 q 327 33 327 19 l 327 792 l 88 792 q 65 801 74 792 q 56 828 56 810 l 56 1001 z "},"A":{"ha":1063,"x_min":24,"x_max":1042,"o":"m 407 1004 q 411 1013 408 1008 q 421 1022 415 1018 q 433 1029 426 1026 q 444 1031 439 1031 l 622 1031 q 642 1024 634 1031 q 655 1011 651 1017 l 672 972 l 1037 31 q 1035 9 1042 17 q 1008 0 1027 0 l 809 0 q 784 6 793 0 q 771 26 776 12 q 744 96 757 61 q 717 167 731 131 l 349 167 q 322 96 335 131 q 295 26 308 61 q 260 0 286 0 l 55 0 q 33 7 42 0 q 30 28 24 14 l 407 1004 m 533 707 q 507 631 520 672 q 480 548 493 590 q 453 466 467 506 q 426 390 440 425 l 640 390 l 533 707 z "},"U":{"ha":1076,"x_min":108,"x_max":987,"o":"m 378 412 q 392 325 378 360 q 430 266 406 289 q 484 233 453 244 q 548 223 515 223 q 614 235 583 223 q 668 271 644 247 q 705 331 691 295 q 718 412 718 366 l 718 1001 q 727 1022 718 1013 q 750 1031 735 1031 l 953 1031 q 978 1022 969 1031 q 987 1001 987 1013 l 987 415 q 951 211 987 294 q 855 78 915 128 q 715 6 794 28 q 548 -16 635 -16 q 381 7 460 -16 q 240 80 301 29 q 144 214 180 131 q 108 415 108 296 l 108 1001 q 116 1022 108 1013 q 136 1031 124 1031 l 344 1031 q 366 1023 355 1031 q 378 1001 378 1014 l 378 412 z "},"V":{"ha":1021,"x_min":13,"x_max":1008,"o":"m 396 15 q 382 40 388 27 q 371 67 376 53 l 15 1000 q 14 1006 15 1003 q 13 1012 13 1009 q 38 1031 13 1031 l 262 1031 q 298 1005 288 1031 l 510 373 q 564 531 538 452 q 616 689 590 610 q 667 847 641 768 q 722 1005 693 926 q 760 1031 731 1031 l 978 1031 q 1001 1025 994 1031 q 1008 1010 1008 1019 q 1007 1002 1008 1004 l 1007 1000 l 649 67 q 640 46 645 58 q 629 24 635 34 q 615 7 623 14 q 596 0 606 0 l 424 0 q 396 15 403 0 z "},"W":{"ha":1497,"x_min":13,"x_max":1481,"o":"m 397 15 q 383 39 390 26 q 372 64 377 51 q 194 532 283 300 q 15 1000 105 764 q 14 1006 15 1003 q 13 1012 13 1009 q 39 1031 13 1031 l 263 1031 q 299 1005 289 1031 l 511 372 l 708 1005 q 746 1031 717 1031 l 972 1031 q 994 1025 988 1031 q 1001 1010 1001 1019 q 1000 1002 1001 1004 l 1000 1000 l 876 646 l 969 373 l 1194 1005 q 1233 1031 1204 1031 l 1451 1031 q 1474 1025 1467 1031 q 1481 1010 1481 1019 q 1480 1002 1481 1004 l 1480 1000 q 1383 756 1433 878 q 1284 513 1334 635 q 1186 270 1235 392 q 1090 26 1137 148 q 1078 9 1088 19 q 1054 0 1068 0 l 1052 0 l 884 0 q 861 6 869 0 q 849 22 853 12 l 740 310 q 693 186 716 247 q 647 63 670 126 q 639 42 644 53 q 628 22 635 31 q 614 6 622 13 q 596 0 606 0 l 594 0 l 426 0 q 397 15 403 0 z "},"X":{"ha":1010,"x_min":10,"x_max":984,"o":"m 11 18 q 23 39 17 28 q 36 61 28 50 l 349 528 q 191 765 269 648 q 33 1003 113 883 q 26 1013 28 1008 q 23 1024 24 1018 q 31 1029 24 1029 q 44 1032 38 1028 l 286 1032 q 326 1006 312 1032 l 497 750 l 669 1006 q 709 1032 683 1032 l 927 1032 q 940 1032 933 1032 q 955 1032 948 1032 q 966 1029 961 1031 q 971 1023 971 1027 q 963 1005 971 1015 l 644 528 l 969 42 q 980 24 976 32 q 983 10 984 16 q 971 0 983 0 l 722 0 q 701 7 710 0 q 685 26 691 14 l 497 306 l 310 26 q 294 7 304 14 q 273 0 285 0 l 36 0 l 24 0 q 14 3 18 0 q 10 12 10 6 q 11 18 10 15 z "},"Y":{"ha":979,"x_min":17,"x_max":963,"o":"m 490 651 l 658 1010 q 665 1022 663 1018 q 671 1027 668 1026 q 677 1030 674 1029 q 684 1031 680 1030 l 951 1031 q 959 1028 956 1031 q 963 1021 963 1025 q 953 1003 963 1013 l 624 421 l 624 33 q 592 0 624 0 l 383 0 q 362 9 369 0 q 354 33 354 17 l 354 422 l 26 1003 q 17 1021 17 1013 q 19 1028 17 1025 q 27 1031 22 1031 l 294 1031 q 302 1030 299 1030 q 308 1027 305 1029 q 313 1022 310 1026 q 321 1010 316 1018 l 490 651 z "},"Z":{"ha":994,"x_min":75,"x_max":947,"o":"m 75 1001 q 84 1023 75 1015 q 108 1031 92 1031 l 914 1031 q 936 1024 927 1031 q 946 1001 946 1016 l 946 860 q 945 850 946 855 q 942 838 945 845 l 439 238 l 916 238 q 938 231 929 238 q 947 207 947 223 l 947 34 q 939 11 947 22 q 916 0 930 0 l 110 0 q 86 9 96 0 q 77 34 77 18 l 77 183 q 82 201 77 194 l 583 792 l 108 792 q 84 800 92 792 q 75 826 75 808 l 75 1001 z "},"|":{"ha":426,"x_min":113,"x_max":307,"o":"m 113 1001 q 120 1022 113 1013 q 143 1031 128 1031 l 274 1031 q 295 1023 284 1031 q 307 1001 307 1015 l 307 -236 q 274 -267 307 -267 l 143 -267 q 113 -236 113 -267 l 113 1001 z "},"":{"ha":415,"x_min":115,"x_max":304,"o":"m 115 1002 q 122 1024 115 1015 q 145 1033 130 1033 l 271 1033 q 294 1024 283 1033 q 304 1002 304 1016 l 304 484 q 271 453 304 453 l 145 453 q 115 484 115 453 l 115 1002 m 115 279 q 122 301 115 292 q 145 310 130 310 l 271 310 q 294 301 283 310 q 304 279 304 293 l 304 -239 q 271 -269 304 -269 l 145 -269 q 115 -239 115 -269 l 115 279 z "},"[":{"ha":582,"x_min":111,"x_max":474,"o":"m 111 1109 q 142 1140 111 1140 l 443 1140 q 474 1109 474 1138 l 474 944 q 465 920 474 929 q 443 912 456 912 l 359 912 l 359 -10 l 443 -10 q 465 -18 456 -10 q 474 -42 474 -27 l 474 -207 q 443 -237 474 -235 l 142 -237 q 111 -207 111 -237 l 111 1109 z "},"]":{"ha":582,"x_min":111,"x_max":473,"o":"m 473 -207 q 442 -237 473 -237 l 142 -237 q 111 -207 111 -235 l 111 -42 q 120 -18 111 -27 q 142 -10 128 -10 l 226 -10 l 226 912 l 142 912 q 120 920 128 912 q 111 944 111 929 l 111 1109 q 142 1140 111 1138 l 442 1140 q 473 1109 473 1140 l 473 -207 z "},"{":{"ha":616,"x_min":53,"x_max":542,"o":"m 160 917 q 188 1036 160 980 q 263 1133 216 1092 q 369 1198 310 1174 q 493 1222 429 1222 l 507 1222 q 542 1188 542 1219 l 542 978 q 533 952 542 963 q 512 942 524 942 l 499 942 q 469 936 483 942 q 444 919 455 930 q 428 895 434 909 q 422 865 422 881 l 422 540 q 410 493 422 515 q 383 453 399 471 q 410 412 399 434 q 422 364 422 390 l 422 33 q 428 2 422 17 q 444 -22 434 -12 q 469 -39 455 -33 q 499 -45 483 -45 l 512 -45 q 533 -55 524 -45 q 542 -81 542 -65 l 542 -296 q 507 -331 542 -329 l 493 -331 q 369 -307 429 -331 q 263 -242 310 -283 q 188 -145 216 -201 q 160 -26 160 -90 l 160 301 q 154 313 160 307 q 143 318 149 318 l 83 318 q 53 351 53 318 l 53 553 q 83 584 53 584 l 140 584 q 160 603 160 584 l 160 917 z "},"_":{"ha":932,"x_min":115,"x_max":816,"o":"m 115 159 q 145 190 115 190 l 785 190 q 807 182 798 190 q 816 159 816 174 l 816 33 q 814 23 816 28 q 808 12 812 17 q 798 3 803 7 q 785 0 792 0 l 145 0 q 115 33 115 0 l 115 159 z "},"":{"ha":932,"x_min":116,"x_max":817,"o":"m 116 488 q 147 518 116 518 l 787 518 q 808 510 799 518 q 817 488 817 503 l 817 365 q 809 343 817 355 q 787 332 801 332 l 147 332 q 116 365 116 332 l 116 488 z "},"":{"ha":351,"x_min":62,"x_max":300,"o":"m 62 457 q 71 503 62 482 q 97 541 81 525 q 135 566 113 557 q 181 576 156 576 q 227 566 206 576 q 265 541 249 557 q 291 503 281 525 q 300 457 300 482 q 291 411 300 433 q 265 373 281 389 q 227 347 249 356 q 181 338 206 338 q 135 347 156 338 q 97 373 113 356 q 71 411 81 389 q 62 457 62 433 z "},"^":{"ha":678,"x_min":52,"x_max":626,"o":"m 318 1099 q 339 1109 328 1109 q 359 1099 349 1109 l 617 842 q 626 820 626 833 q 617 801 626 809 l 528 710 q 504 698 516 698 q 483 707 492 698 l 339 852 l 194 707 q 173 699 182 699 q 151 709 161 699 l 63 797 q 52 820 52 806 q 61 842 52 833 l 318 1099 z "},"\\":{"ha":754,"x_min":19,"x_max":733,"o":"m 22 1001 q 20 1004 20 1002 q 19 1010 20 1006 q 30 1026 19 1022 q 55 1031 41 1031 l 247 1031 q 275 1022 265 1031 q 292 1001 286 1013 l 731 31 q 733 18 731 18 q 704 0 733 0 l 497 0 q 475 7 482 0 q 460 31 467 13 l 22 1001 z "},"~":{"ha":915,"x_min":78,"x_max":835,"o":"m 112 480 q 208 565 152 536 q 328 594 263 594 q 407 581 369 594 q 483 545 445 568 l 540 508 q 585 495 559 495 q 647 526 626 495 l 674 565 q 698 577 681 577 q 719 569 708 577 l 824 499 q 835 476 835 490 q 830 457 835 468 l 802 419 q 706 333 762 363 q 585 304 651 304 q 506 316 545 303 q 431 353 467 330 l 374 390 q 328 403 352 403 q 267 373 290 403 l 240 333 q 219 322 232 323 q 194 328 207 320 l 90 399 q 78 422 78 406 q 78 427 78 424 q 83 436 79 430 q 93 453 86 442 q 112 480 99 463 z "},"}":{"ha":610,"x_min":56,"x_max":545,"o":"m 438 603 q 458 584 438 584 l 515 584 q 545 553 545 584 l 545 351 q 515 318 545 318 l 455 318 q 444 313 449 318 q 438 301 438 307 l 438 -26 q 410 -145 438 -90 q 335 -242 381 -201 q 228 -307 288 -283 q 104 -331 167 -331 l 90 -331 q 56 -296 56 -329 l 56 -81 q 65 -55 56 -65 q 86 -45 74 -45 l 99 -45 q 129 -39 115 -45 q 153 -22 143 -33 q 170 2 164 -12 q 176 33 176 17 l 176 364 q 188 412 176 390 q 215 453 199 434 q 188 493 199 471 q 176 540 176 515 l 176 865 q 170 895 176 881 q 153 919 164 909 q 129 936 143 930 q 99 942 115 942 l 86 942 q 65 952 74 942 q 56 978 56 963 l 56 1188 q 90 1222 56 1219 l 104 1222 q 228 1198 167 1222 q 335 1133 288 1174 q 410 1036 381 1092 q 438 917 438 980 l 438 603 z "},"":{"ha":1071,"x_min":58,"x_max":980,"o":"m 954 956 q 972 938 966 949 q 969 912 977 927 l 852 745 q 836 732 844 733 q 815 738 827 730 q 740 777 781 763 q 653 791 699 791 q 530 761 584 791 q 441 681 476 731 l 591 681 q 613 673 604 681 q 622 650 622 665 l 622 574 q 613 551 622 563 q 591 540 605 540 l 392 540 q 392 528 392 534 q 392 516 392 522 q 394 481 392 497 l 591 481 q 613 473 604 481 q 622 450 622 465 l 622 374 q 613 351 622 363 q 591 340 605 340 l 450 340 q 537 268 485 294 q 653 242 588 242 q 740 257 699 242 q 816 297 782 271 q 837 303 828 304 q 853 290 845 301 l 972 119 q 974 94 980 104 q 957 76 969 83 q 816 9 892 33 q 658 -15 741 -15 q 491 11 570 -15 q 347 85 413 38 q 232 197 281 132 q 156 340 183 262 l 89 340 q 58 374 58 340 l 58 450 q 89 481 58 481 l 128 481 q 127 497 127 489 q 127 515 127 506 q 127 527 127 521 q 128 540 127 533 l 89 540 q 58 574 58 540 l 58 650 q 89 681 58 681 l 153 681 q 228 827 179 760 q 343 943 276 894 q 489 1019 409 992 q 658 1047 569 1047 q 815 1023 741 1047 q 954 956 889 1000 z "},"E":{"ha":938,"x_min":112,"x_max":879,"o":"m 112 999 q 120 1023 112 1014 q 142 1031 128 1031 l 832 1031 q 856 1022 847 1031 q 864 998 864 1013 l 864 826 q 856 803 864 814 q 831 792 847 792 l 381 792 l 381 621 l 728 621 q 750 615 742 621 q 759 594 759 608 l 759 444 q 751 425 759 434 q 729 416 744 416 l 381 416 l 381 239 l 848 239 q 879 207 879 239 l 879 32 q 874 19 879 25 q 845 0 871 0 l 142 0 q 120 7 128 0 q 112 30 112 15 l 112 999 z "},"`":{"ha":383,"x_min":49,"x_max":331,"o":"m 326 1017 q 329 1001 327 1010 q 331 985 331 992 q 327 972 331 977 q 313 966 324 966 l 161 966 q 140 973 148 966 q 124 995 132 980 l 56 1144 q 51 1160 52 1152 q 51 1174 49 1168 q 58 1185 53 1181 q 74 1189 63 1189 l 253 1189 q 275 1182 265 1189 q 290 1160 286 1176 l 326 1017 z "},"":{"ha":1015,"x_min":58,"x_max":957,"o":"m 58 200 q 66 222 58 214 q 89 231 74 231 l 272 231 q 294 222 284 231 q 304 200 304 214 l 304 32 q 296 10 304 19 q 272 0 288 0 l 89 0 q 58 32 58 0 l 58 200 m 385 200 q 392 222 385 214 q 415 231 400 231 l 599 231 q 621 222 610 231 q 631 200 631 214 l 631 32 q 623 10 631 19 q 599 0 615 0 l 415 0 q 385 32 385 0 l 385 200 m 711 200 q 719 222 711 214 q 742 231 727 231 l 925 231 q 947 222 937 231 q 957 200 957 214 l 957 32 q 949 10 957 19 q 925 0 941 0 l 742 0 q 711 32 711 0 l 711 200 z "},"":{"ha":364,"x_min":72,"x_max":303,"o":"m 303 700 q 295 678 303 686 q 272 669 288 669 l 104 669 q 82 678 92 669 q 72 700 72 686 l 72 850 q 74 909 72 880 q 108 1009 78 963 q 192 1085 138 1054 q 198 1088 193 1086 q 207 1090 202 1089 q 217 1093 213 1092 q 224 1094 222 1094 q 233 1091 229 1094 q 240 1084 236 1088 l 267 1064 q 281 1050 278 1056 q 283 1038 283 1044 q 273 1021 283 1031 q 252 998 264 1011 q 232 968 241 985 q 222 930 222 951 l 222 899 q 235 885 222 887 l 274 885 q 295 876 288 885 q 303 854 303 868 l 303 700 z "},"":{"ha":388,"x_min":86,"x_max":317,"o":"m 86 1001 q 94 1024 86 1015 q 117 1032 101 1032 l 285 1032 q 307 1024 297 1032 q 317 1001 317 1015 l 317 851 q 315 792 317 822 q 281 693 310 738 q 197 616 251 647 q 191 614 196 615 q 182 611 187 613 q 172 609 176 610 q 165 608 167 608 q 156 610 160 608 q 149 617 153 613 l 122 638 q 108 652 110 646 q 106 663 106 658 q 116 681 106 671 q 136 703 125 690 q 157 733 148 717 q 167 772 167 750 l 167 802 q 154 817 167 815 l 115 817 q 93 825 101 817 q 86 847 86 833 l 86 1001 z "},"":{"ha":672,"x_min":71,"x_max":610,"o":"m 301 698 q 294 676 301 684 q 271 667 286 667 l 103 667 q 81 676 91 667 q 71 698 71 684 l 71 848 q 73 907 71 878 q 107 1007 77 961 q 191 1083 137 1052 q 196 1085 192 1084 q 206 1088 201 1087 q 216 1091 211 1090 q 222 1092 221 1092 q 231 1089 228 1092 q 239 1082 235 1086 l 265 1062 q 279 1048 277 1053 q 281 1036 281 1042 q 272 1019 281 1028 q 251 996 263 1009 q 230 966 240 983 q 221 928 221 949 l 221 897 q 233 883 221 885 l 273 883 q 294 874 287 883 q 301 852 301 866 l 301 698 m 610 698 q 602 676 610 684 q 579 667 594 667 l 411 667 q 389 676 399 667 q 379 698 379 684 l 379 848 q 381 907 379 878 q 415 1007 385 961 q 499 1083 445 1052 q 505 1085 500 1084 q 514 1088 509 1087 q 524 1091 519 1090 q 531 1092 529 1092 q 540 1089 536 1092 q 547 1082 543 1086 l 574 1062 q 588 1048 585 1053 q 590 1036 590 1042 q 580 1019 590 1028 q 559 996 571 1009 q 539 966 548 983 q 529 928 529 949 l 529 897 q 542 883 529 885 l 581 883 q 602 874 595 883 q 610 852 610 866 l 610 698 z "},"":{"ha":688,"x_min":71,"x_max":617,"o":"m 71 1002 q 78 1024 71 1016 q 101 1033 86 1033 l 269 1033 q 291 1024 281 1033 q 301 1002 301 1016 l 301 852 q 299 793 301 822 q 265 693 295 739 q 181 617 235 648 q 176 615 181 616 q 166 612 172 613 q 156 609 161 610 q 150 608 151 608 q 141 611 144 608 q 133 618 138 614 l 107 638 q 93 652 95 647 q 91 664 91 658 q 100 681 91 672 q 121 704 110 691 q 142 734 133 717 q 151 772 151 751 l 151 803 q 139 817 151 815 l 99 817 q 78 826 85 817 q 71 848 71 834 l 71 1002 m 386 1002 q 394 1024 386 1016 q 417 1033 401 1033 l 585 1033 q 607 1024 597 1033 q 617 1002 617 1016 l 617 852 q 615 793 617 822 q 581 693 610 739 q 497 617 551 648 q 491 615 496 616 q 482 612 487 613 q 472 609 476 610 q 465 608 467 608 q 456 611 460 608 q 449 618 453 614 l 422 638 q 408 652 410 647 q 406 664 406 658 q 416 681 406 672 q 436 704 425 691 q 457 734 448 717 q 467 772 467 751 l 467 803 q 454 817 467 815 l 415 817 q 393 826 401 817 q 386 848 386 834 l 386 1002 z "},"":{"ha":780,"x_min":94,"x_max":729,"o":"m 94 693 q 122 831 94 767 q 199 942 151 895 q 313 1016 248 989 q 449 1043 377 1043 q 559 1028 508 1043 q 655 987 611 1013 q 674 970 667 980 q 682 945 682 960 q 681 936 682 941 q 676 928 680 932 l 613 804 q 585 783 601 783 l 584 783 q 563 791 577 783 q 521 813 547 803 q 470 822 494 822 q 423 811 444 822 q 386 784 401 801 q 361 744 370 767 q 353 696 353 722 l 353 594 l 545 594 q 567 585 557 594 q 577 563 577 577 l 577 435 q 569 412 577 422 q 545 402 561 402 l 353 402 l 353 246 l 699 246 q 720 238 712 246 q 729 215 729 230 l 729 33 q 727 23 729 28 q 721 12 725 17 q 711 3 717 7 q 699 0 706 0 l 124 0 q 94 30 94 0 l 94 693 z "},"":{"ha":851,"x_min":56,"x_max":809,"o":"m 648 272 q 666 280 658 278 q 680 282 675 282 q 701 277 692 282 q 722 256 710 272 l 799 139 q 806 126 803 133 q 809 115 809 119 q 799 89 809 99 q 777 72 789 79 q 711 33 745 50 q 639 3 676 15 l 639 -117 q 605 -147 639 -147 l 401 -147 q 370 -117 370 -147 l 370 6 q 244 69 302 27 q 145 167 187 110 q 80 294 103 224 q 56 440 56 363 q 80 588 56 518 q 145 714 103 657 q 244 811 187 770 q 370 874 302 853 l 370 1001 q 378 1022 370 1013 q 401 1031 385 1031 l 605 1031 q 627 1023 615 1031 q 639 1001 639 1015 l 639 878 q 769 816 708 858 l 767 818 q 792 797 783 809 q 801 767 801 785 q 792 741 801 754 l 731 636 q 683 602 710 602 q 668 605 677 602 q 648 616 659 608 q 582 649 617 636 q 508 662 547 662 q 427 644 464 662 q 364 596 390 626 q 324 525 338 565 q 309 440 309 485 q 324 355 309 394 q 364 285 338 315 q 427 239 390 256 q 508 222 464 222 q 582 236 547 222 q 648 272 617 250 z "},"":{"ha":593,"x_min":29,"x_max":564,"o":"m 29 450 q 60 481 29 481 l 202 481 l 202 1001 q 210 1022 202 1013 q 233 1031 217 1031 l 358 1031 q 380 1023 368 1031 q 392 1001 392 1015 l 392 481 l 533 481 q 555 473 546 481 q 564 450 564 465 l 564 324 q 556 302 564 314 q 533 291 547 291 l 392 291 l 392 -235 q 358 -266 392 -266 l 233 -266 q 202 -235 202 -266 l 202 291 l 60 291 q 29 324 29 291 l 29 450 z "},"":{"ha":614,"x_min":40,"x_max":574,"o":"m 40 310 q 70 341 40 341 l 213 341 l 213 491 l 70 491 q 40 524 40 491 l 40 650 q 70 681 40 681 l 213 681 l 213 1001 q 220 1022 213 1013 q 243 1031 228 1031 l 368 1031 q 390 1023 378 1031 q 402 1001 402 1015 l 402 681 l 544 681 q 565 673 556 681 q 574 650 574 665 l 574 524 q 566 502 574 514 q 544 491 558 491 l 402 491 l 402 341 l 544 341 q 565 333 556 341 q 574 310 574 325 l 574 185 q 566 163 574 174 q 544 151 558 151 l 402 151 l 402 -235 q 368 -266 402 -266 l 243 -266 q 213 -235 213 -266 l 213 151 l 70 151 q 40 185 40 151 l 40 310 z "},"":{"ha":532,"x_min":16,"x_max":501,"o":"m 56 656 q 92 690 56 690 l 136 690 l 136 751 q 145 818 136 785 q 172 882 155 851 q 211 938 188 912 q 260 985 233 965 q 354 1032 303 1017 q 462 1047 405 1047 q 491 1037 481 1047 q 501 1011 501 1027 l 501 856 q 494 833 501 841 q 474 825 486 825 l 470 825 q 435 820 451 825 q 408 805 419 815 q 389 782 396 796 q 382 750 382 767 l 382 690 l 455 690 q 481 682 471 690 q 491 656 491 674 l 491 531 q 481 505 491 517 q 455 493 472 493 l 382 493 l 382 30 q 352 -112 382 -48 q 261 -225 322 -177 q 163 -270 217 -256 q 53 -284 108 -284 q 16 -250 16 -284 l 16 -94 q 24 -72 16 -80 q 44 -63 32 -63 l 47 -63 q 80 -58 64 -63 q 108 -44 96 -53 q 128 -21 121 -35 q 136 11 136 -7 l 136 493 l 92 493 q 56 531 56 493 l 56 656 z "},"":{"ha":950,"x_min":78,"x_max":847,"o":"m 78 1021 q 82 1029 78 1026 q 93 1033 85 1033 l 382 1033 q 397 1021 397 1033 l 397 946 q 382 932 397 932 l 292 932 l 292 624 q 288 614 292 619 q 280 610 284 610 l 197 610 q 189 614 194 610 q 183 624 183 619 l 183 932 l 93 932 q 78 946 78 932 l 78 1021 m 437 1021 q 440 1029 437 1026 q 449 1033 444 1033 l 558 1033 q 570 1024 567 1033 l 631 834 l 694 1024 q 700 1031 695 1028 q 708 1033 704 1033 l 813 1033 q 822 1029 817 1033 q 826 1021 826 1025 l 847 622 q 831 610 847 610 l 758 610 q 746 622 746 610 l 728 840 l 666 639 q 656 628 662 628 l 608 628 q 597 639 602 628 l 535 840 l 518 622 q 504 610 518 610 l 429 610 q 417 622 417 610 l 437 1021 z "},"":{"ha":612,"x_min":40,"x_max":576,"o":"m 65 1124 q 96 1158 78 1142 q 135 1184 114 1173 q 178 1200 156 1194 q 222 1206 200 1206 q 249 1203 235 1206 q 281 1193 264 1200 q 320 1175 299 1186 q 368 1146 342 1163 q 383 1138 376 1141 q 399 1135 390 1135 q 424 1141 414 1135 q 442 1156 433 1147 l 465 1184 q 478 1193 471 1193 q 492 1188 485 1194 l 563 1125 q 573 1112 571 1117 q 569 1097 576 1106 l 548 1070 q 479 1010 520 1032 q 392 989 438 989 q 338 998 365 989 q 284 1024 310 1008 l 246 1048 q 231 1056 238 1053 q 215 1058 224 1058 q 191 1053 201 1058 q 173 1038 181 1047 l 151 1010 q 137 1002 147 1003 q 120 1008 126 1001 l 49 1068 q 43 1075 45 1072 q 40 1084 40 1078 q 41 1087 40 1085 q 43 1093 41 1089 q 51 1105 46 1097 q 65 1124 56 1112 z "},"":{"ha":519,"x_min":63,"x_max":458,"o":"m 245 1251 q 253 1256 250 1254 q 260 1257 256 1257 q 274 1251 266 1257 l 453 1073 q 458 1057 458 1069 q 452 1044 458 1051 l 391 981 q 372 974 383 974 q 357 980 363 974 l 260 1078 l 162 979 q 145 974 154 972 q 131 981 137 976 l 69 1042 q 64 1049 65 1045 q 63 1057 63 1053 q 64 1066 63 1063 q 69 1072 66 1069 l 245 1251 z "},"":{"ha":1011,"x_min":31,"x_max":976,"o":"m 504 651 l 672 1010 q 679 1022 676 1018 q 685 1027 682 1026 q 691 1030 688 1029 q 698 1031 694 1030 l 965 1031 q 973 1028 970 1031 q 976 1021 976 1025 q 973 1013 976 1017 q 967 1003 970 1009 l 707 544 l 788 544 q 810 536 801 544 q 819 513 819 528 l 819 437 q 810 415 819 426 q 788 403 802 403 l 638 403 l 638 341 l 788 341 q 810 333 801 341 q 819 310 819 325 l 819 234 q 810 212 819 224 q 788 200 802 200 l 638 200 l 638 33 q 606 0 638 0 l 397 0 q 376 9 383 0 q 368 33 368 17 l 368 200 l 226 200 q 196 234 196 200 l 196 310 q 226 341 196 341 l 368 341 l 368 403 l 226 403 q 196 437 196 403 l 196 513 q 226 544 196 544 l 299 544 l 40 1003 q 33 1013 36 1009 q 31 1021 31 1017 q 33 1028 31 1025 q 41 1031 36 1031 l 308 1031 q 316 1030 313 1030 q 322 1027 319 1029 q 327 1022 324 1026 q 335 1010 330 1018 l 504 651 z "},"":{"ha":1161,"x_min":116,"x_max":1047,"o":"m 116 488 q 147 518 116 518 l 1016 518 q 1038 510 1028 518 q 1047 488 1047 503 l 1047 365 q 1038 343 1047 355 q 1016 332 1030 332 l 147 332 q 116 365 116 332 l 116 488 z "},"":{"ha":613,"x_min":65,"x_max":592,"o":"m 582 460 q 592 438 592 449 q 582 418 592 428 l 219 53 q 197 44 209 44 q 178 53 188 44 l 76 153 q 65 178 65 164 q 74 199 65 190 l 313 439 l 74 678 q 68 690 69 684 q 65 700 67 695 q 69 711 67 706 q 76 722 71 717 l 174 822 q 197 831 183 831 q 218 823 212 831 l 582 460 z "},"N":{"ha":1138,"x_min":115,"x_max":1024,"o":"m 115 1001 q 122 1022 115 1013 q 145 1031 130 1031 l 372 1031 q 392 1026 382 1031 q 410 1010 403 1022 q 585 729 499 867 q 761 449 672 591 l 761 1005 q 772 1024 764 1017 q 792 1031 781 1031 l 990 1031 q 1014 1023 1004 1031 q 1024 1001 1024 1015 l 1024 27 q 1015 7 1024 13 q 992 0 1007 0 l 771 0 q 755 6 762 0 q 740 23 748 13 q 558 325 648 176 q 374 627 467 474 l 374 31 q 367 8 374 15 q 342 0 360 0 l 145 0 q 122 9 129 0 q 115 30 115 17 l 115 1001 z "},"":{"ha":365,"x_min":56,"x_max":338,"o":"m 98 1160 q 112 1182 101 1176 q 135 1189 123 1189 l 314 1189 q 330 1185 324 1189 q 336 1174 335 1181 q 337 1160 338 1168 q 332 1144 335 1152 l 264 995 q 248 973 256 980 q 226 966 240 966 l 74 966 q 60 972 64 966 q 56 985 56 977 q 58 1001 56 992 q 62 1017 60 1010 l 98 1160 z "},"":{"ha":653,"x_min":75,"x_max":572,"o":"m 75 1172 q 104 1201 75 1201 l 240 1201 q 259 1194 250 1201 q 269 1172 269 1186 l 269 1041 q 261 1018 269 1028 q 240 1007 253 1007 l 104 1007 q 75 1041 75 1007 l 75 1172 m 378 1172 q 408 1201 378 1201 l 542 1201 q 572 1172 572 1201 l 572 1041 q 564 1018 572 1028 q 542 1007 556 1007 l 408 1007 q 378 1041 378 1007 l 378 1172 z "},"":{"ha":932,"x_min":92,"x_max":815,"o":"m 331 661 q 336 654 335 658 q 338 646 338 650 l 338 309 q 352 271 340 288 q 383 242 365 254 q 422 223 401 230 q 461 216 443 216 q 501 224 482 216 q 536 244 521 231 q 561 276 551 258 q 570 315 570 294 l 570 647 q 578 672 570 664 q 606 681 587 681 l 780 681 q 805 671 794 681 q 815 645 815 662 l 815 344 q 813 284 815 313 q 781 168 808 222 q 710 75 754 115 q 609 13 667 35 q 485 -10 551 -10 q 437 -2 458 -10 q 398 16 415 5 q 365 41 380 28 q 338 67 350 55 l 338 -238 q 331 -259 338 -252 q 314 -269 324 -266 q 292 -273 303 -273 q 273 -274 281 -274 l 128 -274 q 101 -264 110 -274 q 92 -237 92 -253 l 92 645 q 101 671 92 662 q 131 681 110 681 l 274 681 q 292 681 282 681 q 310 679 301 681 q 324 673 318 677 q 331 661 331 669 z "},"":{"ha":415,"x_min":84,"x_max":330,"o":"m 84 522 q 92 544 84 535 q 115 552 99 552 l 298 552 q 320 544 310 552 q 330 522 330 535 l 330 353 q 322 331 330 341 q 298 322 314 322 l 115 322 q 84 353 84 322 l 84 522 z "},"":{"ha":387,"x_min":42,"x_max":367,"o":"m 240 0 q 224 -24 224 -10 q 235 -45 224 -35 q 261 -64 246 -54 q 296 -86 277 -74 q 330 -112 315 -97 q 357 -146 346 -127 q 367 -191 367 -165 q 350 -244 367 -216 q 302 -301 333 -273 q 228 -352 272 -328 q 133 -392 185 -376 l 129 -392 q 106 -377 119 -392 q 83 -342 94 -362 q 64 -305 72 -323 q 56 -280 56 -286 q 64 -265 56 -269 q 183 -191 183 -235 q 172 -164 183 -176 q 146 -141 162 -152 q 113 -120 131 -131 q 79 -97 94 -109 q 53 -69 63 -84 q 42 -33 42 -53 q 44 -18 42 -26 q 56 0 47 -10 l 240 0 z "},"":{"ha":452,"x_min":77,"x_max":376,"o":"m 226 997 q 285 985 258 997 q 332 953 312 974 q 364 906 352 933 q 376 847 376 878 q 364 789 376 816 q 332 741 352 761 q 284 709 311 721 q 226 698 257 698 q 168 709 195 698 q 121 741 141 721 q 89 789 101 761 q 77 847 77 816 q 89 906 77 878 q 120 953 100 933 q 168 985 140 974 q 226 997 195 997 m 226 910 q 181 892 199 910 q 163 847 163 874 q 181 802 163 820 q 226 784 199 784 q 270 802 252 784 q 289 847 289 820 q 284 872 289 860 q 270 892 279 883 q 250 905 262 900 q 226 910 239 910 z "},"":{"ha":377,"x_min":96,"x_max":290,"o":"m 96 986 q 125 1015 96 1015 l 261 1015 q 280 1008 271 1015 q 290 986 290 1000 l 290 855 q 282 832 290 842 q 261 821 274 821 l 125 821 q 96 855 96 821 l 96 986 z "},"":{"ha":453,"x_min":33,"x_max":419,"o":"m 224 981 q 149 997 183 982 q 88 1036 114 1012 q 48 1091 63 1060 q 33 1156 33 1122 q 41 1174 33 1167 q 60 1181 49 1181 l 160 1181 q 172 1177 167 1181 q 176 1166 176 1172 q 188 1137 176 1150 q 227 1124 201 1124 q 264 1138 251 1124 q 276 1166 276 1151 q 280 1177 276 1172 q 291 1181 283 1181 l 392 1181 q 411 1174 403 1181 q 419 1156 419 1167 q 404 1090 419 1122 q 363 1035 389 1059 q 301 997 336 1011 q 224 981 265 982 z "},"":{"ha":358,"x_min":18,"x_max":344,"o":"m 330 0 q 342 -18 340 -10 q 344 -33 344 -26 q 333 -69 344 -53 q 307 -97 323 -84 q 274 -120 292 -109 q 240 -141 256 -131 q 214 -164 224 -152 q 203 -191 203 -176 q 322 -265 203 -235 q 330 -280 330 -269 q 322 -305 330 -286 q 303 -342 315 -323 q 280 -377 292 -362 q 257 -392 267 -392 l 253 -392 q 157 -352 201 -376 q 83 -301 114 -328 q 35 -244 52 -273 q 18 -191 18 -216 q 29 -146 18 -165 q 56 -112 40 -127 q 90 -86 72 -97 q 124 -64 108 -74 q 151 -45 140 -54 q 162 -24 162 -35 q 147 0 162 -10 l 330 0 z "},"":{"ha":992,"x_min":115,"x_max":876,"o":"m 607 1003 q 634 1031 607 1029 l 839 1031 q 876 995 876 1031 l 876 -12 q 849 -141 876 -81 q 775 -245 822 -201 q 667 -316 728 -290 q 538 -342 606 -342 q 458 -333 497 -342 q 384 -306 419 -324 q 319 -262 349 -288 q 266 -202 289 -236 q 264 -191 264 -201 q 275 -165 264 -173 l 396 -51 q 408 -43 401 -47 q 419 -40 414 -40 q 439 -48 430 -40 q 460 -65 449 -56 q 487 -82 472 -74 q 524 -90 502 -90 q 555 -83 540 -90 q 582 -67 570 -77 q 600 -42 593 -56 q 607 -12 607 -28 l 607 1003 m 115 1001 q 122 1022 115 1013 q 145 1031 130 1031 l 349 1031 q 372 1023 360 1031 q 383 1001 383 1015 l 383 31 q 349 0 383 0 l 145 0 q 115 31 115 0 l 115 1001 z "},"":{"ha":819,"x_min":-33,"x_max":769,"o":"m 88 410 l 33 390 q 3 406 13 383 l -26 483 q -11 514 -33 505 l 88 549 l 88 1001 q 96 1023 88 1014 q 119 1032 104 1032 l 324 1032 q 346 1024 336 1032 q 356 1001 356 1015 l 356 647 l 423 672 q 450 658 440 678 l 479 580 q 480 561 483 570 q 467 549 476 553 l 356 508 l 356 246 l 738 246 q 760 238 751 246 q 769 215 769 229 l 769 32 q 761 10 769 20 q 738 0 753 1 l 118 0 q 88 31 88 0 l 88 410 z "},"":{"ha":832,"x_min":130,"x_max":801,"o":"m 130 828 q 142 866 130 850 q 181 882 155 882 l 340 882 q 358 878 349 882 q 376 867 368 874 q 391 850 385 860 q 397 828 397 840 l 397 53 q 382 14 397 27 q 340 0 367 0 l 181 0 q 130 53 130 0 l 130 828 m 130 1179 q 142 1220 130 1208 q 181 1233 155 1233 l 342 1233 q 382 1220 367 1233 q 397 1179 397 1208 l 397 1044 q 393 1026 397 1035 q 382 1007 389 1016 q 365 992 375 998 q 342 986 355 986 l 181 986 q 130 1044 130 986 l 130 1179 m 535 828 q 553 868 535 855 q 591 882 570 882 l 749 882 q 788 866 774 882 q 801 828 801 850 l 801 31 q 774 -91 801 -34 q 701 -190 747 -148 q 596 -257 656 -233 q 472 -281 537 -281 l 456 -281 q 417 -266 431 -280 q 404 -231 404 -251 l 404 -132 q 420 -92 404 -107 q 458 -76 435 -76 l 472 -76 q 498 -65 486 -76 q 518 -37 510 -53 q 531 -2 526 -20 q 535 31 535 17 l 535 828 m 532 1179 q 544 1220 532 1208 q 583 1233 557 1233 l 744 1233 q 784 1220 769 1233 q 799 1179 799 1208 l 799 1044 q 795 1026 799 1035 q 784 1007 791 1016 q 767 992 777 998 q 744 986 757 986 l 583 986 q 532 1044 532 986 l 532 1179 z "},"":{"ha":1028,"x_min":0,"x_max":0,"o":""},"":{"ha":597,"x_min":13,"x_max":551,"o":"m 445 480 q 467 457 467 480 l 467 341 q 461 324 467 331 q 445 317 455 317 l 103 317 q 79 341 79 317 l 79 457 q 103 480 79 480 l 445 480 m 139 1019 q 153 1052 139 1041 q 194 1072 167 1063 l 351 1127 q 358 1128 355 1128 q 364 1128 361 1128 q 398 1113 390 1128 q 407 1074 407 1098 l 406 883 l 501 883 q 538 869 524 883 q 551 830 551 856 l 551 696 q 538 653 551 667 q 501 640 524 640 l 406 640 l 407 53 q 392 14 407 27 q 349 0 376 0 l 192 0 q 139 53 139 0 l 138 640 l 67 640 q 13 696 13 640 l 13 830 q 67 883 13 883 l 138 883 l 139 1019 z "},"":{"ha":769,"x_min":11,"x_max":781,"o":"m 137 1019 q 151 1052 137 1041 q 192 1072 165 1063 l 349 1127 q 356 1128 353 1128 q 362 1128 359 1128 q 396 1113 388 1128 q 405 1074 405 1098 l 404 883 l 499 883 q 535 869 522 883 q 549 830 549 856 l 549 696 q 535 653 549 667 q 499 640 522 640 l 404 640 l 405 53 q 390 14 405 27 q 347 0 374 0 l 190 0 q 137 53 137 0 l 136 640 l 65 640 q 11 696 11 640 l 11 830 q 65 883 11 883 l 136 883 l 137 1019 m 560 1160 q 568 1179 560 1172 q 588 1187 575 1187 l 752 1187 q 772 1180 763 1187 q 781 1160 781 1172 l 781 981 q 751 871 781 922 q 664 786 721 819 q 656 785 663 785 q 642 788 647 785 q 633 793 637 790 l 590 829 q 581 840 583 835 q 578 850 578 844 q 587 866 578 858 q 606 884 595 874 q 624 907 616 894 q 633 940 633 921 l 633 967 q 622 981 633 978 l 586 981 q 560 1008 560 981 l 560 1160 z "},"":{"ha":425,"x_min":0,"x_max":0,"o":""},"":{"ha":925,"x_min":56,"x_max":869,"o":"m 56 1001 q 65 1023 56 1015 q 88 1031 74 1031 l 836 1031 q 858 1024 849 1031 q 869 1001 868 1016 l 869 828 q 861 804 869 815 q 836 792 852 792 l 597 792 l 597 33 q 588 10 597 20 q 564 0 578 0 l 360 0 q 338 9 348 0 q 327 33 327 19 l 327 792 l 88 792 q 65 801 74 792 q 56 828 56 810 l 56 1001 m 682 630 q 703 622 694 630 q 713 599 713 614 l 713 465 q 704 442 713 452 q 682 433 696 433 l 231 433 q 199 465 199 433 l 199 599 q 231 630 199 630 l 682 630 z "},"":{"ha":690,"x_min":68,"x_max":606,"o":"m 576 183 q 597 175 588 183 q 606 152 606 167 l 606 33 q 598 10 606 21 q 576 0 590 0 l 114 0 q 83 33 83 0 l 83 152 q 114 183 83 183 l 576 183 m 68 581 q 99 611 68 611 l 226 611 l 226 745 q 259 776 226 776 l 415 776 q 445 745 445 776 l 445 611 l 572 611 q 594 603 585 611 q 603 581 603 595 l 603 440 q 594 418 603 429 q 572 406 586 406 l 445 406 l 445 272 q 438 250 445 259 q 415 241 430 241 l 259 241 q 237 249 249 241 q 226 272 226 258 l 226 406 l 99 406 q 68 440 68 406 l 68 581 z "},"":{"ha":763,"x_min":29,"x_max":731,"o":"m 563 1001 q 579 1022 568 1013 q 607 1031 590 1031 l 697 1031 q 721 1026 710 1031 q 731 1010 731 1020 q 730 1001 731 1002 l 200 31 q 185 7 192 13 q 163 0 178 0 l 58 0 q 29 18 29 0 q 32 31 29 17 l 563 1001 z "},"":{"ha":495,"x_min":120,"x_max":387,"o":"m 120 828 q 133 866 120 850 q 172 882 145 882 l 331 882 q 349 878 339 882 q 367 867 358 874 q 381 850 375 860 q 387 828 387 840 l 387 53 q 372 14 387 27 q 331 0 358 0 l 172 0 q 120 53 120 0 l 120 828 z "},"":{"ha":1024,"x_min":15,"x_max":990,"o":"m 979 460 q 990 438 990 449 q 979 418 990 428 l 616 53 q 595 44 608 44 q 575 53 585 44 l 473 153 q 463 178 463 163 q 471 199 463 190 l 710 439 l 471 678 q 465 690 466 684 q 463 700 463 695 q 472 722 464 712 l 572 822 q 595 831 581 831 q 615 823 609 831 l 979 460 m 532 460 q 542 438 542 449 q 532 418 542 428 l 169 53 q 148 44 160 44 q 128 53 138 44 l 26 153 q 15 178 15 163 q 24 199 15 190 l 263 439 l 24 678 q 17 690 19 684 q 15 700 16 695 q 25 722 17 712 l 125 822 q 148 831 133 831 q 168 823 162 831 l 532 460 z "},"":{"ha":1020,"x_min":15,"x_max":990,"o":"m 390 823 q 410 831 396 831 q 433 822 424 831 l 533 722 q 542 700 541 712 q 540 690 542 695 q 534 678 539 684 l 295 439 l 534 199 q 542 178 542 190 q 532 153 542 163 l 430 53 q 420 47 426 49 q 410 44 415 44 q 389 53 397 44 l 26 418 q 15 438 15 428 q 26 460 15 449 l 390 823 m 837 823 q 857 831 843 831 q 880 822 872 831 l 980 722 q 990 700 988 712 q 988 690 989 695 q 981 678 986 684 l 742 439 l 981 199 q 990 178 990 190 q 979 153 990 163 l 877 53 q 868 47 873 49 q 857 44 863 44 q 836 53 844 44 l 473 418 q 463 438 463 428 q 473 460 463 449 l 837 823 z "},"":{"ha":764,"x_min":124,"x_max":638,"o":"m 607 562 q 628 554 619 562 q 638 531 638 546 l 638 397 q 629 374 638 384 q 607 365 621 365 l 156 365 q 124 397 124 365 l 124 531 q 156 562 124 562 l 607 562 z "},"":{"ha":764,"x_min":124,"x_max":638,"o":"m 607 590 q 628 582 619 590 q 638 559 638 574 l 638 424 q 629 402 638 412 q 607 392 621 392 l 156 392 q 124 424 124 392 l 124 559 q 156 590 124 590 l 607 590 z "},"":{"ha":764,"x_min":124,"x_max":638,"o":"m 607 534 q 628 526 619 534 q 638 503 638 518 l 638 390 q 629 367 638 377 q 607 358 621 358 l 156 358 q 124 390 124 358 l 124 503 q 156 534 124 534 l 607 534 z "},"":{"ha":413,"x_min":84,"x_max":330,"o":"m 84 200 q 92 222 84 214 q 115 231 99 231 l 298 231 q 320 222 310 231 q 330 200 330 214 l 330 32 q 322 10 330 19 q 298 0 314 0 l 115 0 q 84 32 84 0 l 84 200 z "},"":{"ha":809,"x_min":119,"x_max":719,"o":"m 473 200 q 481 222 473 214 q 503 231 488 231 l 687 231 q 709 222 699 231 q 719 200 719 214 l 719 32 q 711 10 719 19 q 687 0 703 0 l 503 0 q 473 32 473 0 l 473 200 m 119 200 q 126 222 119 214 q 149 231 134 231 l 333 231 q 355 222 344 231 q 365 200 365 214 l 365 32 q 357 10 365 19 q 333 0 349 0 l 149 0 q 119 32 119 0 l 119 200 z "},"":{"ha":1074,"x_min":28,"x_max":1010,"o":"m 1010 515 q 991 375 1010 441 q 938 251 972 308 q 855 147 903 194 q 748 68 806 101 q 621 18 689 35 q 480 0 553 0 l 138 0 q 115 6 125 0 q 106 29 106 11 l 106 999 q 114 1023 106 1014 q 138 1032 122 1032 l 480 1032 q 620 1014 553 1032 q 747 963 688 996 q 854 883 806 929 q 937 778 903 836 q 991 654 972 721 q 1010 515 1010 588 m 374 783 l 374 249 l 433 249 q 464 250 449 249 q 494 252 479 251 q 592 277 547 256 q 670 333 637 299 q 723 414 704 367 q 742 515 742 460 q 720 623 742 574 q 661 707 699 672 q 573 763 624 743 q 466 783 523 783 l 374 783 m 29 583 q 55 611 29 611 l 467 611 q 486 603 478 611 q 494 583 494 596 l 494 456 q 487 436 494 447 q 467 426 479 426 l 55 426 q 29 456 29 426 l 29 583 z "}}}
